{"glyphs":{"0":{"ha":1151,"x_min":-24,"x_max":1224,"o":"m 672 240 l 815 374 l 531 685 l 386 551 l 672 240 m 204 915 l 246 965 l 731 965 l 1224 432 l 656 -92 l 483 -92 l -24 463 l 17 508 l 297 767 l 197 828 l 204 915 m 315 554 l 578 794 l 931 413 l 669 169 l 506 349 l 357 211 l 550 0 l 683 0 l 1153 435 l 708 915 l 293 915 l 292 899 l 408 826 l 406 797 l 88 506 l 339 229 l 489 367 l 315 554 z "},"1":{"ha":567,"x_min":-1,"x_max":539,"o":"m 406 -167 q 223 -111 322 -131 q -1 -90 124 -92 l 6 11 l 47 58 q 83 69 68 64 q 113 78 99 75 l 175 793 l 76 843 l 89 932 l 131 982 l 464 1015 l 519 961 l 442 57 l 539 -49 l 406 -167 m 269 854 l 207 154 l 400 154 l 468 943 l 446 964 l 175 936 l 172 915 l 258 871 q 269 857 269 864 l 269 854 m 468 -46 l 390 40 l 399 128 l 207 128 l 203 97 q 94 21 200 51 l 93 1 q 444 -68 297 -1 l 468 -46 z "},"2":{"ha":954,"x_min":47,"x_max":990,"o":"m 990 965 l 983 857 l 933 815 l 856 794 l 889 614 l 838 571 q 674 498 747 531 q 544 431 600 465 q 453 359 489 397 q 400 272 417 321 q 383 193 383 224 q 388 163 383 175 l 647 163 l 710 351 l 753 401 l 881 401 l 840 -50 l 792 -92 l 85 -92 q 57 6 67 -40 q 47 90 47 51 q 61 212 47 150 q 115 325 75 274 q 210 424 157 378 q 322 510 264 471 q 438 582 379 550 q 546 639 496 614 q 513 703 532 678 q 473 742 494 728 q 427 763 451 757 q 376 772 403 769 l 321 601 l 272 560 l 161 560 l 161 915 l 183 965 l 990 965 m 235 915 l 235 651 l 286 651 l 356 863 l 404 863 q 624 746 550 863 l 654 632 q 197 343 292 479 l 361 311 q 509 479 393 403 q 833 643 625 556 l 803 814 l 807 863 l 936 897 l 938 915 l 235 915 m 182 319 q 149 228 158 279 q 139 136 139 176 q 164 0 139 67 l 794 0 l 826 351 l 789 351 l 710 113 l 358 113 q 335 193 335 143 q 351 285 335 235 l 182 319 z "},"3":{"ha":946,"x_min":19,"x_max":942,"o":"m 167 956 l 208 1006 l 575 1032 l 625 975 l 643 990 l 942 733 l 828 601 q 868 522 868 549 q 852 476 868 496 q 796 432 836 457 l 733 393 l 839 315 q 898 259 876 288 q 919 200 919 231 q 908 153 919 176 q 880 108 897 129 q 841 70 863 88 q 799 43 819 53 l 418 -142 l 19 158 l 49 485 l 90 536 l 331 363 l 338 381 l 511 481 l 433 557 l 403 528 q 106 606 106 528 q 108 625 106 619 q 118 640 111 631 l 247 839 l 161 858 l 167 956 m 568 965 l 554 981 l 256 958 l 254 940 l 354 919 q 361 911 361 917 q 360 906 361 907 l 201 661 q 197 651 197 654 q 407 619 197 619 l 410 642 l 399 642 q 371 658 371 642 q 378 678 371 667 l 415 733 l 631 518 q 639 504 639 511 q 622 488 639 497 l 428 374 l 697 163 l 658 140 l 731 83 l 819 126 q 869 200 869 160 q 856 235 869 218 q 815 271 842 251 l 639 404 l 815 515 q 818 522 818 518 q 647 731 818 560 q 638 753 638 740 q 640 763 638 757 q 649 768 642 768 q 856 701 685 768 l 874 726 l 642 925 l 439 769 l 568 965 m 114 225 l 439 -43 l 704 71 l 633 125 l 599 107 l 133 446 l 114 225 z "},"4":{"ha":908,"x_min":51,"x_max":946,"o":"m 388 540 q 415 505 388 518 q 474 489 443 492 l 494 725 q 448 656 469 692 q 393 558 426 621 q 388 540 388 547 m 890 818 l 831 790 l 771 107 l 808 107 l 808 -19 l 758 -61 q 541 -113 649 -83 q 324 -185 433 -143 l 324 -54 l 433 38 l 457 286 q 406 282 431 283 q 357 281 381 281 q 235 289 292 281 q 138 318 179 297 q 74 375 97 339 q 51 468 51 411 q 67 549 51 510 q 106 630 82 589 q 161 714 131 671 q 224 806 192 757 l 221 806 q 195 808 214 806 q 140 815 176 810 l 147 947 l 189 997 l 475 964 q 509 944 494 953 q 533 924 524 935 l 553 946 l 613 993 l 946 961 l 946 861 l 890 818 m 892 894 l 893 915 l 626 943 l 600 922 l 560 464 q 531 446 550 451 q 489 440 511 440 q 438 447 465 440 q 389 467 411 454 q 352 498 367 479 q 338 540 338 517 q 347 576 338 554 q 368 619 356 597 q 394 661 381 642 q 415 693 407 681 l 272 765 q 244 718 265 744 q 201 660 224 692 q 160 592 178 629 q 142 514 142 556 q 165 438 142 465 q 226 395 189 410 q 310 376 264 381 q 403 372 357 372 q 480 376 442 372 q 554 386 518 381 l 522 33 l 415 -33 l 415 -74 q 578 -22 493 -46 q 758 21 663 1 l 758 57 l 749 57 q 718 79 731 64 l 785 833 q 797 850 786 843 l 892 894 m 431 717 l 443 736 q 490 815 474 785 q 507 865 507 846 q 496 893 507 882 q 461 915 485 904 l 236 943 l 233 901 q 297 883 278 894 q 315 853 315 872 q 308 823 315 838 q 289 788 301 808 l 431 717 z "},"5":{"ha":981,"x_min":33,"x_max":1014,"o":"m 578 244 q 576 293 578 269 q 571 340 574 317 l 490 340 l 578 244 m 567 746 q 531 732 547 739 q 500 715 514 725 l 435 572 l 506 572 q 488 606 488 585 q 490 625 488 619 q 499 640 492 631 l 567 746 m 1014 974 l 826 692 l 846 692 l 835 569 l 806 549 q 872 369 851 451 q 892 213 892 288 q 869 70 892 147 q 772 -92 846 -7 l 432 -92 l 257 99 l 206 -47 l 157 -89 l 33 -89 l 74 351 l 97 375 l 71 404 l 204 783 l 79 817 l 86 915 l 128 965 l 558 965 l 590 1004 l 944 1033 l 1014 974 m 536 522 l 529 432 l 656 432 q 666 358 663 392 q 669 296 669 324 q 617 129 669 182 l 414 351 l 161 351 l 129 3 l 169 3 l 258 250 l 275 244 l 499 0 l 790 0 q 842 213 842 97 q 772 522 842 350 l 536 522 m 928 983 l 638 958 l 636 940 l 735 919 q 740 915 740 918 l 175 915 l 174 897 l 297 863 l 293 814 l 168 461 l 194 432 l 503 432 l 511 522 l 358 522 l 460 746 q 708 858 532 838 l 582 661 q 578 651 578 654 q 789 619 578 619 l 792 642 l 779 642 q 751 658 751 642 q 758 678 751 661 l 949 965 l 928 983 z "},"6":{"ha":1007,"x_min":38,"x_max":990,"o":"m 649 690 l 990 322 l 981 200 l 494 -137 l 38 367 l 44 463 l 86 510 l 471 789 l 361 811 l 368 915 l 410 965 l 790 965 l 847 840 l 649 690 m 638 631 l 393 457 l 328 529 l 785 857 l 757 915 l 457 915 l 456 893 l 592 867 l 604 825 l 135 483 l 131 428 l 367 167 l 533 301 l 436 410 l 549 492 l 788 207 l 682 142 l 553 282 l 385 147 l 547 -32 l 932 228 l 939 304 l 638 631 z "},"7":{"ha":890,"x_min":93,"x_max":932,"o":"m 932 965 l 925 857 l 875 815 l 796 794 l 831 614 l 779 571 q 631 499 697 535 q 517 424 564 463 q 445 342 471 386 q 419 249 419 299 q 626 -50 419 142 l 572 -92 l 131 -92 q 103 6 113 -40 q 93 90 93 51 q 99 172 93 136 q 117 238 104 207 q 149 301 129 269 q 199 372 169 333 q 324 504 251 442 q 490 626 396 567 q 458 697 476 669 q 416 741 439 725 q 368 763 393 757 q 317 772 343 769 l 263 601 l 214 560 l 101 560 l 101 915 l 124 965 l 932 965 m 176 915 l 176 651 l 228 651 l 296 863 l 346 863 q 565 746 492 863 l 596 632 q 239 339 321 479 l 381 317 q 508 487 411 407 q 774 643 606 567 l 744 814 l 749 863 l 878 897 l 879 915 l 176 915 m 225 315 q 196 224 207 265 q 185 136 185 182 q 208 0 185 68 l 500 0 q 369 249 369 121 q 374 290 369 267 l 225 315 z "},"8":{"ha":919,"x_min":13,"x_max":935,"o":"m 935 685 l 925 572 l 875 531 l 725 440 l 906 365 l 889 168 l 353 -135 l 13 67 l 31 243 l 71 283 l 172 338 l 43 399 l 54 529 l 96 576 l 121 593 l 69 694 l 110 742 l 444 975 l 935 685 m 713 564 l 538 461 l 297 576 l 464 694 l 554 646 l 699 765 l 446 915 l 174 726 l 186 701 l 372 769 q 392 772 386 772 q 413 756 413 772 q 400 731 413 744 l 143 550 l 138 472 l 360 371 l 119 257 l 107 138 l 400 -36 l 842 200 l 854 335 l 601 439 l 878 603 l 882 657 l 721 751 l 578 635 l 713 564 m 733 211 l 546 118 l 251 267 l 429 347 l 733 211 m 419 596 l 401 581 l 535 517 l 546 526 l 513 546 l 419 596 m 546 172 l 565 178 l 415 251 l 399 242 l 546 172 z "},"9":{"ha":1007,"x_min":54,"x_max":1008,"o":"m 324 246 l 54 551 l 64 668 l 106 715 l 547 1011 l 1008 504 l 999 406 l 569 83 l 683 63 l 683 -50 l 626 -92 l 253 -92 l 199 28 l 239 75 l 315 129 l 275 193 l 324 246 m 383 226 l 403 199 l 619 338 l 299 707 l 406 772 l 758 386 l 713 353 l 765 294 l 951 432 l 957 488 l 539 946 l 154 688 l 147 611 l 447 271 l 383 226 m 494 49 l 482 90 l 743 279 l 690 338 l 301 58 l 329 0 l 629 0 l 631 22 l 494 49 z "}," ":{"ha":293,"x_min":0,"x_max":0,"o":""},"!":{"ha":568,"x_min":51,"x_max":628,"o":"m 74 244 l 133 314 l 175 781 q 76 818 175 789 l 83 919 l 125 968 q 549 1044 371 968 l 628 961 l 511 853 l 468 356 l 474 339 l 525 286 l 500 4 l 488 -1 l 450 -39 l 247 -136 l 51 -35 l 65 118 l 64 118 l 74 244 m 246 581 l 438 581 l 464 878 l 557 964 l 536 986 q 172 919 378 919 l 171 897 q 267 826 267 865 l 246 581 m 465 167 l 314 247 l 157 171 l 144 36 l 293 -39 l 453 36 l 465 167 m 161 233 l 318 299 l 471 235 l 474 269 l 431 315 l 417 344 l 435 554 l 243 554 l 225 347 l 207 313 l 164 269 l 161 233 z "},"\"":{"ha":575,"x_min":75,"x_max":618,"o":"m 118 724 q 75 971 118 825 l 115 1021 l 618 1021 q 464 576 594 810 l 415 533 l 308 533 l 285 561 l 257 533 l 97 533 q 118 724 118 656 m 433 625 q 563 971 547 829 l 182 971 q 208 769 208 878 q 206 699 208 735 q 197 625 203 663 l 276 625 q 371 882 333 726 q 365 736 369 799 q 354 625 360 674 l 433 625 z "},"$":{"ha":957,"x_min":56,"x_max":1010,"o":"m 482 560 l 482 563 q 485 583 482 572 q 497 603 489 594 l 499 606 q 479 590 488 599 q 464 572 471 582 l 465 572 l 457 560 l 482 560 m 824 649 l 836 649 l 836 560 l 793 65 l 743 24 l 535 24 l 528 -76 l 478 -118 l 272 -118 l 289 76 l 331 125 l 272 186 l 226 68 l 178 26 l 56 26 l 85 357 l 99 371 l 78 396 l 188 635 l 65 669 l 72 768 l 114 817 l 353 817 l 361 917 l 403 967 l 615 967 l 939 990 l 1010 929 l 824 649 m 781 511 l 514 511 l 507 421 l 640 421 l 621 210 l 490 357 l 172 357 l 151 118 l 192 118 l 276 333 l 294 328 l 490 115 l 747 115 l 781 511 m 657 768 l 161 768 l 160 750 l 283 715 l 279 665 l 179 449 l 206 421 l 481 421 l 489 511 l 369 511 l 422 599 q 513 687 460 661 q 621 715 565 713 l 657 768 m 944 922 l 924 940 l 632 915 l 631 897 l 729 876 q 738 868 738 874 q 736 863 738 864 l 576 618 q 574 608 574 613 q 785 576 574 576 l 786 599 l 774 599 q 747 615 747 599 q 754 635 747 621 l 944 922 m 561 917 l 449 917 l 440 813 l 553 813 l 561 917 m 490 76 l 376 76 l 367 -26 l 482 -26 l 490 76 z "},"%":{"ha":1240,"x_min":-65,"x_max":1344,"o":"m 499 664 l 508 671 l 464 717 l 456 708 l 499 664 m 815 158 l 824 167 l 781 211 l 772 204 l 815 158 m 400 358 l 285 358 l 75 586 l 118 629 l 115 632 l 261 767 l 161 828 l 167 915 l 208 965 l 693 965 l 856 793 l 1035 965 l 1344 965 l 881 517 l 994 517 l 1208 285 l 1017 108 l 1121 46 l 1115 -49 l 1065 -90 l 586 -90 l 425 76 l 250 -90 l -65 -90 l -29 -51 l 400 358 m 819 760 l 672 915 l 256 915 l 254 899 l 372 826 l 369 797 l 185 629 l 351 449 l 485 449 l 819 760 m 504 157 l 651 1 l 1068 1 l 1069 18 l 951 90 l 954 119 l 1139 288 l 972 468 l 839 468 l 504 157 m 96 0 l 276 0 l 690 401 l 610 489 l 96 0 m 710 421 l 1224 915 l 1056 915 l 629 510 l 710 421 m 385 711 l 511 828 l 621 711 l 496 593 l 385 711 m 940 206 l 813 89 l 704 206 l 829 324 l 940 206 z "},"&":{"ha":872,"x_min":21,"x_max":879,"o":"m 786 82 q 827 21 804 54 q 879 -50 850 -12 l 825 -92 l 560 -92 l 522 -32 l 383 -93 l 78 42 q 33 86 44 57 q 21 143 21 115 q 72 247 21 196 q 207 342 124 299 l 146 342 q 93 359 104 342 q 82 403 82 376 q 107 454 82 421 q 165 524 132 488 q 233 594 199 560 q 285 649 267 629 l 146 599 l 97 693 l 138 740 l 469 990 l 682 799 l 443 544 l 804 544 l 794 411 q 772 394 783 404 q 746 369 761 385 q 726 369 735 369 q 707 367 717 369 q 714 299 710 332 q 726 235 718 265 l 793 260 l 865 140 l 814 96 l 786 82 m 424 211 l 319 50 l 429 3 l 590 74 q 631 0 607 35 l 779 0 q 707 125 739 54 l 793 163 l 771 199 l 692 169 q 657 431 657 283 q 701 453 678 447 q 749 460 724 458 l 750 494 l 328 494 l 611 796 l 468 925 l 201 726 l 214 701 l 400 769 q 421 772 414 772 q 438 765 431 772 q 190 475 438 740 q 174 449 174 458 q 180 438 174 443 q 199 433 186 433 l 492 433 l 178 271 q 128 232 143 253 q 113 189 113 211 q 119 154 113 172 q 147 126 126 136 l 296 60 l 400 222 l 296 272 l 511 378 q 532 252 519 310 q 560 146 544 194 l 424 211 z "},"'":{"ha":526,"x_min":68,"x_max":592,"o":"m 122 971 l 164 1021 l 592 1021 q 446 756 529 878 q 243 533 363 633 l 104 533 l 68 606 q 172 836 146 717 l 115 860 l 122 971 m 272 621 q 514 971 415 747 l 211 971 l 208 935 l 271 908 q 151 625 249 760 l 272 621 z "},"(":{"ha":825,"x_min":126,"x_max":618,"o":"m 461 -358 l 389 -378 q 276 -244 325 -319 q 194 -84 228 -169 q 144 94 161 1 q 126 281 126 186 q 148 502 126 390 q 212 720 169 614 q 317 924 254 826 q 461 1106 379 1022 l 614 1033 q 549 895 578 971 q 499 735 519 819 q 469 561 479 651 q 458 381 458 471 q 467 215 458 297 q 497 56 476 132 q 547 -90 517 -21 q 618 -218 576 -160 l 586 -282 l 461 -358 m 568 -239 q 494 -94 525 -172 q 442 67 463 -17 q 411 236 421 150 q 401 407 401 322 l 217 426 q 229 222 217 322 q 269 29 242 122 q 338 -149 296 -64 q 440 -307 381 -233 l 568 -239 m 457 1060 q 372 948 411 1013 q 301 805 332 883 q 250 638 271 726 q 222 454 229 549 l 406 433 q 423 602 410 519 q 458 760 436 685 q 510 901 481 835 q 574 1019 539 967 l 457 1060 z "},")":{"ha":825,"x_min":126,"x_max":617,"o":"m 319 1088 l 394 1069 q 563 760 510 928 q 617 414 617 592 q 597 196 617 304 q 538 -15 576 88 q 444 -209 500 -117 q 315 -381 388 -301 l 129 -344 l 129 -285 q 190 -148 161 -222 q 240 8 218 -74 q 274 176 261 90 q 286 347 286 263 q 277 513 286 431 q 248 672 268 596 q 198 818 228 749 q 126 946 168 888 l 158 1010 l 319 1088 m 224 993 q 298 849 267 926 q 350 688 329 771 q 381 518 371 604 q 390 347 390 432 l 575 328 q 563 532 575 432 q 523 725 550 632 q 453 903 496 818 q 351 1061 411 988 l 224 993 m 335 -306 q 420 -194 381 -258 q 490 -51 460 -129 q 542 117 521 28 q 569 300 563 206 l 386 321 q 334 -6 379 147 q 218 -265 289 -158 l 335 -306 z "},",":{"ha":526,"x_min":-1,"x_max":524,"o":"m 56 186 l 97 236 l 524 236 q 381 -28 464 97 q 174 -254 299 -154 l 35 -250 l -1 -179 q 103 51 78 -62 l 44 76 l 56 186 m 204 -164 q 446 186 347 -39 l 143 186 l 140 150 l 201 124 q 82 -160 178 -25 l 204 -164 z "},"-":{"ha":565,"x_min":21,"x_max":572,"o":"m 572 464 l 518 301 l 469 260 l 21 260 l 72 414 l 115 464 l 572 464 m 150 414 l 129 351 l 483 351 l 504 414 l 150 414 z "},".":{"ha":499,"x_min":6,"x_max":471,"o":"m 22 161 l 64 208 l 272 307 l 471 206 l 454 13 l 404 -31 l 196 -131 l 6 -33 l 22 161 m 99 42 l 242 -33 l 407 46 l 419 176 l 272 251 l 111 176 l 99 42 z "},"/":{"ha":674,"x_min":-87,"x_max":778,"o":"m 124 -124 l 76 -164 l -87 -56 l 561 940 l 606 992 l 778 881 l 124 -124 m 708 865 l 619 924 l 21 3 l 110 -54 l 708 865 z "},":":{"ha":501,"x_min":7,"x_max":503,"o":"m 54 513 l 96 561 l 304 660 l 503 557 l 488 365 l 438 322 l 336 272 l 472 206 l 456 13 l 406 -31 l 197 -131 l 7 -31 l 24 161 l 65 208 l 164 254 l 36 322 l 54 513 m 131 394 l 272 322 l 440 399 l 450 529 l 304 604 l 142 529 l 131 394 m 100 42 l 243 -33 l 408 46 l 421 176 l 272 251 l 113 176 l 100 42 z "},";":{"ha":533,"x_min":-3,"x_max":536,"o":"m 290 236 l 522 236 q 380 -28 463 97 q 172 -254 297 -154 l 33 -250 l -3 -179 q 101 51 76 -62 l 43 76 l 54 186 l 97 236 l 233 236 l 71 322 l 88 513 l 129 561 l 338 660 l 536 557 l 521 365 l 471 322 l 290 236 m 203 -164 q 446 186 346 -40 l 142 186 l 139 150 l 200 124 q 81 -160 176 -25 l 203 -164 m 164 394 l 307 318 l 474 399 l 485 529 l 338 604 l 176 529 l 164 394 z "},"=":{"ha":513,"x_min":13,"x_max":526,"o":"m 526 542 l 474 385 l 511 385 l 458 224 l 410 182 l 13 182 l 67 338 l 28 338 l 78 492 l 121 542 l 526 542 m 142 336 l 121 272 l 424 272 l 444 336 l 142 336 m 157 492 l 136 429 l 438 429 l 458 492 l 157 492 z "},"?":{"ha":890,"x_min":100,"x_max":931,"o":"m 489 633 q 459 700 478 674 q 417 742 440 726 q 368 763 394 757 q 315 772 342 769 l 261 601 l 213 560 l 100 560 l 100 915 l 122 965 l 931 965 l 924 857 l 874 815 l 794 794 l 828 614 l 778 571 q 644 498 697 531 q 558 433 590 465 q 513 366 526 401 q 500 288 500 331 q 511 199 500 243 q 541 113 522 156 q 585 28 560 69 q 636 -50 610 -12 l 583 -92 l 228 -92 l 185 -61 q 156 19 169 -28 q 143 126 143 65 q 169 277 143 204 q 240 415 194 350 q 349 536 286 481 q 489 633 413 592 m 878 915 l 175 915 l 175 651 l 226 651 l 294 863 l 344 863 q 421 854 381 863 q 497 821 461 846 q 558 751 532 796 q 594 632 585 706 q 457 556 511 592 q 364 481 403 519 l 493 432 q 594 536 529 483 q 772 643 660 589 l 743 814 l 747 863 l 876 897 l 878 915 m 344 461 q 293 391 313 425 q 263 324 274 357 q 245 261 251 292 q 233 203 239 231 q 349 233 286 208 q 465 292 413 257 q 458 329 458 310 q 479 410 458 361 l 344 461 m 542 0 q 494 91 511 44 q 467 192 476 138 l 403 161 q 322 126 361 142 q 256 110 283 110 q 248 110 250 110 q 243 111 246 111 q 272 0 250 58 l 542 0 z "},"@":{"ha":1288,"x_min":82,"x_max":1151,"o":"m 1122 632 q 1119 503 1122 565 q 1104 383 1115 442 q 1073 266 1093 324 q 1018 150 1053 208 l 1128 131 l 1151 49 l 926 -282 q 811 -286 865 -286 q 645 -275 731 -286 q 478 -238 560 -264 q 325 -172 397 -212 q 199 -73 253 -132 q 113 65 144 -14 q 82 246 82 144 q 119 553 82 408 q 233 808 157 699 q 426 980 310 917 q 697 1043 542 1043 q 1017 938 913 1043 q 1122 632 1122 833 m 694 539 l 682 456 l 814 447 q 820 508 815 478 q 833 561 825 538 q 849 601 840 585 q 869 619 858 617 l 872 657 l 531 669 l 497 611 q 503 583 501 596 q 504 557 504 569 q 494 488 504 521 q 471 422 483 454 q 448 358 458 390 q 438 292 438 326 q 449 231 438 256 q 478 190 461 206 q 517 168 496 175 q 556 161 538 161 q 638 178 596 161 q 721 217 681 194 q 854 126 754 126 q 944 153 907 126 q 1006 221 981 179 q 1046 316 1031 263 q 1069 423 1061 369 q 1078 526 1076 476 q 1081 610 1081 575 q 989 901 1081 800 q 697 1003 897 1003 q 516 967 604 1003 q 355 860 428 932 q 232 680 282 788 q 167 426 182 572 l 313 415 q 354 602 322 529 q 434 717 386 675 q 542 774 482 758 q 667 789 601 789 q 815 774 760 789 q 899 724 871 760 q 936 625 928 688 q 944 465 944 563 q 939 413 944 444 q 922 352 933 382 q 895 301 911 322 q 858 281 879 281 q 824 320 835 281 q 814 414 814 360 l 814 418 l 678 428 l 665 333 q 642 311 657 319 q 614 303 628 303 q 592 313 601 303 q 582 344 582 322 q 590 383 582 365 q 606 421 597 401 q 623 464 615 440 q 631 521 631 488 l 631 542 l 694 539 m 310 329 q 310 358 310 344 q 311 388 310 372 l 164 399 q 161 353 161 376 q 161 306 161 329 q 185 128 161 217 q 277 -33 208 39 q 472 -149 346 -104 q 801 -193 597 -193 q 917 -189 856 -193 l 1090 108 l 1028 117 l 972 56 q 835 28 900 36 q 711 19 769 19 q 544 40 618 19 q 417 101 469 61 q 338 199 365 142 q 310 329 310 256 m 715 42 q 776 46 744 42 q 722 75 753 54 q 675 118 692 96 q 603 89 643 101 q 532 74 564 76 q 618 52 569 60 q 715 42 667 44 z "},"A":{"ha":1317,"x_min":-54,"x_max":1392,"o":"m 647 913 l 690 963 l 1021 993 l 1083 944 q 1081 898 1082 925 q 1081 854 1081 871 q 1097 624 1081 742 q 1149 383 1113 507 q 1245 126 1186 258 q 1392 -146 1304 -6 l 1338 -185 l 1133 -132 l 1097 -169 l 753 -143 l 746 -129 l 692 -167 q 293 -90 551 -92 l 306 -54 l 129 -54 l 165 103 l 179 115 q 174 133 174 121 q 181 160 174 144 q 193 183 189 176 l 300 343 l -37 407 l -54 501 l -11 550 l 319 724 l 289 622 l 679 676 q 692 726 686 701 q 706 776 699 750 l 621 828 l 647 913 m 614 508 l 322 483 l 321 465 l 421 444 q 428 436 428 442 q 426 431 428 432 l 268 185 q 265 179 265 179 q 563 143 265 143 l 550 119 q 533 90 542 103 q 510 65 525 76 q 472 43 496 54 q 408 21 447 32 l 403 1 q 735 -68 608 0 l 767 -46 l 710 40 q 735 91 724 65 q 758 142 747 117 l 981 142 q 940 250 956 192 q 917 379 924 308 l 890 379 l 881 260 q 778 192 875 192 q 933 778 879 443 q 941 651 936 711 q 951 533 946 592 l 1056 563 q 1038 706 1044 633 q 1032 854 1032 779 q 1032 899 1032 886 q 1033 922 1032 913 l 1007 943 l 728 915 l 721 894 l 794 850 q 803 839 803 846 q 800 833 803 839 q 698 476 751 635 q 586 192 644 318 l 468 192 q 440 207 440 192 q 446 228 440 217 l 635 489 l 614 508 m 954 489 q 998 275 971 375 q 1061 96 1025 175 l 1061 92 q 985 64 1061 64 q 930 67 961 64 q 860 75 899 69 l 842 50 l 1285 -67 q 1058 536 1115 211 l 954 489 m 236 504 l 663 543 l 690 626 l 219 563 l 238 624 l 43 522 l 49 490 l 281 447 l 236 504 m 1136 -76 l 774 35 l 825 -54 l 1136 -76 m 496 110 l 249 110 l 232 43 l 338 35 l 496 110 z "},"B":{"ha":1169,"x_min":-35,"x_max":1146,"o":"m 774 524 q 788 521 782 521 q 808 526 799 521 q 794 563 801 544 q 776 601 786 582 l 774 524 m 426 -75 l 174 181 l 100 99 l -35 425 l 60 542 l 64 589 l 106 639 q 123 642 115 642 q 139 643 131 642 l 63 811 q 53 833 57 822 q 50 853 50 843 q 67 899 50 879 q 121 953 99 939 q 175 968 143 967 l 1076 993 l 1067 863 q 1028 850 1040 857 q 1008 819 1015 843 q 1041 771 1022 796 q 1075 719 1060 746 q 1101 663 1090 692 q 1113 603 1113 633 q 1080 497 1113 550 q 999 407 1047 444 q 1044 364 1019 385 q 1092 317 1069 343 q 1131 259 1115 292 q 1146 181 1146 226 q 1111 51 1146 104 q 1020 -36 1076 -3 q 892 -85 964 -69 q 746 -100 819 -100 q 596 -81 663 -100 q 475 -32 529 -61 l 426 -75 m 875 238 q 898 203 888 222 q 908 161 908 185 q 896 121 908 138 q 863 92 883 104 q 819 75 843 81 q 771 69 794 69 q 722 76 744 69 q 688 97 700 83 l 701 261 l 510 261 l 494 83 q 611 20 538 49 q 790 -8 685 -8 q 890 -2 836 -8 q 989 24 943 4 q 1066 82 1035 44 q 1097 181 1097 119 q 1074 265 1097 231 q 1021 324 1050 299 q 966 373 992 350 q 935 425 940 396 q 983 457 960 438 q 1024 499 1007 476 q 1052 549 1042 522 q 1063 603 1063 575 q 1051 653 1063 628 q 972 787 1006 738 q 938 861 938 836 q 956 890 938 881 q 1019 907 974 900 l 1022 943 l 176 918 q 150 910 158 917 q 142 899 142 904 q 149 876 142 890 l 264 631 q 153 597 267 619 l 151 578 l 438 554 l 461 572 l 319 833 q 319 835 319 835 q 318 838 318 836 q 535 869 318 869 q 561 843 561 865 q 560 838 561 840 q 560 833 560 836 l 511 288 l 704 288 l 714 400 q 720 401 715 400 q 732 401 725 401 q 765 396 749 401 q 772 363 767 376 q 789 333 778 349 q 821 296 800 318 q 875 238 842 274 m 435 75 l 468 490 l 419 485 l 396 232 l 249 365 l 313 418 l 88 496 l 63 464 l 156 240 l 203 310 l 435 75 m 872 599 q 881 558 881 575 q 870 522 881 538 q 844 495 860 506 q 811 479 829 485 q 778 474 793 474 q 724 503 738 474 l 753 858 l 807 865 q 794 797 794 829 q 804 740 794 767 q 826 688 814 713 q 852 642 839 664 q 872 599 865 619 m 424 744 l 492 635 l 497 729 l 424 744 m 750 290 l 735 142 l 853 142 l 750 290 z "},"C":{"ha":1339,"x_min":-67,"x_max":1407,"o":"m 386 151 l 347 88 l -14 35 l -67 107 l 99 381 q 90 415 90 397 q 95 444 90 431 q 107 468 100 457 l 303 765 l 217 783 l 224 881 l 265 929 l 619 960 l 689 899 l 583 751 l 901 990 l 942 953 l 983 1004 l 1338 1033 l 1407 974 l 1219 692 l 1239 692 l 1228 569 l 1178 528 q 886 585 926 528 l 857 557 q 843 544 849 549 q 838 533 838 539 l 999 242 l 1201 400 l 1297 257 l 824 -135 l 800 -94 l 658 -144 l 503 143 l 386 151 m 313 883 l 311 865 l 410 844 q 418 838 418 842 q 417 832 418 833 l 194 494 q 187 474 188 483 q 186 458 186 465 q 239 417 186 417 q 276 421 253 417 l 807 765 q 826 772 814 769 q 843 774 838 774 q 868 765 861 774 l 868 764 q 608 514 868 743 q 594 485 594 500 q 599 470 594 476 q 608 456 603 464 l 717 265 l 865 376 l 792 513 q 788 533 788 522 q 821 593 788 561 l 1042 796 l 899 925 l 463 599 l 450 599 q 431 613 431 599 q 436 629 431 619 l 624 890 l 603 908 l 313 883 m 726 -43 l 794 -18 l 513 476 l 165 256 l 142 333 l 33 154 l 51 131 l 269 163 l 199 210 l 489 397 l 726 -43 m 729 243 l 882 -19 l 1231 267 l 1189 328 l 983 165 l 879 354 l 729 243 m 1321 983 l 1031 958 l 1029 940 l 1128 919 q 1136 911 1136 917 q 1135 906 1136 907 l 975 661 q 971 651 971 654 q 1182 619 971 619 l 1185 642 l 1172 642 q 1144 658 1144 642 q 1151 678 1144 661 l 1342 965 l 1321 983 m 468 338 l 308 235 l 532 235 l 468 338 z "},"D":{"ha":1433,"x_min":7,"x_max":1503,"o":"m 333 321 l 349 222 l 307 181 l 7 358 l 19 436 l 61 485 l 394 639 l 460 739 l 372 757 l 379 854 l 421 903 l 774 933 l 807 903 l 868 965 l 1235 965 l 1235 851 l 1179 810 l 1125 799 l 1503 483 l 1493 383 l 1444 339 l 867 -143 l 629 -10 l 506 -10 l 535 321 l 333 321 m 758 882 l 468 858 l 467 839 l 565 818 q 574 811 574 815 q 572 806 574 807 l 414 560 q 413 556 413 557 q 411 554 413 554 q 746 518 411 518 l 707 72 l 907 -43 l 1446 407 l 1450 463 l 1243 638 l 1099 506 l 1264 357 l 981 124 l 882 206 l 914 567 l 613 567 q 585 582 585 567 q 592 603 585 589 l 779 864 l 758 882 m 889 915 l 776 803 l 1081 522 l 1224 653 l 1019 825 l 1040 867 l 1182 893 l 1183 915 l 889 915 m 601 79 l 658 82 l 692 471 l 276 471 l 332 554 l 107 450 l 103 426 l 283 319 l 261 413 l 632 413 l 601 79 m 967 506 l 953 253 l 1126 347 l 967 506 m 732 689 l 657 615 l 826 599 l 732 689 z "},"E":{"ha":1247,"x_min":-25,"x_max":1290,"o":"m 1290 974 l 1101 692 l 1121 692 l 1110 569 l 1060 528 q 849 544 921 528 l 1075 429 l 1019 383 l 758 264 l 775 257 l 1256 464 l 1229 167 l 1181 124 l 697 -93 l 376 54 l 13 -10 l -25 76 l 104 267 l 115 325 l 111 325 q 37 351 67 325 q 7 415 7 378 q 25 468 7 442 l 221 765 l 135 783 l 142 881 l 183 929 l 582 965 l 835 965 l 865 1004 l 1219 1033 l 1290 974 m 229 883 l 228 865 l 328 844 q 336 838 336 842 q 335 832 336 833 l 115 497 q 106 476 108 486 q 104 458 104 465 q 157 417 104 417 q 187 422 169 417 q 224 440 204 428 l 713 769 q 724 772 719 771 q 733 772 729 772 q 750 765 743 772 l 750 764 q 490 514 750 743 q 478 492 478 503 q 489 472 478 483 l 596 421 l 775 525 l 707 561 q 704 565 704 564 q 925 796 704 596 l 800 914 l 381 599 l 368 599 q 349 613 349 599 q 354 629 349 619 l 542 890 l 521 908 l 229 883 m 622 407 l 701 371 l 490 271 q 425 189 425 236 q 461 126 425 156 l 743 3 l 1183 200 l 1200 385 l 776 204 l 610 272 l 960 432 l 803 511 l 622 407 m 1204 983 l 913 958 l 911 940 l 1011 919 q 1018 911 1018 917 q 1017 906 1018 907 l 858 661 q 854 651 854 654 q 1064 619 854 619 l 1067 642 l 1056 642 q 1028 658 1028 642 q 1033 678 1028 665 l 1225 965 l 1204 983 m 281 203 l 561 379 l 476 410 l 233 250 l 210 317 l 74 118 l 86 88 l 346 133 l 281 203 m 713 915 l 606 915 l 403 650 l 713 915 z "},"F":{"ha":1357,"x_min":-22,"x_max":1454,"o":"m 243 871 q 273 940 243 914 q 367 968 303 965 l 946 993 l 1003 943 l 1381 1036 l 1454 974 l 1267 692 l 1285 692 l 1285 592 l 1150 256 l 1101 214 l 994 214 q 996 242 996 228 q 996 269 996 256 q 993 340 996 308 q 985 388 990 372 l 956 388 l 926 57 l 1025 -49 l 892 -167 q 709 -111 808 -131 q 485 -90 610 -92 l 489 -22 l 543 42 l 467 25 l 492 368 l 283 399 l 289 314 l 239 275 l -22 475 l 35 613 l 315 679 l 254 811 q 246 834 249 822 q 243 871 243 846 m 346 597 l 344 578 l 631 554 l 654 572 l 513 833 q 512 835 513 835 q 511 838 511 836 q 710 869 511 869 q 753 833 750 869 l 707 315 l 900 315 l 914 479 l 1071 479 q 1094 392 1094 479 q 1090 306 1094 357 l 1117 306 l 1210 542 l 919 542 l 946 835 l 1158 886 q 1165 878 1165 883 l 1022 661 q 1018 651 1018 654 q 1229 619 1018 619 l 1231 642 l 1219 642 q 1192 658 1192 642 q 1199 678 1192 661 l 1389 965 l 1368 983 l 949 879 l 953 922 l 929 943 l 369 918 q 335 899 335 917 q 342 876 335 890 l 457 628 q 447 618 457 619 l 346 597 m 578 1 q 767 -17 679 0 q 929 -68 854 -33 l 954 -46 l 876 40 l 897 289 l 706 289 l 688 97 q 579 21 685 51 l 578 1 m 563 128 l 624 142 l 649 504 l 253 554 l 324 629 l 78 571 l 74 540 l 233 418 l 233 507 l 588 453 l 563 128 z "},"G":{"ha":1415,"x_min":-25,"x_max":1454,"o":"m 1269 697 l 1269 447 l 1238 424 q 1322 262 1279 353 q 1410 57 1364 171 l 1131 -161 l 1131 -292 l 1074 -335 l 986 -367 l 875 -154 l 888 -121 q 803 -57 846 -94 q 719 31 760 -19 q 644 144 679 81 q 583 288 608 208 l 304 288 l 353 160 l 311 118 l -25 318 l -25 393 l 21 442 l 275 576 l 286 564 l 371 694 l 279 714 l 293 811 l 336 860 l 686 889 l 744 838 l 947 990 l 989 953 l 1031 1004 l 1383 1033 l 1454 974 l 1269 697 m 690 293 q 929 -19 774 78 l 1147 160 q 1174 103 1163 133 q 1196 38 1186 72 l 979 -121 l 1054 -264 l 1075 -256 l 1082 -131 l 1350 75 q 1253 297 1301 201 q 1157 463 1206 392 l 1163 483 l 1224 492 l 1226 521 l 929 521 q 1017 397 971 468 q 1113 229 1063 325 l 1031 165 q 940 265 975 207 q 872 394 904 324 l 690 293 m 669 838 l 381 814 l 378 794 l 476 774 q 485 767 485 771 q 483 761 485 763 l 325 515 q 322 510 322 513 q 638 474 322 474 q 657 393 646 432 q 682 317 668 354 l 864 418 q 845 477 854 446 q 836 533 836 508 q 868 593 836 568 l 1089 796 l 946 925 l 679 726 l 692 701 l 878 769 q 899 772 892 772 q 915 765 908 772 l 915 764 q 664 522 915 743 l 524 522 q 496 538 496 522 q 503 558 496 544 l 690 819 l 669 838 m 1389 965 l 1368 983 l 1076 958 l 1076 940 l 1175 919 q 1183 911 1183 917 q 1182 906 1183 907 l 1022 661 q 1018 651 1018 654 q 1229 619 1018 619 l 1231 642 l 1219 642 q 1192 658 1192 642 q 1199 678 1192 661 l 1389 965 m 621 379 l 601 426 l 215 426 l 276 519 l 69 410 l 68 389 l 256 276 l 210 379 l 621 379 z "},"H":{"ha":1217,"x_min":-294,"x_max":1267,"o":"m 114 143 l 172 76 l 118 33 l -271 33 l -294 151 l -253 199 l 32 414 l 160 610 l 75 628 l 81 725 l 122 774 l 440 800 l 440 817 q 538 886 479 854 q 664 942 596 918 q 805 978 732 965 q 947 992 878 992 q 1063 979 1006 992 q 1166 946 1121 967 q 1239 897 1211 925 q 1267 836 1267 868 q 1256 798 1267 815 q 1228 766 1244 781 q 1197 739 1213 751 q 1171 718 1181 726 l 1171 624 l 1121 582 l 839 624 q 817 639 826 632 q 801 654 808 646 l 796 588 q 845 592 821 590 q 893 593 869 593 q 1015 585 958 593 q 1114 555 1072 576 q 1180 495 1156 533 q 1204 397 1204 457 q 1192 320 1204 356 q 1154 249 1179 285 q 1119 200 1138 225 q 1085 153 1100 175 q 1060 115 1069 132 q 1050 92 1050 99 q 1064 72 1050 81 q 1114 57 1078 64 l 1106 -82 l 1056 -124 l 775 -90 q 738 -75 751 -87 q 717 -53 725 -62 l 636 -119 l 308 -87 l 308 6 l 356 54 l 424 85 l 436 228 l 114 143 m 460 753 l 169 729 l 168 710 l 267 689 q 274 682 274 686 q 272 676 274 678 l 97 410 q 85 365 85 382 q 138 332 85 332 l 150 332 q 164 333 160 332 q 248 357 201 344 q 344 382 294 369 q 444 407 393 394 q 542 429 494 419 l 511 82 q 403 21 508 71 l 403 0 l 668 -28 l 696 -7 l 735 451 q 765 469 746 464 q 806 475 783 475 q 857 468 831 475 q 906 449 883 461 q 942 417 928 436 q 957 375 957 399 q 940 322 957 351 q 908 272 924 293 l 1057 199 q 1090 240 1074 217 q 1122 290 1107 264 q 1145 342 1136 315 q 1154 397 1154 369 q 1130 478 1154 449 q 1068 522 1106 507 q 984 540 1031 536 q 893 543 938 543 q 815 539 854 543 q 742 529 776 535 l 768 821 q 814 846 782 838 q 881 854 846 854 q 960 839 925 854 q 994 806 994 824 q 977 783 994 793 q 939 765 960 774 q 901 747 918 756 q 883 729 883 739 q 897 714 883 722 l 1121 682 l 1122 724 q 1096 749 1096 736 q 1115 767 1096 758 q 1156 786 1133 776 q 1198 808 1179 796 q 1217 838 1217 821 q 1192 876 1217 857 q 1128 910 1167 894 q 1041 934 1089 925 q 949 943 993 943 q 817 932 883 943 q 695 904 751 921 q 596 869 639 888 q 532 835 553 850 l 532 797 q 560 791 551 796 q 572 775 568 786 l 546 479 q 458 458 503 469 q 367 435 414 447 q 330 424 351 431 q 292 417 308 417 q 271 432 271 417 q 272 442 271 436 q 276 453 272 447 l 481 735 l 460 753 m 490 322 l 481 381 l -4 246 l 13 338 l -197 179 l -187 143 l 58 143 l 3 197 l 490 322 m 897 250 q 817 120 844 165 q 789 49 789 75 q 799 17 789 32 q 835 0 808 3 l 1058 -28 l 1061 14 q 979 64 979 29 q 994 106 979 81 q 1040 175 1008 131 l 897 250 m 865 329 q 838 365 865 351 q 778 382 811 379 l 758 142 q 781 179 764 153 q 817 235 799 206 q 851 291 836 264 q 865 329 865 318 m 328 453 l 463 483 l 481 654 l 328 453 z "},"I":{"ha":697,"x_min":-131,"x_max":707,"o":"m 539 557 l 508 206 l 579 310 l 671 246 l 599 -50 l 550 -92 l 42 -92 l 22 206 l 69 256 l -131 343 l -119 454 l 154 571 l 58 625 l 131 915 l 172 965 l 688 965 l 707 663 l 567 564 l 546 622 l 540 557 l 539 557 m 258 88 l 207 88 l 182 101 l 135 238 l 115 226 l 131 0 l 560 0 l 615 225 l 599 236 l 528 100 l 499 86 l 449 86 l 492 581 l 301 581 l 258 88 m 494 607 l 513 828 l 564 828 l 592 814 l 638 678 l 657 689 l 642 915 l 211 915 l 157 690 l 174 679 l 246 815 l 274 829 l 325 829 l 304 607 l 494 607 m 256 404 l 260 457 l 154 457 l 197 533 l -33 446 l -36 418 l 179 324 l 149 404 l 256 404 z "},"J":{"ha":1028,"x_min":-82,"x_max":1036,"o":"m 224 13 q 399 135 308 67 q 593 310 489 204 q 584 417 586 363 q 582 529 582 471 q 585 656 582 589 q 593 793 588 722 l 493 843 l 506 932 l 547 982 l 881 1015 l 921 976 l 935 939 q 915 740 921 833 q 908 567 908 647 q 915 419 908 494 q 939 274 921 344 q 983 161 954 210 q 1036 76 1011 113 q 814 -178 936 -62 q 554 -365 692 -294 l 385 -182 l 338 -224 l -56 -293 l -82 -200 l 213 103 l 224 13 m 863 964 l 592 936 l 589 915 l 675 871 q 685 847 685 865 l 685 839 q 676 703 679 768 q 674 575 674 638 q 715 174 674 333 l 885 283 q 865 404 871 339 q 860 546 860 469 q 867 731 860 633 q 885 943 874 829 l 863 964 m 785 11 q 675 -89 746 -53 l 531 72 q 424 -14 481 28 q 300 -97 367 -56 l 318 -114 l 443 -79 l 608 -262 q 975 75 822 -144 q 890 257 922 140 l 722 149 q 785 11 747 65 m 176 -6 l 15 -167 l 24 -194 l 271 -151 l 213 -110 q 447 47 339 -39 q 654 229 554 133 l 643 288 q 533 176 590 226 q 417 83 475 126 q 299 2 358 40 q 185 -72 240 -36 l 176 -6 z "},"K":{"ha":1351,"x_min":-1,"x_max":1388,"o":"m 403 468 l 393 450 l 542 442 q 550 506 549 475 l 492 461 l 403 468 m 563 701 q 556 770 563 756 q 536 785 550 785 q 510 785 515 785 q 490 783 506 785 l 561 651 q 563 668 563 658 q 563 701 563 678 m 1218 331 l 1333 331 l 1300 -50 l 1251 -92 l 1181 -92 l 1164 -108 l 833 -142 l 825 -131 l 785 -167 q 596 -104 682 -118 l 365 -104 l 383 42 l 326 149 l -1 315 l 15 407 l 57 457 l 190 488 l 144 490 l 151 589 l 193 639 l 226 644 l 149 811 q 140 832 142 822 q 138 853 138 842 q 147 892 138 871 q 174 929 157 913 q 213 957 190 946 q 261 968 235 968 l 839 993 l 936 932 l 961 965 l 1388 965 l 1388 874 l 1039 453 q 1101 363 1065 408 q 1174 279 1136 317 l 1218 331 m 240 597 l 239 578 l 525 554 l 549 572 l 407 833 q 406 835 407 835 q 406 838 406 836 q 607 878 406 869 q 646 847 638 878 q 654 747 654 815 q 636 495 654 656 q 581 97 618 335 q 514 35 578 61 l 465 35 l 461 -12 l 642 -12 q 736 -35 690 -22 q 822 -68 782 -49 l 847 -46 l 769 40 q 789 197 779 124 q 808 338 799 271 q 938 163 860 242 l 1068 319 q 1022 385 1043 350 q 981 458 1000 421 l 1335 892 l 1336 915 l 1008 915 l 1007 899 l 1124 826 l 1121 797 l 813 376 q 844 660 835 544 q 854 843 854 776 q 846 922 854 903 l 822 943 l 264 918 q 228 899 228 915 q 231 888 228 893 q 236 876 233 883 l 351 628 q 342 618 351 619 l 240 597 m 1254 0 l 1279 281 l 1247 281 l 1199 199 q 1085 300 1136 242 l 956 143 q 1034 69 992 106 q 1121 0 1076 33 l 1254 0 m 294 343 l 574 343 l 578 389 l 306 407 l 346 471 l 100 415 l 96 386 l 308 276 l 294 343 m 1021 747 l 901 856 l 867 525 l 1021 747 m 824 56 l 900 -49 l 1093 -29 q 1028 22 1063 -4 q 961 77 994 49 q 899 134 928 106 q 849 192 869 163 l 824 56 m 563 296 l 364 296 l 489 75 l 547 113 l 563 296 z "},"L":{"ha":1206,"x_min":-204,"x_max":1207,"o":"m 1094 317 l 1050 314 q 1067 241 1056 282 q 1098 152 1079 200 q 1144 53 1117 104 q 1207 -50 1171 1 l 1154 -92 l 397 -92 l 415 35 l 460 85 l 482 338 l 107 396 l 107 328 l 57 290 l -204 497 l -169 579 l -126 629 l 133 665 l 68 804 q 56 847 56 829 q 67 888 56 868 q 97 924 79 908 q 138 951 115 940 q 182 961 161 961 l 950 982 q 951 899 950 935 q 957 818 951 863 l 907 776 l 849 772 l 821 465 l 1114 488 q 1130 432 1122 463 q 1143 358 1138 401 l 1094 317 m 788 632 l 596 632 l 546 57 q 533 40 544 46 q 511 35 522 35 l 501 35 l 496 0 l 1113 0 q 1058 99 1081 46 q 1022 203 1036 153 q 1002 295 1008 253 q 996 361 996 338 q 1006 384 996 375 q 1031 398 1017 393 q 1061 404 1046 403 q 1088 406 1076 406 q 1079 435 1085 419 l 819 415 q 816 388 817 403 q 815 356 815 374 q 821 272 815 317 q 838 185 826 228 q 868 104 850 142 q 911 43 886 67 q 890 42 904 42 l 869 42 q 738 67 772 42 l 788 632 m 161 590 l 158 572 l 446 547 l 468 565 l 326 826 q 326 828 326 828 q 325 831 325 829 q 565 869 325 863 q 614 833 610 865 l 599 658 l 790 658 l 807 858 l 903 864 q 901 889 901 871 l 901 931 l 183 911 q 156 905 165 911 q 147 892 147 899 q 150 881 147 886 q 156 869 153 876 l 272 621 q 263 611 272 613 l 161 590 m 538 429 l 536 485 l 76 554 l 121 615 l -93 583 l -103 557 l 57 429 l 57 504 l 538 429 m 390 783 l 525 574 l 540 792 l 390 783 z "},"M":{"ha":2032,"x_min":22,"x_max":2022,"o":"m 1508 1015 l 1542 985 l 1967 1014 l 2019 964 q 2022 912 2021 943 q 2022 857 2022 881 q 2013 607 2022 732 q 1988 357 2003 482 q 1956 106 1974 232 q 1922 -146 1939 -19 l 1874 -185 q 1673 -104 1774 -139 q 1464 -47 1572 -69 l 1507 71 l 1550 119 q 1592 113 1574 117 q 1624 108 1611 110 q 1651 321 1639 214 q 1671 540 1663 428 q 1507 251 1600 424 q 1292 -157 1414 79 l 1243 -197 l 1163 -172 q 1210 244 1192 71 q 1238 529 1229 417 q 1138 324 1192 442 q 1021 54 1083 206 l 1115 -49 l 981 -168 q 579 -92 818 -92 l 583 25 l 625 74 q 660 85 644 79 q 689 94 676 90 l 717 392 l 333 435 l 347 349 l 296 311 l 22 501 l 49 576 l 92 626 l 381 699 l 322 822 q 313 844 315 835 q 311 864 311 854 q 323 903 311 883 q 353 940 335 924 q 393 967 371 956 q 435 979 415 978 l 1039 1014 l 1076 979 l 1508 1015 m 415 608 l 414 590 l 700 565 l 724 583 l 582 849 q 581 851 582 850 q 581 853 581 851 q 825 893 581 885 q 846 865 846 882 q 844 858 846 860 l 778 97 q 674 38 776 74 l 672 0 q 1019 -68 878 0 l 1044 -46 l 967 40 l 968 54 q 1333 763 1208 640 q 1335 741 1335 753 q 1336 710 1336 729 q 1316 414 1336 618 q 1256 -117 1296 210 q 1768 763 1644 635 q 1770 740 1769 751 q 1771 714 1771 729 q 1763 572 1771 660 q 1742 358 1756 485 l 1940 358 q 1965 635 1957 513 q 1972 857 1972 757 l 1972 901 q 1972 922 1972 913 q 1971 943 1972 932 l 1949 964 l 1779 946 q 1468 404 1621 742 q 1518 847 1518 671 q 1514 943 1518 897 l 1492 964 l 1344 946 q 1151 633 1240 807 q 985 247 1061 458 l 1044 943 l 1022 964 l 438 929 q 403 910 403 928 q 410 888 403 904 l 526 640 q 517 629 526 631 l 415 608 m 1708 93 q 1643 57 1706 57 q 1615 59 1629 57 q 1582 64 1600 61 l 1571 32 q 1735 -10 1658 15 q 1882 -71 1811 -36 q 1913 141 1899 40 q 1938 333 1926 242 l 1739 333 q 1725 219 1732 278 q 1708 93 1718 160 m 1274 949 l 1086 929 l 1044 501 l 1274 949 m 781 482 l 789 531 l 293 578 l 353 640 l 129 583 l 122 565 l 279 456 l 267 540 l 781 482 m 1721 944 l 1574 935 l 1538 624 l 1721 944 m 664 804 l 750 650 l 758 801 l 664 804 z "},"N":{"ha":1490,"x_min":-4,"x_max":1467,"o":"m 1025 107 q 1106 368 1079 235 q 1144 647 1133 501 q 964 315 1061 531 l 946 118 q 1025 107 1010 107 m 554 90 q 590 92 578 90 q 614 104 603 94 l 639 371 l 317 400 l 321 349 l 272 310 l -4 464 l 21 558 l 63 608 l 340 646 l 272 797 q 263 819 265 810 q 260 839 260 829 q 272 878 260 858 q 302 914 283 897 q 342 942 321 931 q 383 954 364 953 l 961 993 l 992 965 l 1404 993 l 1460 944 q 1465 858 1463 906 q 1467 772 1467 811 q 1423 320 1467 547 q 1299 -143 1379 93 l 1251 -183 q 1003 -81 1142 -119 l 906 -168 q 731 -115 831 -133 q 500 -90 631 -96 l 511 40 l 554 90 m 363 583 l 361 565 l 647 540 l 671 558 l 531 819 q 530 822 531 821 q 529 825 529 824 q 733 878 529 863 q 768 833 767 868 l 703 97 q 674 58 700 71 q 599 42 647 44 l 596 0 q 944 -68 817 -8 l 968 -46 l 890 40 l 915 329 q 1239 808 1100 739 q 1235 665 1239 733 q 1222 531 1231 597 l 1404 531 q 1417 772 1417 651 q 1415 847 1417 811 q 1411 922 1414 883 l 1388 943 l 1215 925 q 931 511 1060 796 l 968 922 l 944 943 l 386 904 q 351 885 351 904 q 358 863 351 879 l 474 614 q 467 604 474 607 l 363 583 m 1094 93 q 1028 57 1090 57 q 1000 59 1014 57 q 968 64 986 61 l 956 32 q 1272 -71 1147 1 q 1401 504 1369 214 l 1217 504 q 1169 291 1200 392 q 1094 93 1139 190 m 707 461 l 713 501 l 275 546 l 308 592 l 103 563 l 96 533 l 265 438 l 260 501 l 707 461 m 569 835 l 699 589 l 717 589 l 717 842 l 569 835 m 1129 915 l 1010 915 l 968 644 l 1129 915 z "},"O":{"ha":1393,"x_min":-1,"x_max":1389,"o":"m 1035 113 q 996 219 1014 165 q 965 335 978 274 l 946 107 q 955 106 949 106 q 981 106 961 106 q 1035 113 1004 106 m 1367 744 q 1290 685 1315 729 q 1265 579 1265 642 q 1271 497 1265 539 q 1287 412 1276 454 q 1312 329 1297 369 q 1344 256 1326 289 q 1365 202 1358 231 q 1371 144 1371 174 q 1337 17 1371 68 q 1249 -66 1303 -35 q 1129 -110 1196 -97 q 996 -124 1063 -124 q 860 -112 926 -124 q 738 -81 794 -100 q 635 -40 681 -62 q 564 4 590 -18 q 565 39 564 25 q 569 63 567 53 q 574 84 571 74 q 579 108 576 94 l 619 147 l 639 360 l 293 411 l 293 347 l 244 310 l -1 503 l 32 579 l 76 629 l 329 669 l 264 811 q 255 833 258 824 q 251 853 251 842 q 263 894 251 874 q 293 931 275 914 q 333 958 311 947 q 378 968 356 968 l 1389 993 l 1367 744 m 1121 181 q 1128 149 1128 160 q 1114 108 1128 125 q 1078 79 1100 90 q 1031 62 1057 68 q 981 56 1006 56 q 927 63 951 56 q 894 85 903 71 l 925 450 l 733 450 l 707 131 q 690 118 697 124 q 672 108 682 113 l 663 108 q 659 90 661 99 q 656 72 657 81 q 717 36 678 54 q 806 3 756 18 q 917 -22 857 -12 q 1043 -32 978 -32 q 1149 -25 1099 -32 q 1237 1 1199 -18 q 1298 56 1275 21 q 1321 146 1321 90 q 1300 235 1321 194 q 1239 401 1263 310 q 1215 581 1215 493 q 1240 719 1215 664 q 1319 786 1264 775 l 1335 943 l 379 918 q 352 912 361 918 q 343 899 343 906 q 346 888 343 893 q 351 876 349 883 l 467 631 q 356 597 468 621 l 354 578 l 640 554 l 664 572 l 522 833 q 522 835 522 835 q 521 838 521 836 q 728 875 521 868 q 750 740 750 867 q 747 625 750 690 q 736 476 743 560 l 928 476 l 961 858 l 1067 865 q 1034 765 1044 821 q 1024 644 1024 708 q 1051 410 1024 532 q 1121 181 1078 289 m 700 450 l 703 504 l 269 565 l 307 615 l 110 583 l 100 563 l 244 450 l 244 519 l 700 450 m 667 796 l 588 801 l 686 610 l 667 796 z "},"P":{"ha":1447,"x_min":-8,"x_max":1610,"o":"m 513 19 q 574 41 546 28 q 619 78 601 54 l 646 365 l 303 413 l 326 321 l 274 285 l -8 482 l 7 563 l 49 613 l 333 675 l 271 811 q 262 833 265 824 q 258 853 258 842 q 288 931 258 896 q 382 968 318 967 l 968 993 l 1022 946 q 1074 970 1047 958 q 1127 990 1101 982 q 1175 1004 1153 999 q 1211 1010 1197 1010 q 1226 1009 1218 1010 q 1244 1003 1233 1008 l 1354 947 q 1303 918 1324 929 q 1269 898 1283 907 q 1245 881 1256 889 q 1224 861 1235 872 q 1248 808 1224 835 q 1308 761 1272 782 q 1382 727 1343 740 q 1449 714 1421 714 l 1610 714 q 1450 597 1526 653 q 1297 488 1374 542 q 1139 378 1219 433 q 967 264 1058 324 l 949 57 l 1047 -49 l 914 -168 q 507 -90 743 -92 l 513 19 m 932 393 l 928 388 l 946 594 l 754 594 l 710 97 q 601 21 707 51 l 600 1 q 951 -68 804 0 l 976 -46 l 899 40 l 921 304 q 1107 426 1026 372 q 1251 523 1188 479 q 1364 601 1315 567 q 1454 664 1413 635 l 1449 664 q 1368 682 1415 664 q 1278 728 1321 700 q 1204 791 1235 756 q 1174 861 1174 826 q 1190 907 1174 885 q 1243 947 1206 929 l 1222 958 q 1211 960 1221 960 q 1157 949 1190 960 q 1088 923 1124 939 q 1019 889 1051 907 q 968 854 986 871 l 975 922 l 951 943 l 385 918 q 350 899 350 917 q 358 876 350 889 l 472 631 q 361 597 475 619 l 360 578 l 646 554 l 669 572 l 529 833 q 528 835 529 835 q 528 838 528 836 q 739 881 528 869 q 765 765 765 875 q 757 619 765 707 l 949 619 l 961 764 q 1014 710 982 733 q 1084 671 1046 688 q 1167 642 1122 654 q 1257 619 1211 629 l 932 393 m 710 456 l 714 501 l 243 563 l 336 624 l 92 571 l 88 549 l 247 438 l 226 522 l 710 456 m 610 761 l 689 636 l 679 776 l 610 761 m 969 482 l 1097 558 q 989 618 1024 568 l 969 482 z "},"Q":{"ha":1431,"x_min":11,"x_max":1461,"o":"m 1376 710 q 1330 697 1347 710 q 1303 664 1313 683 q 1290 622 1293 644 q 1286 578 1286 599 q 1307 412 1286 497 q 1364 256 1328 326 q 1390 144 1390 203 q 1387 108 1390 126 q 1380 74 1383 90 q 1373 45 1376 58 q 1369 26 1369 32 l 1369 22 l 1461 -65 l 1176 -403 q 1125 -332 1153 -369 q 1068 -257 1097 -294 q 1012 -185 1039 -219 q 963 -121 985 -150 q 842 -106 900 -118 q 735 -74 785 -93 q 647 -35 686 -56 q 583 6 608 -14 q 585 40 583 26 q 590 63 588 53 q 594 84 592 74 q 599 108 597 94 l 639 147 l 660 371 l 317 407 l 343 293 l 292 256 l 11 468 l 36 539 l 79 589 l 338 667 l 278 797 q 267 839 267 819 q 278 880 267 860 q 307 916 289 900 q 347 942 325 932 q 392 954 369 953 l 1408 994 l 1376 710 m 1142 181 q 1147 149 1147 164 q 1133 108 1147 125 q 1099 79 1119 90 q 1051 62 1078 68 q 1000 56 1025 56 q 947 63 971 56 q 914 85 924 71 l 928 258 l 736 258 l 726 131 q 709 118 717 124 q 692 108 701 113 l 682 108 q 678 90 681 99 q 675 72 676 81 q 731 36 696 54 q 813 3 767 18 q 915 -21 860 -11 q 1032 -32 971 -31 q 1124 -149 1076 -87 q 1224 -282 1172 -211 l 1394 -69 l 1367 -43 q 1251 -107 1289 -107 q 1232 -99 1240 -107 l 1165 -25 q 1297 27 1254 -14 q 1340 144 1340 68 q 1319 235 1340 193 q 1259 403 1282 310 q 1236 581 1236 496 q 1260 719 1236 664 q 1339 786 1285 775 l 1354 943 l 393 904 q 358 885 358 903 q 365 863 358 879 l 481 618 q 369 583 482 606 l 368 565 l 654 540 l 678 558 l 536 819 q 535 822 536 821 q 535 824 535 822 q 757 868 535 858 q 771 772 771 867 q 763 581 771 701 q 739 285 754 460 l 931 285 l 981 858 l 1086 865 q 1053 765 1064 821 q 1043 644 1043 708 q 1071 410 1043 532 q 1142 181 1099 288 m 733 461 l 739 499 l 269 549 l 344 618 l 118 549 l 111 531 l 267 413 l 244 514 l 733 461 m 1053 119 q 1015 224 1032 171 q 985 332 999 276 l 965 107 q 981 106 969 106 l 1000 106 q 1056 113 1024 106 q 1054 117 1056 115 q 1053 119 1053 118 m 599 792 l 693 619 l 700 801 l 599 792 z "},"R":{"ha":1313,"x_min":-182,"x_max":1399,"o":"m 1149 331 l 1268 331 l 1235 -50 l 1186 -92 l 890 -92 l 751 140 l 746 57 l 843 -49 l 710 -167 q 527 -111 626 -131 q 303 -90 428 -92 l 307 -22 l 383 69 q 417 78 401 69 l 444 372 l 146 406 l 169 333 l 118 296 l -182 467 l -167 556 l -125 604 l 118 688 l 63 811 q 53 833 57 822 q 50 853 50 843 q 58 892 50 871 q 83 929 67 913 q 122 957 99 946 q 174 968 144 968 l 765 993 l 817 946 q 922 992 868 974 q 1007 1010 975 1010 q 1022 1009 1013 1010 q 1040 1003 1031 1008 l 1157 946 l 1010 857 q 1040 805 1011 831 q 1110 759 1069 779 q 1196 726 1151 739 q 1272 714 1240 714 l 1399 714 q 1308 638 1351 672 q 1219 569 1265 603 q 1120 498 1174 535 q 999 415 1067 461 l 1094 257 l 1149 331 m 153 597 l 151 578 l 438 554 l 461 572 l 319 833 q 319 835 319 835 q 318 838 318 836 q 532 878 318 869 q 560 760 560 874 q 558 691 560 729 q 553 607 556 653 l 744 607 l 757 764 q 816 710 778 733 q 901 671 854 688 q 998 642 947 654 q 1094 621 1049 631 l 729 393 l 963 0 l 1189 0 l 1214 281 l 1181 281 l 1122 163 l 1094 163 l 926 438 q 1276 664 1274 664 l 1272 664 q 1178 682 1232 664 q 1076 728 1125 700 q 994 791 1028 756 q 960 861 960 826 q 978 907 960 885 q 1039 947 996 929 l 1018 958 q 1007 960 1017 960 q 952 950 986 960 q 883 925 918 940 q 815 891 847 910 q 765 854 783 872 l 772 922 l 749 943 l 176 918 q 142 899 142 917 q 149 876 142 890 l 264 628 q 254 618 264 619 l 153 597 m 397 1 q 749 -68 601 -1 l 772 -46 l 694 40 l 742 581 l 550 581 l 507 97 q 399 21 504 51 l 397 1 m 515 461 l 519 507 l 83 560 l 144 644 l -79 568 l -85 535 l 88 438 l 64 514 l 515 461 m 468 800 l 376 804 l 472 631 l 468 800 m 772 468 l 904 551 q 783 613 821 571 l 772 468 z "},"S":{"ha":1390,"x_min":7,"x_max":1488,"o":"m 1050 246 q 1049 297 1050 278 q 1043 340 1047 317 l 964 340 l 1050 246 m 960 606 q 963 626 960 619 q 971 640 965 632 l 1047 758 q 1007 746 1025 751 q 976 724 989 740 l 907 572 l 978 572 q 960 606 960 585 m 1363 215 q 1355 119 1363 163 q 1333 40 1347 76 q 1296 -29 1318 3 q 1244 -92 1274 -61 l 904 -92 l 889 -75 l 636 -75 l 629 -89 l 507 -89 l 546 351 l 569 375 l 556 389 l 304 424 l 324 328 l 272 292 l 7 501 l 25 581 l 67 631 l 278 686 l 222 808 q 213 831 217 821 q 208 851 208 842 q 220 892 208 872 q 251 929 232 913 q 292 956 269 946 q 336 965 315 965 l 1032 965 l 1063 1004 l 1417 1033 l 1488 974 l 1299 692 l 1318 692 l 1307 569 l 1285 554 q 1342 370 1322 454 q 1363 215 1363 286 m 314 594 l 313 576 l 599 551 l 621 569 l 481 833 q 756 867 481 867 l 771 863 l 767 814 l 642 461 l 667 432 l 1128 432 q 1138 362 1135 396 q 1142 297 1142 328 l 1142 272 q 1139 249 1142 263 l 1314 207 l 1314 215 q 1296 360 1314 286 q 1244 522 1278 435 l 832 522 l 932 746 q 1022 831 958 804 q 1182 858 1086 857 l 1056 661 q 1051 651 1051 654 q 1261 619 1051 619 l 1264 642 l 1251 642 q 1225 658 1225 642 q 1231 678 1225 665 l 1422 965 l 1401 983 l 1110 958 l 1108 940 l 1207 919 q 1213 915 1213 918 l 336 915 q 300 897 300 915 q 303 888 300 893 q 310 874 306 882 l 424 625 q 415 615 424 617 l 314 594 m 1135 222 q 1089 129 1122 165 l 886 351 l 633 351 l 601 3 l 642 3 l 731 250 l 749 244 l 971 0 l 1263 0 q 1314 179 1306 78 l 1135 222 m 618 479 l 628 517 l 233 560 l 329 647 l 108 589 l 103 565 l 249 450 l 231 533 l 618 479 m 560 775 l 635 646 l 679 775 l 560 775 m 760 151 l 729 11 l 883 11 l 760 151 z "},"T":{"ha":1357,"x_min":-10,"x_max":1428,"o":"m 350 785 l 599 1014 l 814 901 l 1071 1035 l 1061 928 l 1244 1015 l 1428 824 l 1286 668 l 1315 671 l 1347 578 l 1011 349 l 986 57 l 1083 -49 l 950 -168 q 594 -92 788 -92 q 161 -10 161 -92 q 163 8 161 1 q 168 17 165 14 l 299 221 l 214 239 l 221 336 l 275 386 l -10 481 l 99 669 l 397 558 l 453 644 l 350 785 m 807 774 l 794 622 l 986 622 l 999 772 l 1078 813 l 1156 722 l 1007 475 l 1036 435 l 1288 599 l 1281 618 l 1163 606 l 1360 824 l 1235 954 l 1006 844 l 1014 950 l 814 846 l 606 954 l 457 824 l 619 606 l 500 618 l 490 599 l 713 435 l 750 475 l 643 722 l 736 813 l 807 774 m 599 364 l 310 339 l 308 321 l 406 300 q 414 293 414 297 q 413 288 414 289 l 261 51 q 251 18 251 38 q 640 0 251 0 q 989 -68 843 0 l 1013 -46 l 935 40 l 983 597 l 792 597 l 747 97 q 707 49 746 71 l 453 49 q 425 64 425 49 q 433 85 425 69 l 619 346 l 599 364 m 663 421 l 508 549 l 508 467 l 125 607 l 100 554 l 485 426 l 419 381 l 647 400 l 663 421 m 706 88 l 728 379 l 494 88 l 706 88 z "},"U":{"ha":1339,"x_min":29,"x_max":1396,"o":"m 1226 158 l 1263 158 q 1265 97 1263 121 q 1271 51 1267 72 q 1046 -78 1168 -32 q 764 -124 924 -124 q 650 -116 704 -124 q 555 -87 596 -108 q 490 -30 514 -67 q 465 65 465 7 q 478 143 465 103 q 514 215 490 183 q 551 281 533 244 q 582 352 568 318 q 603 411 596 386 q 611 440 611 436 l 346 483 l 358 397 l 307 358 l 29 567 l 71 640 l 114 689 l 336 738 l 274 872 q 265 893 268 883 q 263 914 263 903 q 275 958 263 938 q 306 994 288 978 q 349 1019 325 1010 q 394 1029 372 1028 l 938 963 q 955 935 947 949 q 969 908 963 922 l 1063 993 l 1396 961 l 1390 861 q 1385 859 1388 861 q 1372 850 1382 857 q 1340 830 1361 843 q 1281 792 1318 817 l 1226 158 m 683 411 q 640 321 663 363 q 599 243 618 279 q 568 174 581 207 q 556 111 556 142 q 580 33 556 61 q 642 -10 604 4 q 724 -29 679 -25 q 810 -33 768 -33 q 937 -24 875 -33 q 1051 1 999 -14 q 1146 35 1104 17 q 1214 72 1188 54 q 1213 90 1213 75 l 1213 108 l 1203 108 q 1174 131 1189 115 l 1235 833 q 1342 894 1238 844 l 1343 915 l 1076 943 l 1051 922 l 978 85 q 941 63 967 71 q 886 56 915 56 q 839 60 863 56 q 797 76 815 65 q 766 101 778 86 q 754 138 754 117 q 765 178 754 153 q 792 234 776 204 q 824 294 807 264 q 853 350 840 325 l 683 411 m 365 658 l 364 640 l 650 615 l 674 633 l 539 881 q 535 896 535 889 q 565 917 535 917 l 672 901 q 725 842 708 889 q 742 729 742 796 q 739 661 742 699 q 730 584 736 624 q 714 506 724 544 q 690 435 704 468 l 863 374 q 864 376 864 375 l 864 378 q 932 569 907 474 q 957 750 957 665 q 947 840 957 799 q 911 915 936 882 l 389 979 q 354 960 354 979 q 361 938 354 951 l 476 689 q 468 679 476 681 l 365 658 m 678 531 l 678 574 l 292 624 l 365 693 l 146 644 l 135 624 l 293 507 l 281 594 l 678 531 m 892 106 l 914 357 q 859 251 885 307 q 810 156 833 194 q 804 138 804 146 q 831 113 804 121 q 886 106 857 106 l 892 106 m 599 840 l 664 718 q 666 733 665 725 q 667 747 667 740 q 621 838 667 801 l 599 840 z "},"V":{"ha":1374,"x_min":18,"x_max":1386,"o":"m 269 849 q 280 886 269 865 q 308 924 290 907 q 348 954 325 942 q 396 967 371 967 q 428 966 410 967 q 493 965 446 965 q 956 1043 825 965 l 1046 967 l 1017 931 l 1332 1039 q 1373 918 1360 976 q 1386 801 1386 860 q 1362 594 1386 701 q 1299 378 1338 486 q 1210 163 1260 269 q 1113 -40 1161 57 l 1011 -121 l 686 -89 l 669 -1 l 710 47 q 738 62 725 54 q 761 75 750 69 q 747 225 754 154 q 729 363 739 296 l 335 424 l 347 340 l 296 303 l 18 489 l 53 579 l 96 629 l 344 675 l 282 810 q 273 831 276 821 q 269 849 269 840 m 374 596 l 372 576 l 658 553 l 682 571 l 540 832 q 539 838 539 833 q 664 874 539 867 q 725 817 721 846 q 857 81 824 546 l 857 79 q 767 19 857 68 l 771 -1 l 1044 -29 l 1074 -8 q 1213 292 1157 156 q 1299 547 1269 429 l 1135 536 q 1039 128 1119 363 q 906 874 986 575 l 976 960 l 950 982 q 493 915 839 915 q 450 915 467 915 q 423 916 433 915 q 407 917 413 917 q 396 917 401 917 q 360 899 360 917 q 363 889 360 894 q 369 875 365 883 l 485 626 q 475 617 485 618 l 374 596 m 1306 574 q 1329 694 1321 638 q 1338 801 1338 750 q 1304 978 1338 904 l 1047 889 q 1139 614 1139 797 q 1139 579 1139 589 q 1138 563 1139 569 l 1306 574 m 779 456 l 775 501 l 279 571 l 369 629 l 132 586 l 119 551 l 282 443 l 269 533 l 779 456 m 1047 568 q 979 786 1047 685 q 1010 637 994 715 q 1040 471 1026 558 q 1044 506 1043 493 q 1047 530 1046 519 q 1047 549 1047 540 q 1047 568 1047 557 m 653 806 l 599 800 l 721 586 l 653 806 z "},"W":{"ha":1721,"x_min":36,"x_max":1821,"o":"m 1340 376 q 1292 263 1318 317 q 1235 156 1265 208 q 1229 138 1229 146 q 1256 113 1229 121 q 1317 106 1283 106 l 1340 376 m 1074 674 q 1065 739 1074 710 q 1035 786 1056 768 q 997 538 1035 663 q 904 296 958 414 q 872 230 886 256 q 847 187 857 204 q 833 158 838 169 q 828 136 828 146 q 849 114 828 121 q 894 106 869 107 q 910 163 900 135 q 940 215 921 190 q 994 312 969 256 q 1036 430 1018 368 q 1064 556 1054 492 q 1074 674 1074 619 m 1817 861 q 1758 830 1789 851 q 1707 792 1726 808 l 1651 158 l 1688 158 l 1694 53 q 1603 -15 1657 17 q 1485 -71 1550 -47 q 1347 -109 1421 -94 q 1192 -124 1272 -124 q 992 -96 1092 -124 q 891 -115 944 -108 q 779 -122 838 -122 q 670 -115 722 -122 q 578 -86 618 -107 q 513 -28 538 -65 q 489 65 489 8 q 499 132 489 101 q 529 201 510 163 q 577 293 549 239 q 642 431 606 347 l 338 465 l 336 408 l 293 367 l 36 531 l 61 611 l 104 661 l 368 706 l 306 839 q 293 881 293 865 q 302 922 293 901 q 328 958 311 942 q 367 985 344 975 q 418 994 390 994 l 967 982 q 986 953 976 968 q 1003 922 996 938 l 1049 997 l 1343 963 q 1385 886 1369 928 l 1489 993 l 1821 961 l 1817 861 m 685 347 q 649 280 668 310 q 615 223 631 250 q 590 169 600 196 q 579 111 579 143 q 603 32 579 61 q 665 -11 628 3 q 744 -28 701 -25 q 825 -32 788 -32 q 937 -24 883 -32 q 1039 -1 990 -15 q 1136 -26 1086 -18 q 1238 -33 1186 -33 q 1363 -24 1301 -33 q 1478 1 1425 -14 q 1574 35 1532 17 q 1640 72 1615 54 l 1639 108 l 1628 108 q 1599 131 1615 117 l 1661 833 q 1768 894 1664 844 l 1769 915 l 1503 943 l 1476 922 l 1404 85 q 1366 63 1392 71 q 1313 56 1340 56 q 1267 60 1290 56 q 1224 76 1243 65 q 1192 101 1204 86 q 1179 138 1179 117 q 1192 181 1179 157 q 1261 316 1229 244 q 1317 460 1293 388 q 1353 601 1340 532 q 1367 732 1367 671 q 1355 834 1367 788 q 1317 915 1343 881 l 1093 943 l 1088 893 q 1147 838 1129 885 q 1164 719 1164 790 q 1153 596 1164 663 q 1124 463 1143 529 q 1080 338 1106 397 q 1024 235 1054 278 q 993 174 1003 206 q 983 114 983 143 q 984 91 983 97 q 986 81 985 85 q 951 63 974 69 q 903 56 928 56 q 858 60 881 56 q 818 75 836 65 q 788 100 800 85 q 776 136 776 115 q 790 183 776 154 q 821 246 803 213 q 859 315 839 279 q 892 382 879 350 q 904 414 899 399 q 917 446 910 429 l 736 479 q 713 413 725 446 q 685 347 700 379 m 396 631 l 394 614 l 675 589 l 699 607 l 560 863 q 559 865 560 864 q 558 868 558 867 q 725 899 558 899 q 793 756 793 875 q 778 636 793 704 q 746 506 764 568 l 925 471 q 969 626 951 550 q 988 769 988 701 q 977 860 988 818 q 943 932 967 903 l 418 946 q 385 926 385 946 q 393 904 385 918 l 506 661 q 497 651 506 653 l 396 631 m 718 519 l 729 554 l 297 599 l 361 656 l 142 618 l 136 597 l 282 504 l 274 571 l 718 519 m 635 822 l 725 650 q 729 717 729 688 q 707 813 729 782 l 635 822 z "},"X":{"ha":1474,"x_min":47,"x_max":1564,"o":"m 1147 272 q 1119 299 1147 290 q 1061 307 1092 307 l 1046 146 q 1076 178 1058 160 q 1110 213 1094 196 q 1136 246 1125 231 q 1147 272 1147 261 m 1115 739 q 1091 707 1108 728 q 1056 663 1074 686 q 1024 618 1038 640 q 1011 579 1011 596 q 1037 556 1011 564 q 1093 549 1063 549 l 1099 549 l 1115 739 m 1231 993 l 1564 961 l 1558 861 q 1513 840 1531 849 q 1483 822 1494 831 q 1463 807 1471 814 q 1449 792 1456 800 l 1432 600 l 1469 600 l 1469 489 q 1458 476 1467 482 q 1442 467 1450 471 q 1478 408 1468 440 q 1488 338 1488 376 q 1466 252 1488 294 q 1419 174 1444 210 q 1373 115 1394 139 q 1351 83 1351 90 q 1400 65 1351 69 l 1396 -76 l 1346 -118 l 1069 -83 q 1028 -71 1046 -81 q 999 -50 1011 -61 l 925 -112 l 597 -79 l 597 13 l 643 61 q 681 78 664 72 q 711 90 699 85 l 726 254 l 688 254 l 688 358 l 717 388 l 697 411 l 336 469 l 344 390 l 293 353 l 47 540 l 68 622 l 110 672 l 354 719 l 289 853 q 282 872 285 863 q 279 893 279 882 q 290 939 279 917 q 319 978 301 961 q 361 1006 338 996 q 410 1017 385 1017 q 419 1017 414 1017 q 428 1015 424 1017 l 1099 946 q 1127 933 1115 943 q 1146 917 1139 924 l 1231 993 m 382 640 l 381 621 l 667 597 l 690 615 l 550 876 q 546 892 546 885 q 576 913 546 913 q 779 892 704 900 q 894 876 854 883 q 945 864 933 869 q 957 854 957 858 q 946 833 957 846 q 915 801 935 821 q 866 751 894 781 q 804 678 838 721 q 761 557 761 622 q 765 511 761 533 q 788 471 768 489 q 853 442 808 453 q 981 431 897 431 q 779 382 806 404 l 779 346 l 790 346 q 804 337 797 343 q 819 324 811 331 l 799 90 q 692 29 797 78 l 690 8 l 957 -19 l 983 1 l 1015 369 q 1053 391 1028 383 q 1107 399 1078 399 q 1154 394 1131 399 q 1197 378 1178 389 q 1227 353 1215 368 q 1239 317 1239 338 q 1236 294 1239 304 q 1223 268 1233 283 q 1192 230 1213 253 q 1135 171 1171 207 q 1084 112 1106 140 q 1063 60 1063 83 q 1076 30 1063 43 q 1122 8 1090 17 l 1347 -19 l 1349 19 q 1274 28 1297 25 q 1251 43 1251 32 q 1290 97 1251 58 q 1396 219 1328 135 q 1426 277 1415 244 q 1438 338 1438 310 q 1426 401 1438 376 q 1390 438 1415 425 q 1325 454 1365 450 q 1228 458 1285 458 q 1316 476 1281 468 q 1373 490 1351 483 q 1406 502 1394 496 q 1421 514 1417 508 l 1421 551 l 1410 551 q 1381 574 1394 556 l 1393 714 l 1201 714 l 1185 528 q 1147 506 1172 513 q 1093 499 1121 499 q 1046 503 1069 499 q 1003 518 1022 508 q 973 542 985 528 q 961 578 961 557 q 974 622 961 599 q 1029 709 1001 672 q 1078 773 1057 746 q 1114 819 1100 800 q 1128 853 1128 838 q 1119 878 1128 864 q 1088 896 1110 893 l 425 967 q 371 939 371 963 q 376 918 371 929 l 493 674 q 485 661 493 663 l 382 640 m 1219 922 l 1204 740 l 1396 740 l 1404 833 q 1511 894 1407 846 l 1513 915 l 1246 943 l 1219 922 m 628 829 l 718 653 q 732 687 721 671 q 760 722 743 703 q 799 763 776 740 q 847 815 821 786 l 628 829 m 735 507 l 724 551 l 292 607 l 365 671 l 151 629 l 144 604 l 283 499 l 275 581 l 735 507 z "},"Y":{"ha":1425,"x_min":49,"x_max":1521,"o":"m 1515 861 q 1474 840 1490 849 q 1444 823 1457 831 q 1423 808 1432 815 q 1406 792 1414 801 l 1351 167 l 1389 167 l 1389 57 q 1283 -13 1342 18 q 1159 -67 1224 -44 q 1026 -103 1094 -90 q 889 -115 957 -115 q 783 -108 839 -115 q 678 -83 726 -101 q 599 -31 631 -64 q 568 56 568 3 q 590 146 568 106 q 660 218 611 186 l 671 343 q 660 351 667 347 q 647 365 654 356 q 634 393 640 375 q 626 443 628 411 l 339 481 l 347 414 l 296 376 l 49 554 l 67 632 l 108 682 l 338 735 l 275 871 q 264 913 264 890 q 297 997 264 957 q 397 1044 329 1038 l 1051 964 q 1110 924 1090 946 l 1188 993 l 1521 961 l 1515 861 m 729 451 q 769 408 742 424 q 831 385 796 393 q 906 374 867 376 q 978 372 944 372 q 1056 376 1017 372 q 1129 386 1094 381 l 1103 94 q 1061 69 1089 76 q 1001 61 1033 61 q 919 75 958 61 q 875 117 881 89 l 875 119 q 894 165 875 142 q 934 212 913 189 q 974 256 956 235 q 993 297 993 278 q 986 321 993 310 l 761 354 l 758 313 q 795 303 785 310 q 806 289 806 297 q 788 259 806 276 q 748 224 771 242 q 703 189 725 207 q 675 157 682 171 q 660 101 660 128 q 688 37 660 61 q 757 -1 715 13 q 847 -18 799 -14 q 936 -22 896 -22 q 1063 -13 1000 -22 q 1178 10 1125 -4 q 1274 44 1232 25 q 1339 81 1315 63 l 1339 118 l 1329 118 q 1299 140 1315 122 l 1360 833 q 1468 894 1363 844 l 1468 915 l 1203 943 l 1176 922 l 1136 464 q 1067 440 1114 440 q 984 457 1025 440 q 921 511 943 474 l 729 451 m 367 657 l 365 639 l 651 614 l 675 632 l 533 893 q 531 902 532 899 q 531 908 531 906 q 560 929 531 929 l 829 896 q 893 851 893 882 q 855 775 893 824 q 758 640 817 726 q 718 514 718 581 q 719 497 718 504 q 722 476 719 490 l 914 535 q 926 585 914 564 q 992 693 964 647 q 1041 772 1021 739 q 1072 828 1061 806 q 1082 867 1082 851 q 1071 893 1082 882 q 1036 915 1060 904 l 401 993 q 356 958 356 982 q 363 936 356 947 l 478 688 q 468 678 478 679 l 367 657 m 686 533 l 689 574 l 286 618 l 361 690 l 150 640 l 144 618 l 286 517 l 278 589 l 686 533 m 611 858 l 693 676 l 790 831 l 611 858 m 964 540 q 989 506 964 518 q 1050 489 1014 494 l 1071 725 q 1031 658 1054 694 q 979 575 1008 622 q 969 560 975 568 q 964 540 964 551 m 1029 247 q 1006 214 1021 231 q 974 181 990 197 q 944 151 958 165 q 925 124 931 136 q 956 115 932 118 q 1017 111 979 111 l 1029 247 z "},"Z":{"ha":1364,"x_min":24,"x_max":1421,"o":"m 813 569 q 901 611 861 593 q 975 643 942 629 q 756 764 901 764 q 732 763 744 764 q 707 761 719 763 l 813 569 m 1318 614 q 1117 512 1207 560 q 963 419 1026 464 q 864 329 899 374 q 829 235 829 285 q 867 142 829 185 l 1132 401 l 1339 401 l 1299 -47 l 1250 -89 l 1129 -89 l 1092 122 l 857 -92 l 519 -92 q 458 118 458 24 q 470 203 458 163 q 499 279 482 244 q 534 341 515 314 q 567 385 553 368 l 358 407 l 307 349 l 24 483 l 118 625 l 435 657 l 365 807 q 356 828 358 818 q 354 849 354 838 q 368 896 354 875 q 401 932 382 917 q 442 956 421 947 q 481 964 464 964 l 1421 965 l 1413 857 l 1363 815 l 1285 794 l 1318 614 m 458 593 l 456 575 l 743 550 l 767 568 l 625 829 q 624 831 625 831 q 624 833 624 832 q 835 863 624 863 q 963 833 910 863 q 1054 746 1017 804 l 1083 632 q 626 379 747 513 l 799 333 q 1263 643 864 482 l 1232 814 l 1236 863 l 1365 897 l 1367 915 l 481 914 q 446 894 446 914 q 453 872 446 886 l 569 624 q 560 614 569 615 l 458 593 m 608 356 q 564 261 578 315 q 550 164 550 207 q 593 0 550 78 l 883 0 l 1149 244 l 1168 250 l 1213 3 l 1253 3 l 1285 351 l 1151 351 l 865 72 q 779 235 779 143 q 792 307 779 269 l 608 356 m 674 467 l 724 507 l 338 557 l 385 601 l 149 578 l 133 550 l 315 464 l 321 511 l 674 467 z "},"`":{"ha":568,"x_min":-7,"x_max":508,"o":"m 131 1203 l 508 1054 l 442 924 l -7 924 l 61 1024 l 22 1039 l 131 1203 m 135 1108 l 176 1093 l 124 1014 l 469 1014 l 153 1140 l 135 1108 z "},"a":{"ha":913,"x_min":-110,"x_max":989,"o":"m 679 921 q 678 903 678 911 q 678 888 678 894 q 693 640 678 763 q 744 392 708 518 q 840 132 781 265 q 989 -146 900 -1 l 933 -185 l 426 -53 l 289 -167 q -110 -90 147 -92 l -76 13 l -33 63 q 58 94 25 76 q 194 426 135 258 q 301 776 254 594 l 218 828 l 244 913 l 288 963 l 618 993 l 679 921 m 603 943 l 324 915 l 317 894 l 392 850 q 400 839 400 846 q 397 833 400 839 q 135 97 299 442 q 6 21 119 51 l -1 1 q 332 -68 206 0 l 363 -46 l 307 40 l 356 142 l 576 142 q 536 250 553 192 q 513 379 519 308 l 488 379 l 476 260 q 375 192 471 192 q 464 465 425 319 q 531 778 503 611 q 538 644 533 708 q 550 521 543 581 l 653 550 q 634 705 640 625 q 628 889 628 785 q 628 904 628 896 q 629 922 628 913 l 603 943 m 553 493 q 595 272 568 371 q 658 96 622 174 l 658 92 q 581 64 658 64 q 526 67 557 64 q 457 75 494 69 l 439 50 l 881 -67 q 742 216 797 72 q 657 524 686 360 l 553 493 z "},"b":{"ha":826,"x_min":28,"x_max":803,"o":"m 724 863 q 686 844 700 854 q 672 819 672 835 q 682 793 672 807 q 708 753 693 775 q 737 706 724 731 q 760 654 750 681 q 769 603 769 628 q 737 497 769 550 q 656 407 704 444 q 669 394 661 400 q 683 382 676 389 q 718 353 697 371 q 758 311 739 336 q 790 253 776 286 q 803 181 803 221 q 763 52 803 106 q 665 -35 724 -1 q 535 -85 606 -69 q 403 -100 465 -100 q 294 -90 344 -100 q 199 -64 243 -81 q 120 -26 156 -47 q 57 18 85 -4 l 124 772 l 28 822 l 28 913 l 75 993 l 732 993 l 724 863 m 529 599 q 536 558 536 574 q 526 522 536 538 q 501 495 517 506 q 465 479 485 485 q 425 474 446 474 q 381 503 390 474 l 389 614 l 197 614 l 151 83 q 267 20 194 49 q 446 -8 340 -8 q 545 -2 492 -8 q 645 24 599 4 q 722 82 692 44 q 753 181 753 119 q 730 265 753 231 q 678 324 707 299 q 623 373 649 350 q 592 425 597 396 q 640 457 617 438 q 681 499 664 476 q 709 549 699 522 q 719 603 719 575 q 707 653 719 629 q 628 787 663 738 q 594 861 594 836 q 613 890 594 881 q 676 907 631 900 l 679 943 l 121 943 l 119 894 l 207 850 q 211 814 211 847 q 208 745 211 788 q 200 640 206 703 l 392 640 l 410 858 l 464 865 q 450 797 450 832 q 460 740 450 767 q 483 688 469 713 q 509 642 496 664 q 529 599 522 619 m 422 396 q 449 331 426 360 q 497 277 471 303 q 544 224 524 251 q 565 161 565 196 q 553 121 565 138 q 520 92 540 104 q 475 75 500 81 q 426 69 450 69 q 379 76 401 69 q 344 97 357 83 l 371 400 q 377 401 372 400 q 389 401 382 401 q 422 396 406 401 m 460 139 q 453 159 460 150 q 438 177 447 168 q 419 194 429 186 q 403 213 410 203 l 397 121 q 435 119 404 119 q 460 139 460 119 m 431 524 l 435 524 q 449 546 449 524 q 445 576 449 558 q 433 619 442 594 l 431 524 z "},"c":{"ha":864,"x_min":28,"x_max":932,"o":"m 703 528 q 411 585 449 528 l 381 557 q 363 533 363 543 l 524 242 l 726 400 l 822 257 l 772 213 l 349 -135 l 54 381 q 37 408 46 396 q 28 439 28 421 q 46 492 28 465 q 90 544 64 519 q 144 592 117 569 q 193 632 172 615 l 101 599 l 53 693 l 93 740 l 425 990 l 467 953 l 508 1004 l 861 1033 l 932 974 l 744 692 l 764 692 l 751 569 l 703 528 m 567 796 l 424 925 l 157 726 l 169 701 l 356 769 q 376 772 369 772 q 393 765 386 772 l 393 764 q 133 514 393 743 q 119 485 119 500 q 133 456 119 468 l 256 240 l 406 349 l 315 513 q 314 525 314 519 q 314 533 314 531 q 322 565 314 551 q 346 593 331 579 l 567 796 m 269 218 l 407 -19 l 756 267 l 714 328 l 508 165 l 419 326 l 269 218 m 846 983 l 554 958 l 554 940 l 653 919 q 661 911 661 917 q 660 906 661 907 l 500 661 q 496 651 496 654 q 707 619 496 619 l 708 642 l 697 642 q 669 658 669 642 q 676 678 669 661 l 867 965 l 846 983 z "},"d":{"ha":842,"x_min":6,"x_max":911,"o":"m 364 489 l 342 226 l 389 186 l 549 318 l 364 489 m 643 965 l 643 851 l 533 799 l 911 483 l 903 383 l 275 -143 l 21 1 l 60 454 l 6 479 l 32 568 l 76 618 l 224 618 l 74 756 l 276 965 l 643 965 m 292 206 l 322 568 l 111 568 l 106 551 l 154 529 l 115 72 l 315 -43 l 854 407 l 860 463 l 642 643 l 508 507 l 672 357 l 389 124 l 292 206 m 297 915 l 185 803 l 489 524 l 622 661 l 428 825 l 449 867 l 590 893 l 592 915 l 297 915 z "},"e":{"ha":919,"x_min":7,"x_max":963,"o":"m 963 974 l 774 692 l 794 692 l 782 569 l 732 528 q 612 532 664 528 q 522 543 560 536 l 746 429 l 690 383 l 431 264 l 447 257 l 928 464 l 903 167 l 853 124 l 369 -93 l 64 42 q 19 86 31 57 q 7 143 7 115 q 44 239 7 190 q 142 315 81 288 l 189 338 l 93 386 q 65 415 71 397 q 58 446 58 432 q 81 499 58 476 l 225 633 l 132 599 l 82 693 l 122 740 l 456 990 l 496 953 l 538 1004 l 892 1033 l 963 974 m 285 413 l 374 371 l 164 271 q 113 232 128 254 q 97 189 97 210 q 105 154 97 172 q 133 126 113 136 l 415 3 l 856 200 l 872 385 l 449 204 l 282 272 l 632 432 l 464 518 l 285 413 m 597 796 l 464 925 l 186 726 l 200 701 l 385 769 q 397 772 392 771 q 406 772 401 772 q 424 765 417 772 l 424 764 q 362 688 424 753 q 164 514 300 622 q 150 492 150 504 q 161 472 150 478 l 258 425 l 438 532 l 379 561 q 365 576 365 567 q 376 593 365 582 l 597 796 m 876 983 l 585 958 l 583 940 l 683 919 q 690 911 690 917 q 689 906 690 907 l 531 661 q 526 651 526 654 q 736 619 526 619 l 739 642 l 728 642 q 700 658 700 642 q 707 678 700 661 l 897 965 l 876 983 z "},"f":{"ha":832,"x_min":-14,"x_max":929,"o":"m 651 256 l 603 214 l 496 214 q 492 335 497 299 q 482 388 488 372 l 457 388 l 428 57 l 526 -49 l 393 -167 q 210 -111 310 -131 q -14 -90 111 -92 l -8 11 l 33 58 q 70 69 54 65 q 99 78 86 74 l 161 772 l 65 822 l 65 911 l 113 961 l 446 994 l 503 944 l 856 1038 l 929 974 l 742 692 l 761 692 l 750 592 l 786 592 l 651 256 m 711 542 l 421 542 l 433 681 l 242 681 l 189 97 q 81 21 186 51 l 79 1 q 268 -17 181 0 q 431 -68 356 -33 l 456 -46 l 378 40 l 415 479 l 572 479 q 596 392 596 479 q 592 306 596 357 l 618 306 l 711 542 m 454 922 l 431 943 l 160 915 l 158 894 l 244 850 q 250 815 250 849 q 248 769 250 796 q 243 707 246 743 l 435 707 l 446 835 l 633 883 q 642 876 642 881 q 640 871 642 872 l 497 661 q 493 651 493 654 q 704 619 493 619 l 707 642 l 694 642 q 667 658 667 642 q 674 678 667 661 l 864 965 l 843 983 l 450 879 l 454 922 z "},"g":{"ha":888,"x_min":10,"x_max":926,"o":"m 750 697 l 742 447 l 710 424 q 882 57 792 288 l 603 -161 l 603 -292 l 546 -335 l 458 -367 l 347 -154 l 360 -121 q 241 -26 294 -78 q 144 94 188 25 q 68 255 101 164 q 10 467 35 346 l 185 631 l 97 599 l 47 693 l 88 740 l 421 990 l 461 953 l 503 1004 l 857 1033 l 926 974 l 750 697 m 635 483 l 696 492 l 699 521 l 403 521 q 490 397 444 468 q 585 229 535 325 l 503 165 q 381 315 428 231 l 213 190 q 298 69 251 122 q 403 -19 344 17 l 619 160 q 668 38 651 107 l 451 -121 l 526 -264 l 547 -256 l 554 -131 l 822 75 q 726 297 774 201 q 629 463 678 392 l 635 483 m 371 338 q 350 380 361 356 q 330 430 339 404 q 315 483 321 456 q 308 533 308 510 q 317 565 308 551 q 340 593 325 579 l 561 796 l 418 925 l 151 726 l 164 701 l 350 769 q 371 772 357 772 q 388 764 381 772 q 104 494 388 742 q 145 342 121 411 q 200 213 169 272 l 371 338 m 861 965 l 840 983 l 550 958 l 549 940 l 647 919 q 656 911 656 917 q 654 906 656 907 l 494 661 q 490 651 490 654 q 701 619 490 619 l 704 642 l 692 642 q 664 658 664 642 q 671 678 664 667 l 861 965 z "},"h":{"ha":911,"x_min":3,"x_max":961,"o":"m 507 761 l 503 725 l 536 763 l 507 761 m 560 329 q 533 365 560 351 q 472 382 506 379 l 453 142 q 483 190 465 163 q 518 245 501 218 q 547 295 535 272 q 560 329 560 318 m 815 582 q 645 603 707 592 q 551 624 583 614 q 510 642 519 633 q 496 654 500 650 l 490 588 q 540 592 515 590 q 588 593 564 593 q 710 585 653 593 q 808 555 767 576 q 874 495 850 533 q 899 397 899 457 q 887 329 899 361 q 856 265 875 297 q 815 201 838 233 q 768 132 792 168 q 750 92 750 103 q 764 71 750 78 q 808 57 778 64 l 800 -82 l 750 -124 l 469 -90 q 433 -75 446 -87 q 411 -53 419 -62 l 331 -119 l 3 -87 l 3 6 l 118 85 l 172 707 l 135 707 l 135 811 q 235 887 178 853 q 357 944 292 921 q 494 979 422 967 q 642 992 567 992 q 758 979 700 992 q 860 946 815 967 q 933 897 906 925 q 961 836 961 868 q 949 798 961 815 q 920 766 936 781 q 888 740 904 751 q 864 718 872 728 l 864 624 l 815 582 m 97 21 l 97 0 l 363 -28 l 390 -7 l 429 451 q 459 469 440 464 q 500 475 478 475 q 551 468 525 475 q 600 449 578 461 q 637 417 622 436 q 651 375 651 399 q 646 348 651 363 q 632 318 640 333 q 615 288 624 303 q 599 263 606 274 l 750 194 q 784 240 767 215 q 816 290 801 264 q 840 342 831 315 q 849 397 849 369 q 824 478 849 449 q 763 522 800 507 q 678 540 725 536 q 588 543 632 543 q 510 539 549 543 q 436 529 471 535 l 463 821 q 508 846 476 838 q 576 854 540 854 q 654 840 619 854 q 689 806 689 825 q 672 783 689 793 q 633 765 654 774 q 595 747 613 756 q 578 729 578 739 q 592 714 578 715 l 815 682 l 817 724 q 790 749 790 736 q 809 767 790 758 q 851 786 828 776 q 892 808 874 796 q 911 838 911 821 q 886 876 911 857 q 822 910 861 894 q 735 934 783 925 q 643 943 688 943 q 512 932 578 943 q 390 904 446 921 q 290 869 333 888 q 226 835 247 850 l 226 797 l 236 797 q 267 775 250 790 l 207 82 q 192 65 204 71 l 97 21 m 583 239 q 509 117 535 164 q 483 49 483 71 q 494 22 483 32 q 529 0 506 11 l 753 -28 l 756 14 q 674 64 674 29 q 690 110 674 82 q 735 174 706 138 l 583 239 z "},"i":{"ha":483,"x_min":-47,"x_max":532,"o":"m 438 529 l 396 57 l 493 -49 l 360 -167 q 177 -111 276 -131 q -47 -90 78 -92 l -40 11 q 3 46 -14 33 q 33 65 21 58 q 52 73 44 71 q 67 78 60 75 l 103 493 l 56 563 l 82 839 l 124 888 l 332 986 l 532 883 l 508 600 l 438 529 m 424 -46 l 344 40 l 381 447 l 188 447 l 157 97 q 128 56 154 75 q 49 21 103 36 l 47 1 q 236 -17 149 0 q 399 -68 324 -33 l 424 -46 m 171 856 l 160 721 l 301 644 l 468 725 l 479 856 l 332 931 l 171 856 m 460 622 l 463 657 l 299 593 l 151 658 l 149 622 l 185 579 l 196 544 l 190 474 l 382 474 l 389 547 l 408 576 l 460 622 z "},"j":{"ha":619,"x_min":-228,"x_max":628,"o":"m 490 529 l 467 257 l 628 74 q 146 -365 424 -217 l -25 -176 l -147 -210 l -228 -137 q 117 150 -12 25 l 157 493 l 110 563 l 136 839 l 178 888 l 385 986 l 585 883 l 561 600 l 490 529 m 415 240 l 422 317 l 229 317 l 218 183 l 378 11 q 268 -89 339 -53 l 114 79 q 8 -14 63 31 q -107 -97 -47 -58 l -89 -114 l 35 -79 l 201 -262 q 568 75 415 -144 l 415 240 m 225 856 l 213 721 l 356 644 l 522 725 l 533 856 l 385 931 l 225 856 m 513 622 l 515 657 l 353 593 l 206 658 l 203 622 l 238 579 l 250 544 l 232 343 l 424 343 l 443 547 l 463 576 l 513 622 z "},"k":{"ha":953,"x_min":-21,"x_max":990,"o":"m 521 915 l 563 965 l 990 965 l 990 874 l 640 451 q 699 363 664 410 q 776 281 735 315 l 819 331 l 935 331 l 903 -50 l 853 -92 l 678 -92 q 540 9 597 -40 q 431 117 482 58 q 426 86 428 101 q 424 56 425 71 l 519 -49 l 386 -167 q 203 -111 303 -131 q -21 -90 104 -92 l -14 11 l 28 58 l 94 79 q 146 461 128 308 q 164 701 164 614 q 158 771 164 743 l 58 822 l 58 911 l 106 961 l 440 994 l 489 950 q 506 843 506 910 q 501 730 506 797 q 488 569 496 663 l 626 760 l 514 828 l 521 915 m 936 892 l 938 915 l 610 915 l 608 899 l 726 826 l 724 797 l 414 376 q 446 660 436 544 q 456 843 456 776 q 447 922 456 903 l 424 943 l 153 915 l 151 894 l 238 850 q 249 836 249 843 l 249 833 q 256 747 256 803 q 238 495 256 656 q 183 97 219 335 q 75 21 181 51 l 74 1 q 262 -17 175 0 q 424 -68 349 -33 l 449 -46 l 371 40 q 391 197 381 124 q 410 338 401 271 q 469 248 436 292 q 539 163 501 204 l 679 310 q 626 379 650 342 q 582 458 603 417 l 936 892 m 857 0 l 881 281 l 849 281 l 800 199 q 696 290 747 233 l 557 142 q 724 0 632 67 l 857 0 z "},"l":{"ha":861,"x_min":54,"x_max":863,"o":"m 782 454 q 790 422 786 444 q 800 358 794 400 l 750 317 l 707 314 q 723 241 711 282 q 754 152 735 200 q 801 53 774 104 q 863 -50 828 1 l 811 -92 l 54 -92 l 72 35 l 117 85 l 176 772 l 81 822 l 81 914 l 128 964 l 607 982 q 608 899 607 935 q 614 818 608 863 l 564 776 l 506 772 l 479 465 l 735 485 l 782 454 m 476 415 q 471 356 471 393 q 477 273 471 318 q 495 185 483 228 q 525 104 507 142 q 568 43 543 67 q 547 42 561 42 l 526 42 q 394 67 428 42 l 450 696 l 258 696 l 203 57 q 184 45 193 51 q 158 35 175 39 l 153 0 l 769 0 q 715 99 738 46 q 679 201 693 151 q 659 294 665 251 q 653 361 653 336 q 663 384 653 375 q 688 398 674 393 q 718 404 703 403 q 744 406 733 406 q 736 435 742 419 l 476 415 m 260 722 l 451 722 l 464 858 l 558 864 q 557 889 557 871 l 557 931 l 175 915 l 174 894 l 260 850 q 271 836 271 843 l 260 722 z "},"m":{"ha":1460,"x_min":3,"x_max":1449,"o":"m 1435 976 q 1445 867 1442 921 q 1449 760 1449 814 q 1440 574 1449 669 q 1419 370 1432 479 q 1388 134 1406 261 q 1350 -146 1369 7 l 1301 -185 q 1102 -104 1204 -139 q 892 -47 1000 -69 l 935 71 l 978 119 q 1020 113 1001 117 q 1053 108 1039 110 q 1083 354 1071 247 q 1100 540 1094 461 q 935 251 1029 424 q 719 -157 842 79 l 671 -197 l 590 -172 q 639 244 619 71 q 665 529 658 417 q 565 324 619 442 q 449 54 511 206 l 543 -49 l 410 -167 q 227 -111 326 -131 q 3 -90 128 -92 l 10 11 l 51 58 q 88 69 72 65 q 117 78 103 74 l 181 793 l 81 843 l 93 932 l 135 982 l 468 1015 l 524 961 l 492 606 q 606 807 544 710 q 747 993 668 904 l 936 1015 l 990 965 q 994 906 993 935 q 996 847 996 878 q 994 790 996 819 q 990 728 993 760 q 1078 862 1033 796 q 1183 993 1124 928 l 1394 1014 l 1435 976 m 1378 964 l 1207 946 q 1051 710 1128 844 q 896 404 975 575 q 946 847 946 671 q 945 896 946 872 q 943 943 944 919 l 921 964 l 772 946 q 578 633 668 807 q 413 247 489 458 l 446 642 l 254 642 l 207 97 q 178 56 204 75 q 97 21 153 36 l 97 1 q 285 -17 199 0 q 447 -68 372 -33 l 472 -46 l 394 40 l 396 54 q 761 763 635 636 q 763 741 763 753 q 764 710 764 729 q 744 414 764 618 q 685 -117 725 210 q 1196 763 1074 633 q 1198 738 1197 751 q 1199 708 1199 725 q 1183 473 1199 625 q 1138 93 1167 321 q 1071 57 1133 57 q 1043 59 1057 57 q 1011 64 1029 61 l 999 32 q 1163 -10 1086 15 q 1311 -71 1239 -36 q 1344 148 1328 38 q 1373 370 1360 258 q 1394 594 1386 482 q 1403 817 1403 706 q 1402 880 1403 849 q 1400 943 1401 911 l 1378 964 m 272 854 l 257 668 l 449 668 l 472 943 l 450 964 l 179 936 l 176 915 l 263 871 q 272 857 272 865 l 272 854 z "},"n":{"ha":1021,"x_min":10,"x_max":979,"o":"m 533 107 q 614 369 586 229 q 654 646 642 508 q 567 506 611 588 q 474 315 522 424 l 457 118 q 533 107 517 107 m 956 957 q 974 847 968 903 q 979 732 979 790 q 967 535 979 635 q 939 338 954 436 q 889 108 921 224 q 810 -143 857 -8 l 761 -183 q 511 -81 656 -121 l 417 -167 q 234 -111 333 -131 q 10 -90 135 -92 l 15 11 l 57 58 q 94 69 78 65 q 122 78 110 74 q 163 544 149 371 q 179 775 178 717 l 89 822 l 89 911 l 136 961 l 469 994 l 531 942 l 513 763 q 607 878 557 825 q 707 974 657 932 l 914 993 l 956 957 m 899 943 l 726 925 q 442 511 571 796 l 478 922 l 454 943 l 183 915 l 182 894 l 268 850 q 271 828 271 847 q 256 590 271 771 q 213 97 240 408 q 184 56 210 75 q 104 21 158 36 l 103 1 q 292 -17 204 0 q 454 -68 379 -33 l 479 -46 l 401 40 l 425 329 q 750 808 613 739 l 750 790 q 708 403 750 588 l 894 371 q 919 582 910 476 q 928 796 928 688 q 926 859 928 828 q 922 922 925 890 l 899 943 m 703 376 q 604 93 668 229 q 538 57 600 57 q 510 59 525 57 q 478 64 496 61 l 467 32 q 782 -71 657 1 q 844 135 818 33 q 889 343 871 238 l 703 376 z "},"o":{"ha":864,"x_min":35,"x_max":860,"o":"m 507 113 q 497 144 507 115 q 476 208 488 172 q 452 281 464 244 q 436 333 440 317 l 418 107 q 447 101 428 101 q 479 105 463 101 q 507 113 496 108 m 838 744 q 761 689 786 736 q 736 579 736 642 q 742 497 736 540 q 758 412 747 454 q 783 329 768 369 q 815 256 797 289 q 842 144 842 203 q 808 18 842 69 q 720 -65 774 -33 q 600 -110 667 -96 q 468 -124 533 -124 q 332 -112 399 -124 q 208 -81 265 -100 q 106 -40 151 -62 q 35 4 61 -18 l 51 108 l 92 151 q 127 567 115 413 q 140 775 139 722 l 50 822 l 50 914 l 97 990 l 860 990 l 838 744 m 593 181 q 599 149 599 164 q 585 108 599 125 q 551 79 572 90 q 503 62 529 68 q 451 56 476 56 q 399 63 424 56 q 365 85 375 71 l 376 203 l 185 203 l 178 131 q 159 118 168 124 q 133 108 150 113 q 130 90 132 99 q 126 72 128 81 q 188 36 149 54 q 277 3 226 18 q 388 -22 328 -12 q 514 -32 449 -32 q 619 -25 569 -32 q 708 1 669 -18 q 770 56 747 21 q 793 146 793 90 q 772 235 793 194 q 710 401 733 310 q 686 581 686 493 q 710 719 686 663 q 792 786 735 775 l 806 943 l 143 943 l 142 894 l 228 850 q 231 825 231 847 q 219 627 231 775 q 185 228 207 479 l 378 228 l 432 858 l 538 865 q 505 765 515 821 q 494 644 494 708 q 522 410 494 532 q 593 181 550 288 z "},"p":{"ha":911,"x_min":-29,"x_max":1033,"o":"m 451 490 l 549 558 q 461 594 501 572 l 451 490 m 1033 700 q 886 584 958 639 q 741 476 814 529 q 592 371 668 424 q 431 264 515 318 l 414 57 l 511 -49 l 379 -168 q -29 -90 208 -92 l -22 11 l 19 58 q 56 69 40 65 q 85 78 72 74 q 108 334 99 226 q 124 516 118 442 q 134 637 131 590 q 140 710 138 683 q 142 750 142 738 q 143 769 143 763 l 146 772 l 51 822 l 51 911 l 97 961 l 432 994 l 488 946 q 539 970 511 958 q 592 990 567 982 q 640 1004 618 999 q 676 1010 663 1010 q 685 1009 681 1010 q 705 1002 690 1008 q 746 983 719 996 q 818 947 772 971 q 719 915 751 933 q 688 861 688 897 q 713 805 688 835 q 783 751 738 775 q 892 711 828 726 q 1033 700 956 696 m 397 393 l 393 388 l 408 571 l 217 571 l 175 97 q 147 56 172 75 q 67 21 121 36 l 65 1 q 417 -68 269 0 l 442 -46 l 363 40 l 385 304 q 572 426 490 372 q 716 524 653 481 q 828 601 779 567 q 919 664 878 635 l 914 664 q 833 682 881 664 q 743 728 786 700 q 669 791 700 756 q 639 861 639 826 q 654 907 639 885 q 707 947 669 929 q 688 958 696 956 q 676 960 681 960 q 622 949 657 960 q 551 923 588 939 q 483 889 515 907 q 433 854 450 871 l 440 922 l 417 943 l 144 915 l 143 894 l 229 850 q 235 815 235 849 q 231 731 235 785 q 219 597 226 676 l 411 597 l 425 764 q 478 710 446 733 q 549 671 510 688 q 632 642 588 654 q 722 619 676 629 l 397 393 z "},"q":{"ha":874,"x_min":26,"x_max":903,"o":"m 829 744 q 787 723 806 740 q 756 681 768 706 q 736 630 743 657 q 729 578 729 603 q 751 413 729 499 q 807 256 772 326 q 826 202 819 229 q 833 144 833 175 q 804 28 833 79 l 903 -65 l 619 -403 q 567 -332 596 -369 q 510 -258 539 -294 q 453 -185 481 -221 q 404 -121 426 -150 q 285 -106 343 -118 q 178 -74 228 -93 q 90 -35 129 -56 q 26 6 51 -14 l 42 108 l 81 147 l 136 772 l 40 822 l 40 914 l 88 997 l 851 997 l 829 744 m 583 181 q 590 149 590 160 q 576 108 590 125 q 541 79 563 90 q 494 62 519 68 q 443 56 468 56 q 390 63 414 56 q 357 85 365 71 l 414 742 l 222 742 l 168 131 q 152 115 161 121 q 135 108 143 108 l 124 108 l 118 72 q 173 38 138 56 q 255 5 208 19 q 357 -20 301 -10 q 474 -32 413 -31 q 567 -149 518 -87 q 665 -282 615 -211 l 838 -69 l 810 -43 q 694 -107 729 -107 q 675 -99 683 -107 l 608 -25 q 740 27 697 -14 q 783 144 783 68 q 763 235 783 193 q 702 403 725 310 q 679 581 679 496 q 703 719 679 664 q 782 786 728 775 l 796 943 l 135 943 l 133 894 l 219 850 q 228 818 228 846 q 224 768 228 799 l 415 768 l 424 858 l 529 865 q 497 765 507 821 q 486 644 486 708 q 513 410 486 532 q 583 181 540 289 m 497 113 q 489 142 497 117 q 469 200 481 167 q 445 269 457 233 q 426 329 433 304 l 408 107 q 424 106 413 106 q 467 108 451 106 q 497 113 482 110 z "},"r":{"ha":972,"x_min":-36,"x_max":1038,"o":"m 443 488 l 563 563 q 506 581 533 571 q 453 600 479 590 l 443 488 m 447 -126 l 371 -167 q 188 -111 288 -131 q -36 -90 89 -92 l -31 11 l 11 58 q 49 69 32 65 q 76 78 65 74 l 136 768 l 43 822 l 43 911 l 90 961 l 424 994 l 478 946 q 530 972 503 960 q 583 992 557 983 q 630 1005 608 1000 q 667 1010 651 1010 q 682 1009 674 1010 q 701 1003 690 1008 l 815 946 q 707 906 744 935 q 669 857 669 876 q 697 802 669 831 q 774 751 725 774 q 891 713 824 728 q 1038 699 958 699 l 660 415 l 754 257 l 810 331 l 928 331 l 896 -50 l 846 -92 l 551 -92 l 413 140 l 406 57 l 504 -49 l 447 -126 m 432 922 l 408 943 l 138 915 l 136 894 l 222 850 q 228 814 228 849 q 223 724 228 782 q 210 578 218 665 l 403 578 l 418 764 q 477 710 439 733 q 562 671 515 688 q 658 642 608 654 q 754 621 708 631 l 389 393 l 622 0 l 850 0 l 875 281 l 840 281 l 783 163 l 754 163 l 588 438 l 938 664 l 932 664 q 840 681 893 664 q 737 727 786 699 q 653 790 688 756 q 619 860 619 825 q 700 947 619 908 l 679 958 q 667 960 678 960 q 613 950 646 960 q 544 925 579 940 q 476 891 508 910 q 425 854 444 872 l 432 922 m 433 -46 l 356 40 l 400 553 l 207 553 l 167 97 q 138 56 164 75 q 58 21 113 36 l 57 1 q 246 -17 158 0 q 408 -68 333 -33 l 433 -46 z "},"s":{"ha":863,"x_min":-21,"x_max":960,"o":"m 524 244 q 515 340 524 292 l 436 340 l 524 244 m 381 572 l 450 572 q 432 606 432 585 q 435 625 432 619 q 444 640 438 631 l 511 746 q 476 732 493 739 q 446 715 460 725 l 381 572 m 960 974 l 772 692 l 792 692 l 779 569 l 750 549 q 817 369 797 451 q 838 213 838 288 q 832 146 838 179 q 813 76 826 113 q 776 -2 800 39 q 717 -92 753 -43 l 378 -92 l 203 99 l 150 -47 l 101 -89 l -21 -89 l 18 351 l 43 375 l 15 404 l 149 783 l 25 817 l 32 915 l 74 965 l 504 965 l 533 994 l 535 1004 l 889 1033 l 960 974 m 304 522 l 371 671 l 188 671 l 114 461 l 140 432 l 600 432 q 611 358 607 392 q 615 296 615 324 q 561 129 615 181 l 358 351 l 106 351 l 75 3 l 115 3 l 204 250 l 221 244 l 444 0 l 735 0 q 788 213 788 99 q 717 522 788 351 l 304 522 m 874 983 l 582 958 l 581 940 l 681 919 q 686 915 686 918 l 119 915 l 119 897 l 243 863 l 239 814 l 197 697 l 382 697 l 404 746 q 654 858 476 838 l 528 661 q 524 651 524 654 q 733 619 524 619 l 736 642 l 725 642 q 697 658 697 642 q 704 678 697 667 l 894 965 l 874 983 z "},"t":{"ha":1033,"x_min":28,"x_max":1106,"o":"m 628 -167 q 445 -111 544 -131 q 221 -90 346 -92 l 228 11 q 292 59 263 44 q 335 78 321 74 l 358 322 l 65 539 l 131 644 l 28 785 l 276 1014 l 490 901 l 749 1035 l 739 928 l 922 1015 l 1106 824 l 964 668 l 992 671 l 1025 578 l 689 349 l 664 57 l 761 -49 l 628 -167 m 913 954 l 683 844 l 692 950 l 490 846 l 283 954 l 135 824 l 296 606 l 178 618 l 168 599 l 390 435 l 428 475 l 321 722 l 414 813 l 485 774 l 443 294 l 635 294 l 676 772 l 756 813 l 833 722 l 685 475 l 714 435 l 965 599 l 958 618 l 839 606 l 1038 824 l 913 954 m 690 -46 l 613 40 l 632 269 l 440 269 l 424 97 q 315 21 424 51 l 315 1 q 503 -17 417 0 q 665 -68 590 -33 l 690 -46 z "},"u":{"ha":826,"x_min":-15,"x_max":915,"o":"m 431 364 q 392 275 410 313 q 360 210 375 238 q 338 176 353 196 q 324 138 324 156 q 351 113 324 121 q 411 106 378 106 l 431 364 m 800 790 l 746 158 l 782 158 q 782 113 782 131 q 783 85 782 96 q 785 66 783 74 q 790 51 788 58 q 569 -77 690 -31 q 283 -124 449 -124 q 169 -116 224 -124 q 74 -87 115 -108 q 9 -30 33 -67 q -15 65 -15 7 q -6 129 -15 100 q 19 185 4 158 q 51 240 33 213 q 83 297 68 267 q 124 394 106 343 q 156 497 143 444 q 175 602 168 550 q 182 701 182 654 q 163 783 182 750 q 107 822 144 815 l 119 947 l 163 997 l 457 963 q 475 935 467 947 q 489 908 483 924 l 582 993 l 915 961 l 915 861 l 800 790 m 861 894 l 863 915 l 597 943 l 571 922 l 497 85 q 460 63 486 71 q 406 56 435 56 q 361 60 385 56 q 317 76 338 65 q 285 101 297 86 q 272 138 272 117 q 285 183 272 156 q 316 245 297 211 q 356 319 335 279 q 396 403 378 358 l 226 471 q 176 342 203 404 q 118 235 150 279 q 76 111 76 176 q 100 33 76 61 q 161 -10 124 4 q 243 -29 199 -25 q 329 -33 288 -33 q 456 -24 394 -33 q 571 1 518 -14 q 665 35 624 17 q 733 72 707 54 q 732 81 732 75 q 732 108 732 88 l 722 108 q 693 131 708 115 l 754 833 q 768 850 757 844 l 861 894 m 406 428 q 456 598 438 515 q 475 751 475 681 q 465 842 475 801 q 431 915 454 883 l 207 943 l 203 903 q 256 855 239 896 q 272 747 272 814 q 263 628 272 692 q 232 497 253 564 l 406 428 z "},"v":{"ha":896,"x_min":26,"x_max":908,"o":"m 568 572 q 501 788 568 689 q 533 638 518 717 q 563 471 549 558 q 567 507 565 485 q 568 572 568 529 m 26 914 l 68 956 l 67 964 q 295 983 193 964 q 481 1042 397 1001 l 568 967 l 539 931 l 856 1040 q 894 915 881 974 q 908 796 908 856 q 885 589 908 694 q 822 377 861 483 q 734 166 783 271 q 635 -39 685 61 l 533 -121 l 208 -89 l 192 -1 q 229 34 214 21 q 255 56 244 47 q 272 68 265 64 q 283 75 278 72 q 234 461 265 290 q 156 763 203 632 q 46 811 153 782 l 26 914 m 561 128 q 428 874 508 575 l 499 960 l 472 982 q 126 914 335 914 l 131 893 q 247 817 240 863 q 379 81 346 546 l 379 79 q 289 19 379 68 l 293 -1 l 567 -29 l 596 -8 q 745 320 686 172 q 833 596 804 468 l 660 560 q 561 128 647 382 m 839 624 q 860 796 860 717 q 851 894 860 849 q 826 978 842 939 l 569 889 q 637 773 614 844 q 660 588 660 701 l 839 624 z "},"w":{"ha":1208,"x_min":-24,"x_max":1310,"o":"m 818 261 l 829 374 q 780 260 807 315 q 724 156 753 206 q 718 138 718 146 q 745 113 718 121 q 806 106 772 106 l 818 261 m 561 674 q 533 778 561 742 q 517 635 533 711 q 474 480 501 558 q 410 324 446 401 q 333 176 374 247 q 322 158 328 167 q 315 135 315 149 q 336 113 315 119 q 382 106 357 107 q 398 163 388 135 q 428 215 408 190 q 482 312 457 256 q 524 431 507 368 q 551 556 542 493 q 561 674 561 619 m 832 963 q 874 885 857 928 l 976 993 l 1310 961 l 1310 861 l 1194 790 l 1144 238 l 1140 158 l 1176 158 l 1183 53 q 1074 -18 1133 14 q 949 -74 1014 -50 q 816 -110 885 -97 q 681 -124 747 -124 q 481 -96 581 -124 q 379 -115 432 -108 q 268 -122 326 -122 q 158 -115 211 -122 q 65 -86 106 -107 q 1 -28 25 -65 q -24 65 -24 8 q -10 143 -24 103 q 28 217 3 183 l 26 215 q 86 322 57 260 q 138 451 115 383 q 173 585 160 518 q 186 707 186 653 q 170 776 186 749 q 117 811 154 803 l 131 947 l 172 997 l 468 963 q 490 925 478 949 l 536 997 l 832 963 m 1099 261 l 906 261 l 892 85 q 855 63 881 71 q 800 56 829 56 q 752 61 776 56 q 709 77 728 67 q 678 103 690 88 q 667 140 667 119 q 670 160 667 151 q 681 181 674 169 q 749 316 717 244 q 804 459 781 388 q 842 601 828 531 q 856 732 856 671 q 844 834 856 788 q 806 915 832 881 l 581 943 l 576 893 q 635 838 618 885 q 653 719 653 790 q 642 596 653 663 q 613 463 632 529 q 568 338 594 397 q 511 235 542 278 q 481 174 490 206 q 471 114 471 143 l 471 97 q 474 81 471 92 q 440 63 463 69 q 390 56 417 56 q 344 60 367 56 q 304 75 322 65 q 275 100 286 85 q 264 135 264 115 q 278 181 264 154 q 355 328 318 251 q 420 481 392 404 q 466 633 449 558 q 483 772 483 707 q 442 915 483 858 l 217 943 l 211 893 q 263 849 247 886 q 278 753 278 813 q 264 625 278 696 q 226 483 250 554 q 172 346 203 411 q 110 235 142 281 q 68 110 68 176 q 92 32 68 60 q 151 -10 115 4 q 231 -28 188 -25 q 314 -32 274 -32 q 425 -24 372 -32 q 528 -1 478 -15 q 625 -26 575 -18 q 726 -33 675 -33 q 851 -24 790 -33 q 966 1 913 -14 q 1061 35 1019 17 q 1128 72 1103 54 q 1126 81 1126 75 q 1126 108 1126 88 q 1104 117 1113 111 q 1088 131 1096 122 l 1099 261 m 1256 894 l 1257 915 l 990 943 l 965 922 l 908 288 l 1100 288 l 1149 833 q 1163 850 1151 844 l 1256 894 z "},"x":{"ha":842,"x_min":-35,"x_max":932,"o":"m 599 993 l 932 961 l 926 861 q 858 824 885 843 q 817 792 831 804 l 800 600 l 838 600 l 838 489 l 811 468 q 844 408 833 438 q 856 343 856 379 q 843 272 856 307 q 812 206 831 238 q 772 149 793 175 q 731 101 750 122 q 721 83 721 92 q 735 69 721 71 q 768 65 750 68 l 764 -76 l 714 -118 l 440 -83 q 397 -70 414 -81 q 368 -50 379 -60 l 293 -112 l -35 -79 l -35 13 l 78 93 l 94 254 l 56 254 l 56 358 l 85 388 q 49 446 60 419 q 39 508 39 472 q 53 584 39 547 q 93 658 68 621 q 150 735 118 696 q 218 815 182 774 q 201 819 211 818 q 181 821 192 821 q 156 819 169 821 q 129 815 143 818 l 133 949 l 175 999 l 463 964 q 519 922 499 947 l 599 993 m 60 29 l 58 8 l 325 -19 l 351 1 l 383 369 q 421 391 396 383 q 475 399 446 399 q 522 394 499 399 q 565 378 546 389 q 595 353 583 368 q 607 317 607 338 q 579 255 607 289 q 519 186 551 221 q 458 119 486 151 q 431 60 431 86 q 444 30 431 43 q 490 8 458 17 l 715 -19 l 717 19 q 642 28 665 25 q 619 43 619 32 q 658 97 619 58 q 764 219 697 135 q 796 280 786 247 q 806 343 806 313 q 776 429 806 392 q 596 458 753 458 q 708 479 672 471 q 758 494 743 488 q 775 504 772 500 q 789 514 778 508 l 789 551 q 765 559 774 554 q 749 574 756 564 l 758 681 l 567 681 l 553 528 q 515 506 540 513 q 461 499 489 499 q 414 503 438 499 q 372 519 390 508 q 341 544 353 529 q 329 579 329 560 q 342 622 329 599 q 396 709 369 671 q 443 776 422 747 q 476 828 464 806 q 489 867 489 850 q 447 915 489 893 l 224 943 l 222 903 q 295 892 272 899 q 318 871 318 885 q 278 806 318 849 q 172 678 239 764 q 140 617 150 650 q 131 554 131 583 q 138 506 131 528 q 167 463 146 485 q 224 438 182 446 q 349 429 267 429 q 147 382 171 401 l 147 346 l 158 346 q 172 337 165 343 q 188 324 179 331 l 167 90 q 154 74 164 79 l 60 29 m 588 922 l 568 707 l 760 707 l 772 833 q 879 894 775 846 l 881 915 l 614 943 l 588 922 m 483 749 q 440 686 465 721 q 388 601 414 651 q 379 579 379 586 q 406 556 379 564 q 467 549 432 549 l 483 749 m 426 307 l 414 150 l 425 163 q 492 233 456 197 l 515 272 q 488 299 515 290 q 429 307 460 307 l 426 307 z "},"y":{"ha":836,"x_min":-22,"x_max":931,"o":"m 439 247 q 415 215 431 232 q 383 181 400 197 q 353 150 367 165 q 336 124 340 135 q 426 111 349 111 l 439 247 m 374 540 q 401 505 374 518 q 460 489 428 492 l 481 725 q 404 615 435 658 q 374 540 374 572 m 815 790 l 761 167 l 799 167 l 799 57 q 692 -13 750 18 q 569 -67 633 -44 q 435 -103 504 -90 q 299 -115 367 -115 q 194 -108 250 -115 q 90 -83 139 -101 q 10 -31 42 -64 q -22 56 -22 3 q 8 148 -22 108 q 75 226 38 188 l 81 343 q 36 468 36 392 q 57 570 36 528 q 106 649 78 613 q 164 720 135 685 q 210 804 193 756 l 208 804 q 185 808 206 804 q 125 818 164 813 l 133 947 l 175 997 l 461 964 q 501 949 485 961 q 519 924 517 936 l 599 993 l 931 961 l 931 861 l 815 790 m 878 894 l 879 915 l 613 943 l 586 922 l 546 464 q 516 446 535 451 q 475 440 497 440 q 424 447 450 440 q 375 467 397 454 q 338 498 353 479 q 324 540 324 517 q 333 577 324 557 q 354 614 342 597 l 194 678 l 182 660 q 142 588 156 622 q 128 514 128 554 q 151 438 128 465 q 213 395 175 410 q 296 376 250 381 q 388 372 342 372 q 465 376 426 372 q 539 386 504 381 l 513 94 q 471 69 499 76 q 411 61 443 61 q 329 75 368 61 q 285 117 290 89 l 285 119 q 303 165 285 142 q 344 212 322 189 q 384 256 365 235 q 403 297 403 278 q 396 321 403 310 l 171 354 l 168 313 q 205 303 194 310 q 215 289 215 297 q 198 259 215 276 q 158 224 181 242 q 113 189 135 207 q 85 157 92 171 q 69 101 69 128 q 97 37 69 61 q 167 -1 125 13 q 257 -18 208 -14 q 346 -22 306 -22 q 473 -12 411 -22 q 588 12 535 -3 q 683 44 642 26 q 750 81 725 63 l 750 118 l 739 118 q 708 140 725 122 l 771 833 q 783 850 772 843 l 878 894 m 368 636 q 459 785 426 732 q 492 865 492 839 q 482 897 492 882 q 446 915 472 913 l 222 943 l 219 901 q 282 881 263 893 q 301 850 301 869 q 276 791 301 828 q 210 700 251 754 l 368 636 z "},"z":{"ha":903,"x_min":-6,"x_max":960,"o":"m 960 965 l 951 857 l 903 815 l 824 794 l 858 614 l 807 571 q 610 484 693 525 q 474 403 528 443 q 393 323 419 364 q 367 236 367 282 q 378 180 367 204 q 406 142 389 156 l 671 401 l 878 401 l 838 -47 l 789 -89 l 668 -89 l 631 122 l 396 -92 l 58 -92 q 9 22 24 -29 q -6 119 -6 74 q 43 303 -6 222 q 167 447 92 383 q 335 559 243 511 q 513 643 426 607 q 482 705 500 681 q 442 744 464 729 q 395 764 419 758 q 344 772 371 769 l 290 601 l 242 560 l 129 560 l 129 915 l 151 965 l 960 965 m 204 915 l 204 651 l 254 651 l 324 863 l 374 863 q 447 853 410 863 q 516 819 483 844 q 576 748 549 793 q 622 632 604 703 q 372 525 472 578 q 210 418 271 472 q 121 306 149 364 q 89 183 93 247 l 317 229 l 317 236 q 342 338 317 288 q 425 438 368 388 q 575 538 482 488 q 801 643 668 589 l 772 814 l 775 863 l 904 897 l 906 915 l 204 915 m 88 157 q 132 0 89 79 l 424 0 l 688 244 l 707 250 l 751 3 l 793 3 l 824 351 l 690 351 l 404 72 q 321 204 335 133 l 88 157 z "},"":{"ha":568,"x_min":-40,"x_max":535,"o":"m 513 456 l 451 385 l 411 -79 q 510 -115 411 -83 l 503 -222 l 453 -264 q 33 -337 213 -264 l -40 -260 l 75 -143 l 119 347 l 61 417 l 86 694 l 128 743 l 336 840 l 535 739 l 522 590 l 513 456 m 361 -75 l 382 165 l 190 165 l 164 -131 l 71 -217 l 92 -239 q 456 -172 250 -172 l 457 -150 q 361 -79 361 -119 l 361 -75 m 164 579 l 315 500 l 471 576 l 483 710 l 336 786 l 175 710 l 164 579 m 468 513 l 310 447 l 157 511 l 154 478 l 197 432 l 211 403 l 193 192 l 385 192 l 403 400 l 422 435 l 465 478 l 468 513 z "},"":{"ha":578,"x_min":-3,"x_max":543,"o":"m 543 1149 l 524 922 l 474 881 l -3 881 l 17 1099 l 58 1149 l 543 1149 m 332 971 l 478 971 l 489 1099 l 343 1099 l 332 971 m 104 1099 l 93 971 l 233 971 l 246 1099 l 104 1099 z "},"":{"ha":993,"x_min":65,"x_max":717,"o":"m 465 690 l 572 835 l 717 719 l 708 617 l 638 475 l 710 265 l 649 146 l 508 47 l 439 158 l 272 7 l 93 297 l 65 426 l 336 794 l 465 690 m 292 406 l 319 460 l 151 469 l 110 417 l 275 117 l 385 211 l 292 406 m 529 447 l 357 458 l 511 157 l 621 251 l 529 447 m 367 482 l 540 471 l 660 703 l 585 772 l 367 482 m 171 496 l 332 485 l 424 663 l 349 732 l 171 496 z "},"":{"ha":568,"x_min":31,"x_max":546,"o":"m 483 1057 l 546 965 l 493 924 l 46 924 l 31 1006 l 71 1054 l 447 1203 l 517 1083 l 483 1057 m 403 1093 l 444 1108 l 425 1140 l 108 1014 l 454 1014 l 403 1093 z "},"":{"ha":431,"x_min":-11,"x_max":379,"o":"m 250 10 l 379 -126 l 369 -203 l 111 -386 l -11 -249 l 90 -151 l 75 -132 l 75 47 l 117 97 l 250 97 l 250 10 m 201 -10 l 201 47 l 165 47 l 165 -68 l 263 -182 l 221 -210 l 167 -153 l 99 -207 l 164 -281 l 322 -175 l 326 -142 l 201 -10 z "},"":{"ha":1017,"x_min":60,"x_max":729,"o":"m 65 86 l 60 193 l 144 367 l 72 576 l 133 696 l 274 794 l 356 656 l 397 738 l 543 847 l 729 468 l 719 369 l 483 39 l 328 150 l 219 -3 l 65 86 m 435 469 l 229 493 l 250 451 l 115 193 l 193 125 l 435 469 m 508 483 l 681 467 l 531 782 l 421 688 l 508 483 m 664 442 l 497 461 l 382 236 l 457 167 l 664 442 m 157 646 l 217 519 l 418 494 l 267 740 l 157 646 z "},"":{"ha":890,"x_min":-6,"x_max":825,"o":"m 742 686 q 779 522 763 626 l 800 526 q 793 460 796 494 q 782 390 790 426 q 756 313 774 353 q 704 229 739 272 q 584 102 651 161 q 436 -4 517 43 q 465 -72 446 -46 q 507 -114 483 -99 q 557 -136 531 -129 q 610 -144 583 -143 l 664 17 l 707 67 l 825 67 l 825 -296 l 794 -337 l -6 -337 l 3 -237 l 44 -187 l 128 -165 l 97 7 l 140 54 q 218 93 171 69 q 310 147 265 117 q 386 215 354 178 q 418 293 418 251 q 401 349 418 304 l 422 369 q 378 517 407 446 q 293 668 349 588 l 332 718 l 696 718 l 742 686 m 90 -247 l 793 -247 l 793 17 l 742 17 l 672 -194 l 622 -194 q 547 -187 585 -194 q 474 -156 508 -181 q 413 -87 440 -132 q 374 36 386 -42 q 510 113 457 76 q 603 188 564 149 l 474 236 q 374 133 440 186 q 194 25 308 79 l 225 -144 l 221 -194 l 92 -229 l 90 -247 m 622 207 q 675 275 656 240 q 706 343 694 310 q 724 408 718 376 q 733 467 729 439 q 618 435 682 460 q 503 378 554 411 q 510 339 510 357 q 489 258 510 306 l 622 207 m 425 668 q 473 578 456 624 q 501 476 490 532 l 564 508 q 646 544 606 529 q 714 558 686 558 q 719 558 717 558 q 725 557 722 557 q 694 668 717 613 l 425 668 z "},"":{"ha":1315,"x_min":-54,"x_max":1390,"o":"m 732 1203 l 1108 1054 q 1092 969 1097 1003 q 1084 912 1086 935 q 1081 876 1082 889 q 1081 854 1081 863 q 1086 708 1081 783 q 1107 549 1092 633 q 1206 214 1135 385 q 1390 -146 1276 43 l 1336 -185 l 1132 -132 l 1096 -169 l 744 -129 l 690 -167 q 293 -90 550 -92 l 304 -54 l 128 -54 l 165 103 l 299 343 l -39 407 l -54 501 l 318 724 l 288 622 l 678 676 q 691 726 685 701 q 704 776 697 750 l 621 828 l 646 913 l 657 924 l 594 924 l 663 1024 l 624 1039 l 732 1203 m 633 489 l 624 508 l 321 483 l 319 465 l 419 444 q 428 436 428 442 q 426 431 428 432 l 267 185 q 264 179 264 179 q 561 143 264 143 l 549 119 q 533 90 540 103 q 510 65 525 76 q 472 42 496 53 q 407 21 447 31 l 401 1 q 733 -68 607 0 l 765 -46 l 710 40 q 734 91 722 65 q 757 142 746 117 l 979 142 q 938 250 954 192 q 915 379 922 308 l 889 379 l 879 260 q 776 192 874 192 q 932 778 878 443 q 940 651 935 711 q 950 533 944 592 l 1054 563 q 1037 706 1043 633 q 1031 854 1031 779 q 1031 899 1031 886 q 1032 922 1031 913 l 1006 943 l 726 915 l 719 894 l 794 850 q 801 839 801 846 q 799 833 801 839 q 698 476 751 635 q 585 192 644 318 l 467 192 q 439 207 439 192 q 446 228 439 214 l 633 489 m 953 507 q 997 276 971 378 q 1060 96 1024 175 l 1060 92 q 983 64 1060 64 q 928 67 960 64 q 860 75 897 69 l 840 50 l 1283 -67 q 1058 536 1113 213 l 953 507 m 279 447 l 235 504 l 661 543 l 689 626 l 218 563 l 236 624 l 42 522 l 47 490 l 279 447 m 754 1140 l 735 1108 l 776 1093 l 725 1014 l 1071 1014 l 754 1140 m 824 -54 l 1071 -76 l 774 35 l 824 -54 m 338 35 l 494 110 l 247 110 l 232 43 l 338 35 m 501 238 l 558 240 l 649 456 l 501 238 z "},"":{"ha":1315,"x_min":-54,"x_max":1390,"o":"m 1081 924 l 1081 854 q 1086 708 1081 783 q 1107 549 1092 633 q 1206 214 1135 385 q 1390 -146 1276 43 l 1336 -185 l 1132 -132 l 1096 -169 l 753 -143 l 744 -129 l 690 -167 q 293 -90 550 -92 l 304 -54 l 128 -54 l 181 161 l 299 343 l -39 407 l -54 501 l -12 550 l 318 724 l 288 622 l 678 676 q 691 726 685 701 q 704 776 697 750 l 621 828 l 646 913 l 672 939 l 660 1006 l 700 1054 l 1078 1203 l 1146 1083 l 1113 1057 l 1175 965 l 1124 924 l 1081 924 m 633 489 l 613 508 l 321 483 l 319 465 l 419 444 q 428 436 428 442 q 426 431 428 432 l 267 185 q 264 179 264 179 q 561 143 264 143 l 549 119 q 533 90 540 103 q 510 65 525 76 q 472 42 496 53 q 407 21 447 31 l 401 1 q 733 -68 607 0 l 765 -46 l 710 40 q 734 91 722 65 q 757 142 746 117 l 979 142 q 938 250 954 192 q 915 379 922 308 l 889 379 l 879 260 q 776 192 874 192 q 932 778 878 443 q 940 651 935 711 q 950 533 944 592 l 1054 563 q 1037 706 1043 633 q 1031 854 1031 779 l 1031 886 q 1031 903 1031 894 q 1032 922 1031 913 l 1006 943 l 726 915 l 719 894 l 794 850 q 801 839 801 846 q 799 833 801 839 q 698 476 751 635 q 585 192 644 318 l 467 192 q 439 207 439 192 q 446 228 439 214 l 633 489 m 953 507 q 997 276 971 378 q 1060 96 1024 175 l 1060 92 q 983 64 1060 64 q 928 67 960 64 q 860 75 897 69 l 840 50 l 1283 -67 q 1058 536 1113 213 l 953 507 m 279 447 l 235 504 l 661 543 l 689 626 l 218 563 l 236 624 l 42 522 l 47 490 l 279 447 m 1083 1014 l 1032 1093 l 1074 1108 l 1056 1140 l 738 1014 l 1083 1014 m 824 -54 l 1135 -76 l 774 35 l 824 -54 m 338 35 l 494 110 l 247 110 l 232 43 l 338 35 m 501 238 l 558 240 l 649 456 l 501 238 z "},"":{"ha":1315,"x_min":-54,"x_max":1390,"o":"m 1081 894 l 1081 854 q 1086 708 1081 783 q 1107 549 1092 633 q 1206 214 1135 385 q 1390 -146 1276 43 l 1336 -185 l 1132 -132 l 1096 -169 l 753 -143 l 744 -129 l 690 -167 q 293 -90 550 -92 l 304 -54 l 128 -54 l 181 161 l 299 343 l -39 407 l -54 501 l -12 550 l 318 724 l 288 622 l 678 676 l 704 776 l 621 828 l 640 894 l 486 894 l 515 936 l 888 1164 l 1256 936 l 1194 894 l 1081 894 m 633 489 l 613 508 l 321 483 l 319 465 l 419 444 q 428 436 428 442 q 426 431 428 432 l 267 185 q 264 179 264 179 q 561 143 264 143 l 549 119 q 533 90 540 103 q 510 65 525 76 q 472 42 496 53 q 407 21 447 31 l 401 1 q 733 -68 607 0 l 765 -46 l 710 40 q 734 91 722 65 q 757 142 746 117 l 979 142 q 938 250 954 192 q 915 379 922 308 l 889 379 l 879 260 q 776 192 874 192 q 932 778 878 443 q 940 651 935 711 q 950 533 944 592 l 1054 563 q 1037 706 1043 633 q 1031 854 1031 779 q 1031 899 1031 886 q 1032 922 1031 913 l 1006 943 l 726 915 l 719 894 l 794 850 q 801 839 801 846 q 799 833 801 839 q 698 476 751 635 q 585 192 644 318 l 467 192 q 439 207 439 192 q 446 228 439 214 l 633 489 m 953 507 q 997 276 971 378 q 1060 96 1024 175 l 1060 92 q 983 64 1060 64 q 928 67 960 64 q 860 75 897 69 l 840 50 l 1283 -67 q 1058 536 1113 213 l 953 507 m 279 447 l 235 504 l 661 543 l 689 626 l 218 563 l 236 624 l 42 522 l 47 490 l 279 447 m 1081 986 l 888 1104 l 693 986 l 1081 986 m 824 -54 l 1135 -76 l 774 35 l 824 -54 m 338 35 l 494 110 l 247 110 l 232 43 l 338 35 m 501 238 l 558 240 l 649 456 l 501 238 z "},"":{"ha":1315,"x_min":-54,"x_max":1390,"o":"m 621 947 l 840 1167 l 950 1107 l 1076 1182 l 1136 1111 l 1028 986 l 1082 944 q 1081 898 1081 925 q 1081 854 1081 871 q 1101 591 1081 718 q 1162 341 1122 464 q 1259 97 1201 218 q 1390 -146 1317 -24 l 1336 -185 l 1132 -132 l 1096 -169 l 744 -129 l 690 -167 q 293 -90 550 -92 l 304 -54 l 128 -54 l 172 133 q 175 149 172 142 q 190 175 178 156 q 227 233 201 194 q 299 343 253 271 l -39 407 l -54 501 l -12 550 l 318 724 l 288 622 l 678 676 q 691 726 685 701 q 704 776 697 750 l 621 828 l 646 911 l 621 947 m 633 489 l 613 508 l 321 483 l 319 465 l 419 444 q 428 436 428 442 q 426 431 428 432 l 267 185 q 264 179 264 179 q 561 143 264 143 l 549 119 q 533 90 540 103 q 510 65 525 76 q 472 42 496 53 q 407 21 447 31 l 401 1 q 733 -68 607 0 l 765 -46 l 710 40 q 734 91 722 65 q 757 142 746 117 l 979 142 q 938 250 954 192 q 915 379 922 308 l 889 379 l 879 260 q 776 192 874 192 q 932 778 878 443 q 940 651 935 711 q 950 533 944 592 l 1054 563 q 1037 706 1043 633 q 1031 854 1031 779 l 1031 886 q 1031 903 1031 894 q 1032 922 1031 913 l 1006 943 l 726 915 l 719 894 l 794 850 q 801 839 801 846 q 799 833 801 839 q 698 476 751 635 q 585 192 644 318 l 467 192 q 439 207 439 192 q 446 228 439 214 l 633 489 m 953 507 q 997 276 971 378 q 1060 96 1024 175 l 1060 92 q 983 64 1060 64 q 928 67 960 64 q 860 75 897 69 l 840 50 l 1283 -67 q 1058 536 1113 213 l 953 507 m 279 447 l 235 504 l 661 543 l 689 626 l 218 563 l 236 624 l 42 522 l 47 490 l 279 447 m 950 1051 l 847 1106 l 708 969 l 853 1043 l 954 976 l 1085 1129 l 950 1051 m 824 -54 l 1085 -76 l 774 35 l 824 -54 m 338 35 l 494 110 l 247 110 l 232 43 l 338 35 m 501 238 l 558 240 l 649 456 l 501 238 z "},"":{"ha":1315,"x_min":-54,"x_max":1390,"o":"m 624 1099 l 665 1149 l 1149 1149 l 1129 922 l 1081 881 q 1096 628 1081 751 q 1148 382 1111 506 q 1244 128 1185 258 q 1390 -146 1303 -1 l 1336 -185 l 1132 -132 l 1096 -169 l 744 -129 l 690 -167 q 293 -90 550 -92 l 304 -54 l 128 -54 l 181 161 l 299 343 l -39 407 l -54 501 l -12 550 l 318 724 l 288 622 l 678 676 q 691 726 685 701 q 704 776 697 750 l 621 828 l 603 881 l 624 1099 m 633 489 l 603 508 l 321 483 l 319 465 l 419 444 q 428 436 428 442 q 426 431 428 432 l 267 185 q 264 179 264 179 q 561 143 264 143 l 549 119 q 533 90 540 103 q 510 65 525 76 q 472 42 496 53 q 407 21 447 31 l 401 1 q 733 -68 607 0 l 765 -46 l 710 40 q 734 91 722 65 q 757 142 746 117 l 979 142 q 938 250 954 192 q 915 379 922 308 l 889 379 l 879 260 q 776 192 874 192 q 932 778 878 443 q 940 651 935 711 q 950 533 944 592 l 1054 563 q 1037 706 1043 633 q 1031 854 1031 779 q 1031 899 1031 886 q 1032 922 1031 913 l 1006 943 l 726 915 l 719 894 l 794 850 q 801 839 801 846 q 799 833 801 839 q 698 476 751 635 q 585 192 644 318 l 467 192 q 439 207 439 192 q 446 228 439 214 l 633 489 m 953 507 q 997 276 971 378 q 1060 96 1024 175 l 1060 92 q 983 64 1060 64 q 928 67 960 64 q 860 75 897 69 l 840 50 l 1283 -67 q 1058 536 1113 213 l 953 507 m 279 447 l 235 504 l 661 543 l 689 626 l 218 563 l 236 624 l 42 522 l 47 490 l 279 447 m 950 1099 l 938 971 l 1083 971 l 1096 1099 l 950 1099 m 851 1099 l 710 1099 l 699 971 l 840 971 l 851 1099 m 824 -54 l 1135 -76 l 774 35 l 824 -54 m 338 35 l 494 110 l 247 110 l 232 43 l 338 35 m 501 238 l 558 240 l 649 456 l 501 238 z "},"":{"ha":1315,"x_min":-54,"x_max":1390,"o":"m -54 501 l -12 550 l 318 724 l 288 622 l 678 676 q 691 726 685 701 q 704 776 697 750 l 621 828 l 646 913 l 672 939 q 657 1014 657 972 q 677 1099 657 1056 q 731 1176 697 1142 q 806 1232 764 1210 q 893 1254 849 1254 q 969 1239 933 1254 q 1031 1197 1004 1224 q 1072 1135 1057 1171 q 1088 1060 1088 1100 q 1060 961 1088 1006 l 1082 944 q 1081 898 1081 925 q 1081 854 1081 871 q 1097 622 1081 739 q 1150 381 1114 504 q 1245 126 1186 257 q 1390 -146 1304 -4 l 1336 -185 l 1132 -132 l 1096 -169 l 744 -129 l 690 -167 q 293 -90 550 -92 l 304 -54 l 128 -54 l 181 161 l 299 343 l -39 407 l -54 501 m 749 1060 q 773 979 749 1014 q 839 925 797 944 l 726 915 l 719 894 l 794 850 q 801 839 801 846 q 799 833 801 839 q 698 476 751 635 q 585 192 644 318 l 467 192 q 439 207 439 192 q 446 228 439 214 l 633 489 l 613 508 l 321 483 l 319 465 l 419 444 q 428 436 428 442 q 426 431 428 432 l 267 185 q 264 179 264 179 q 561 143 264 143 l 549 119 q 533 90 540 103 q 510 65 525 76 q 472 42 496 53 q 407 21 447 31 l 401 1 q 733 -68 607 0 l 765 -46 l 710 40 q 734 91 722 65 q 757 142 746 117 l 979 142 q 938 250 954 192 q 915 379 922 308 l 889 379 l 879 260 q 776 192 874 192 q 932 778 878 443 q 940 651 935 711 q 950 533 944 592 l 1054 563 q 1037 706 1043 633 q 1031 854 1031 779 q 1031 899 1031 886 q 1032 922 1031 913 l 1006 943 l 971 939 q 1019 991 1001 961 q 1038 1060 1038 1021 q 1026 1115 1038 1089 q 995 1162 1015 1142 q 949 1194 975 1182 q 893 1206 922 1206 q 838 1194 864 1206 q 791 1162 811 1182 q 760 1115 771 1142 q 749 1060 749 1089 m 953 507 q 997 276 971 378 q 1060 96 1024 175 l 1060 92 q 983 64 1060 64 q 928 67 960 64 q 860 75 897 69 l 840 50 l 1283 -67 q 1058 536 1113 213 l 953 507 m 279 447 l 235 504 l 661 543 l 689 626 l 218 563 l 236 624 l 42 522 l 47 490 l 279 447 m 815 1061 q 838 1119 815 1096 q 893 1142 860 1142 q 950 1119 928 1142 q 972 1061 972 1096 q 950 1006 972 1028 q 893 983 928 983 q 838 1006 860 983 q 815 1061 815 1028 m 824 -54 l 1135 -76 l 774 35 l 824 -54 m 338 35 l 494 110 l 247 110 l 232 43 l 338 35 m 501 238 l 558 240 l 649 456 l 501 238 z "},"":{"ha":1924,"x_min":-54,"x_max":1903,"o":"m 1101 576 l 1164 632 l 1097 608 l 1101 576 m 1096 -169 l 753 -143 l 744 -129 l 690 -167 q 293 -90 550 -92 l 304 -54 l 128 -54 l 165 103 l 178 115 q 172 133 172 121 q 175 149 172 142 q 190 175 178 156 q 227 233 201 194 q 299 343 253 271 l -39 407 l -54 501 l -12 550 l 318 724 l 288 622 l 678 676 l 704 776 l 621 828 l 646 913 l 689 963 l 1019 993 l 1082 944 q 1081 898 1081 925 q 1081 854 1081 871 q 1081 805 1081 829 q 1082 754 1081 781 l 1396 990 l 1436 953 l 1478 1004 l 1832 1033 l 1903 974 l 1714 692 l 1733 692 l 1722 569 l 1672 528 q 1552 532 1604 528 q 1463 543 1500 536 l 1686 429 l 1631 383 l 1371 264 l 1388 257 l 1868 464 l 1842 167 l 1793 124 l 1311 -93 q 1133 -18 1207 -54 q 1013 56 1058 18 l 1007 51 l 889 51 l 1163 -33 l 1146 -128 l 1096 -169 m 613 508 l 321 483 l 319 465 l 419 444 q 428 436 428 442 q 426 431 428 432 l 267 185 q 264 179 264 179 q 561 143 264 143 l 549 119 q 533 90 540 103 q 510 65 525 76 q 472 42 496 53 q 407 21 447 31 l 401 1 q 733 -68 607 0 l 765 -46 l 710 40 q 734 91 722 65 q 757 142 746 117 l 979 142 q 938 250 954 192 q 915 379 922 308 l 889 379 l 879 260 q 776 192 874 192 q 932 778 878 443 q 940 651 935 711 q 950 533 944 592 l 1054 563 q 1037 706 1043 633 q 1031 854 1031 779 l 1031 886 q 1031 903 1031 894 q 1032 922 1031 913 l 1006 943 l 726 915 l 719 894 l 794 850 q 801 839 801 846 q 799 833 801 839 q 698 476 751 635 q 585 192 644 318 l 467 192 q 439 207 439 192 q 446 228 439 214 l 633 489 l 613 508 m 1225 413 l 1314 371 l 1114 275 q 1086 385 1100 321 q 1058 536 1072 449 l 953 507 q 989 317 968 396 q 1040 189 1010 238 q 1147 96 1068 142 q 1356 3 1226 50 l 1796 200 l 1813 385 l 1389 204 l 1222 272 l 1572 432 l 1404 518 l 1225 413 m 1538 796 l 1404 925 l 1126 726 l 1140 701 l 1325 769 q 1337 772 1332 771 q 1346 772 1342 772 q 1363 765 1356 772 l 1363 764 q 1103 514 1363 743 q 1090 492 1090 503 q 1101 472 1090 483 l 1199 425 l 1378 532 l 1319 561 q 1306 576 1306 567 q 1317 593 1306 582 l 1538 796 m 1817 983 l 1525 958 l 1524 940 l 1624 919 q 1631 911 1631 917 q 1629 906 1631 907 l 1471 661 q 1467 651 1467 654 q 1676 619 1467 619 l 1679 642 l 1668 642 q 1640 658 1640 642 q 1646 678 1640 665 l 1838 965 l 1817 983 m 235 504 l 661 543 l 689 626 l 218 563 l 236 624 l 42 522 l 47 490 l 279 447 l 235 504 m 1135 -76 l 774 35 l 824 -54 l 1135 -76 m 494 110 l 247 110 l 232 43 l 338 35 l 494 110 m 558 240 l 649 456 l 501 238 l 558 240 z "},"":{"ha":1339,"x_min":-67,"x_max":1407,"o":"m 1078 -203 l 819 -386 l 697 -249 l 799 -151 l 783 -100 l 658 -144 l 503 143 l 383 143 l 347 88 l -14 35 l -67 107 l 99 381 q 97 395 97 388 q 96 413 96 403 q 96 438 96 424 q 107 468 96 453 l 303 765 l 217 783 l 224 881 l 265 929 l 619 960 l 689 899 l 583 751 l 901 990 l 942 953 l 983 1004 l 1338 1033 l 1407 974 l 1219 692 l 1239 692 l 1228 569 l 1178 528 q 886 585 926 528 q 846 548 854 557 q 838 533 838 539 l 999 242 l 1201 400 l 1297 257 l 976 -8 l 1088 -126 l 1078 -203 m 603 908 l 313 883 l 311 865 l 410 844 q 418 838 418 842 q 417 832 418 833 l 194 494 q 186 458 186 471 q 239 417 186 417 q 276 421 253 417 l 818 772 q 831 773 825 772 q 843 774 838 774 q 868 765 861 774 l 868 764 q 608 514 868 743 q 594 485 594 500 q 599 470 594 476 q 608 456 603 464 l 717 265 l 865 376 l 792 513 q 790 525 790 519 q 789 533 789 531 q 797 565 789 551 q 821 593 806 579 l 1042 796 l 899 925 l 463 599 l 450 599 q 431 613 431 599 q 436 629 431 619 l 624 890 l 603 908 m 1035 -142 l 910 -10 l 910 3 l 1231 267 l 1189 328 l 983 165 l 879 354 l 729 243 l 875 -7 l 875 -68 l 971 -182 l 929 -210 l 876 -153 l 808 -207 l 874 -281 l 1032 -175 l 1035 -142 m 489 397 l 726 -43 l 794 -18 l 513 476 l 165 256 l 142 333 l 33 154 l 51 131 l 269 163 l 199 210 l 489 397 m 1342 965 l 1321 983 l 1031 958 l 1029 940 l 1128 919 q 1136 911 1136 917 q 1135 906 1136 907 l 975 661 q 971 651 971 654 q 1182 619 971 619 l 1185 642 l 1172 642 q 1144 658 1144 642 q 1151 678 1144 661 l 1342 965 m 532 235 l 468 338 l 308 235 l 532 235 z "},"":{"ha":1247,"x_min":-25,"x_max":1290,"o":"m 257 331 l 258 326 l 393 415 q 390 421 392 418 q 389 426 389 424 l 257 331 m 1290 974 l 1101 692 l 1121 692 l 1110 569 l 1060 528 q 849 544 921 528 l 1075 429 l 1019 383 l 758 264 l 775 257 l 1256 464 l 1229 167 l 1181 124 l 697 -93 l 376 54 l 13 -10 l -25 76 l 104 267 l 115 325 l 111 325 q 13 413 13 325 q 15 440 13 424 q 25 468 17 456 l 221 765 l 135 783 l 142 881 l 183 929 l 481 954 l 528 1024 l 489 1039 l 597 1203 l 974 1054 l 967 1011 l 1219 1033 l 1290 974 m 229 883 l 228 865 l 328 844 q 336 838 336 842 q 335 832 336 833 l 113 494 q 105 474 106 483 q 104 458 104 465 q 157 417 104 417 q 194 421 171 417 l 713 769 q 724 772 719 771 q 733 772 729 772 q 750 764 743 772 q 490 514 750 743 q 478 492 478 503 q 489 472 478 483 l 596 421 l 775 525 l 707 561 q 704 565 704 564 q 925 796 704 596 l 800 914 l 381 599 l 368 599 q 349 613 349 599 q 354 629 349 619 l 542 890 l 521 908 l 229 883 m 622 407 l 701 371 l 490 271 q 425 189 425 236 q 461 126 425 156 l 743 3 l 1183 200 l 1200 385 l 776 204 l 610 272 l 960 432 l 803 511 l 622 407 m 1204 983 l 913 958 l 911 940 l 1011 919 q 1018 911 1018 917 q 1017 906 1018 907 l 858 661 q 854 651 854 654 q 1064 619 854 619 l 1067 642 l 1056 642 q 1028 658 1028 642 q 1033 678 1028 665 l 1225 965 l 1204 983 m 281 203 l 561 379 l 476 410 l 233 250 l 210 317 l 74 118 l 86 88 l 346 133 l 281 203 m 619 1140 l 600 1108 l 642 1093 l 590 1014 l 936 1014 l 619 1140 m 713 915 l 606 915 l 403 650 l 713 915 m 656 690 l 664 708 l 213 403 l 207 363 l 656 690 z "},"":{"ha":1247,"x_min":-25,"x_max":1290,"o":"m 257 331 l 258 326 l 393 415 q 390 421 392 418 q 389 426 389 424 l 257 331 m 1290 974 l 1101 692 l 1121 692 l 1110 569 l 1060 528 q 849 544 921 528 l 1075 429 l 1019 383 l 758 264 l 775 257 l 1256 464 l 1229 167 l 1181 124 l 697 -93 l 376 54 l 13 -10 l -25 76 l 104 267 l 115 325 l 111 325 q 13 413 13 325 q 13 438 13 424 q 25 468 14 453 l 221 765 l 135 783 l 142 881 l 183 929 l 539 957 l 531 1006 l 571 1054 l 947 1203 l 1017 1083 l 983 1057 l 1011 1015 l 1219 1033 l 1290 974 m 229 883 l 228 865 l 328 844 q 336 838 336 842 q 335 832 336 833 l 113 494 q 105 474 106 483 q 104 458 104 465 q 157 417 104 417 q 194 421 171 417 l 713 769 q 724 772 719 771 q 733 772 729 772 q 750 765 743 772 l 750 764 q 490 514 750 743 q 478 492 478 503 q 489 472 478 483 l 596 421 l 775 525 l 707 561 q 704 565 704 564 q 925 796 704 596 l 800 914 l 381 599 l 368 599 q 349 613 349 599 q 354 629 349 619 l 542 890 l 521 908 l 229 883 m 622 407 l 701 371 l 490 271 q 425 189 425 236 q 461 126 425 156 l 743 3 l 1183 200 l 1200 385 l 776 204 l 610 272 l 960 432 l 803 511 l 622 407 m 1204 983 l 913 958 l 911 940 l 1011 919 q 1018 911 1018 917 q 1017 906 1018 907 l 858 661 q 854 651 854 654 q 1064 619 854 619 l 1067 642 l 1056 642 q 1028 658 1028 642 q 1033 678 1028 665 l 1225 965 l 1204 983 m 281 203 l 561 379 l 476 410 l 233 250 l 210 317 l 74 118 l 86 88 l 346 133 l 281 203 m 954 1014 l 903 1093 l 944 1108 l 925 1140 l 608 1014 l 954 1014 m 713 915 l 608 915 l 403 650 l 713 915 m 656 690 l 664 708 l 213 403 l 207 363 l 656 690 z "},"":{"ha":1247,"x_min":-25,"x_max":1290,"o":"m 257 331 l 258 326 l 393 415 q 390 421 392 418 q 389 426 389 424 l 257 331 m 1290 974 l 1101 692 l 1121 692 l 1110 569 l 1060 528 q 849 544 921 528 l 1075 429 l 1019 383 l 758 264 l 775 257 l 1256 464 l 1229 167 l 1181 124 l 697 -93 l 376 54 l 13 -10 l -25 76 l 115 325 l 111 325 q 13 413 13 325 q 25 468 13 432 l 221 765 l 135 783 l 142 881 l 183 929 l 457 953 l 801 1164 l 1035 1018 l 1219 1033 l 1290 974 m 229 883 l 228 865 l 328 844 q 336 838 336 842 q 335 832 336 833 l 113 494 q 104 458 104 471 q 157 417 104 417 q 194 421 171 417 l 713 769 q 724 772 719 771 q 733 772 729 772 q 750 765 743 772 l 750 764 q 490 514 750 743 q 478 492 478 503 q 489 472 478 483 l 596 421 l 775 525 l 707 561 q 704 565 704 564 q 925 796 704 596 l 800 914 l 381 599 l 368 599 q 349 613 349 599 q 354 629 349 619 l 542 890 l 521 908 l 229 883 m 622 407 l 701 371 l 490 271 q 425 189 425 236 q 461 126 425 156 l 743 3 l 1183 200 l 1200 385 l 776 204 l 610 272 l 960 432 l 803 511 l 622 407 m 1204 983 l 913 958 l 911 940 l 1011 919 q 1018 911 1018 917 q 1017 906 1018 907 l 858 661 q 854 651 854 654 q 1064 619 854 619 l 1067 642 l 1056 642 q 1028 658 1028 642 q 1033 678 1028 665 l 1225 965 l 1204 983 m 281 203 l 561 379 l 476 410 l 233 250 l 210 317 l 74 118 l 86 88 l 346 133 l 281 203 m 993 986 l 801 1104 l 607 986 l 993 986 m 713 915 l 607 915 l 403 650 l 713 915 m 656 690 l 664 708 l 213 403 l 207 363 l 656 690 z "},"":{"ha":1247,"x_min":-25,"x_max":1290,"o":"m 257 331 l 258 326 l 393 415 q 390 421 392 418 q 389 426 389 424 l 257 331 m 1290 974 l 1101 692 l 1121 692 l 1110 569 l 1060 528 q 849 544 921 528 l 1075 429 l 1019 383 l 758 264 l 775 257 l 1256 464 l 1229 167 l 1181 124 l 697 -93 l 376 54 l 13 -10 l -25 76 l 104 267 l 115 325 l 111 325 q 13 413 13 325 q 25 468 13 432 l 221 765 l 135 783 l 142 881 l 183 929 l 519 958 l 533 1099 l 575 1149 l 1058 1149 l 1047 1019 l 1219 1033 l 1290 974 m 229 883 l 228 865 l 328 844 q 336 838 336 842 q 335 832 336 833 l 113 494 q 104 458 104 471 q 157 417 104 417 q 194 421 171 417 l 713 769 q 724 772 719 771 q 733 772 729 772 q 750 765 743 772 l 750 764 q 490 514 750 743 q 478 492 478 503 q 489 472 478 483 l 596 421 l 775 525 l 707 561 q 704 565 704 564 q 925 796 704 596 l 800 914 l 381 599 l 368 599 q 349 613 349 599 q 354 629 349 619 l 542 890 l 521 908 l 229 883 m 622 407 l 701 371 l 490 271 q 425 189 425 236 q 461 126 425 156 l 743 3 l 1183 200 l 1200 385 l 776 204 l 610 272 l 960 432 l 803 511 l 622 407 m 1204 983 l 913 958 l 911 940 l 1011 919 q 1018 911 1018 917 q 1017 906 1018 907 l 858 661 q 854 651 854 654 q 1064 619 854 619 l 1067 642 l 1056 642 q 1028 658 1028 642 q 1033 678 1028 665 l 1225 965 l 1204 983 m 281 203 l 561 379 l 476 410 l 233 250 l 210 317 l 74 118 l 86 88 l 346 133 l 281 203 m 860 1099 l 847 971 l 993 971 l 1006 1099 l 860 1099 m 761 1099 l 619 1099 l 608 971 l 750 971 l 761 1099 m 713 915 l 606 915 l 403 650 l 713 915 m 656 690 l 664 708 l 213 403 l 207 363 l 656 690 z "},"":{"ha":697,"x_min":-131,"x_max":707,"o":"m 619 1054 l 601 965 l 688 964 l 707 663 l 567 564 l 546 625 l 508 206 l 579 310 l 671 246 l 599 -50 l 550 -92 l 42 -92 l 22 206 l 69 256 l -131 343 l -122 433 l -81 482 l 139 564 l 81 564 l 58 625 l 172 1024 l 133 1039 l 242 1203 l 619 1054 m 301 581 l 242 88 l 207 88 l 182 101 l 135 238 l 115 226 l 131 0 l 560 0 l 615 225 l 599 236 l 528 100 l 499 86 l 449 86 l 492 581 l 301 581 m 304 607 l 494 607 l 513 828 l 564 828 l 592 814 l 638 678 l 657 689 l 642 914 l 211 914 l 157 690 l 174 679 l 246 815 l 274 829 l 325 829 l 304 607 m 149 404 l 256 404 l 260 457 l 154 457 l 197 533 l -33 446 l -36 418 l 179 324 l 149 404 m 264 1140 l 246 1108 l 288 1093 l 235 1014 l 581 1014 l 264 1140 m 286 786 l 263 786 l 200 656 l 274 656 l 286 786 z "},"":{"ha":697,"x_min":-131,"x_max":707,"o":"m 688 964 l 707 663 l 567 564 l 546 622 l 508 206 l 579 310 l 671 246 l 599 -50 l 550 -92 l 42 -92 l 22 206 l 69 256 l -131 343 l -122 433 l -81 482 l 139 564 l 58 625 l 131 915 l 169 954 l 161 1006 l 201 1054 l 578 1203 l 647 1083 l 614 1057 l 688 964 m 301 581 l 258 88 l 207 88 l 182 101 l 135 238 l 115 226 l 131 0 l 560 0 l 615 225 l 599 236 l 528 100 l 499 86 l 449 86 l 492 581 l 301 581 m 304 607 l 494 607 l 513 828 l 564 828 l 592 814 l 638 678 l 657 689 l 642 914 l 211 914 l 157 690 l 174 679 l 246 815 l 274 829 l 325 829 l 304 607 m 149 404 l 256 404 l 260 457 l 154 457 l 197 533 l -33 446 l -36 418 l 179 324 l 149 404 m 585 1014 l 533 1093 l 575 1108 l 556 1140 l 239 1014 l 585 1014 m 286 786 l 263 786 l 200 656 l 274 656 l 286 786 z "},"":{"ha":697,"x_min":-131,"x_max":794,"o":"m 732 894 l 692 894 l 707 663 l 567 564 l 546 622 l 508 206 l 579 310 l 671 246 l 599 -50 l 550 -92 l 42 -92 l 65 247 l 69 256 l -131 343 l -122 433 l -81 482 l 139 564 l 81 564 l 58 625 l 125 894 l 24 894 l 54 936 l 425 1164 l 794 936 l 732 894 m 301 581 l 258 88 l 207 88 l 182 101 l 135 238 l 115 226 l 131 0 l 560 0 l 615 225 l 599 236 l 528 100 l 499 86 l 449 86 l 492 581 l 301 581 m 304 607 l 494 607 l 513 828 l 564 828 l 592 814 l 638 678 l 657 689 l 642 914 l 211 914 l 157 690 l 174 679 l 246 815 l 274 829 l 325 829 l 304 607 m 149 404 l 256 404 l 260 457 l 154 457 l 197 533 l -33 446 l -36 418 l 179 324 l 149 404 m 618 986 l 425 1104 l 231 986 l 618 986 m 286 786 l 263 786 l 200 656 l 274 656 l 286 786 z "},"":{"ha":697,"x_min":-131,"x_max":707,"o":"m 665 964 l 688 964 l 707 663 l 567 564 l 546 625 l 508 206 l 579 310 l 671 246 l 599 -50 l 550 -92 l 42 -92 l 22 206 l 69 256 l -131 343 l -122 433 l -81 482 l 139 564 l 81 564 l 58 625 l 131 915 l 140 925 l 156 1099 l 197 1149 l 682 1149 l 665 964 m 301 581 l 258 88 l 207 88 l 182 101 l 135 238 l 115 226 l 131 0 l 560 0 l 615 225 l 599 236 l 528 100 l 499 86 l 449 86 l 492 581 l 301 581 m 304 607 l 494 607 l 513 828 l 564 828 l 592 814 l 638 678 l 657 689 l 642 914 l 211 914 l 157 690 l 174 679 l 246 815 l 274 829 l 325 829 l 304 607 m 149 404 l 256 404 l 260 457 l 154 457 l 197 533 l -33 446 l -36 418 l 179 324 l 149 404 m 482 1099 l 469 971 l 617 971 l 628 1099 l 482 1099 m 383 1099 l 243 1099 l 231 971 l 372 971 l 383 1099 m 286 786 l 263 786 l 200 656 l 274 656 l 286 786 z "},"":{"ha":1433,"x_min":7,"x_max":1503,"o":"m 981 188 l 1042 238 l 971 193 l 981 188 m 1229 851 l 1218 849 l 1179 810 l 1125 799 l 1242 704 l 1503 483 l 1493 383 l 1444 339 l 867 -143 l 629 -10 l 506 -10 l 535 321 l 333 321 l 358 217 l 349 222 l 307 181 l 7 358 l 19 436 l 60 476 l 61 485 l 394 639 l 460 739 l 372 757 l 379 854 l 419 894 l 421 903 l 774 933 l 807 903 l 868 965 l 1235 965 l 1229 851 m 779 864 l 758 882 l 468 858 l 467 839 l 565 818 q 574 811 574 815 q 572 806 574 807 l 414 560 q 413 556 413 557 q 411 554 413 554 q 746 518 411 518 l 707 72 l 907 -43 l 1446 407 l 1450 463 l 1243 638 l 1099 506 l 1264 357 l 981 124 l 882 206 l 914 567 l 613 567 q 585 582 585 567 q 592 603 585 589 l 779 864 m 1183 915 l 889 915 l 776 803 l 1081 522 l 1224 653 l 1019 825 l 1040 864 l 1182 893 l 1183 915 m 632 413 l 601 79 l 658 82 l 692 471 l 276 471 l 332 554 l 107 450 l 103 426 l 283 319 l 261 413 l 632 413 m 1150 379 l 978 538 l 953 253 l 1150 379 m 875 615 l 756 749 l 657 615 l 875 615 z "},"":{"ha":1490,"x_min":-4,"x_max":1467,"o":"m 1132 501 q 1140 576 1138 540 q 1144 647 1142 613 q 964 315 1061 531 l 946 118 q 1025 107 1010 107 q 1089 290 1061 192 q 1132 501 1117 388 m 554 90 l 614 93 l 639 371 l 317 400 l 321 349 l 272 310 l -4 464 l 21 558 l 63 608 l 340 646 l 272 797 q 260 839 260 824 q 272 876 260 857 q 301 913 283 896 q 341 941 319 929 q 383 954 363 953 l 604 968 l 804 1167 l 913 1107 l 1039 1182 l 1099 1111 l 982 974 l 992 965 l 1404 993 l 1460 944 q 1465 858 1463 906 q 1467 772 1467 811 q 1456 559 1467 672 q 1422 327 1444 446 q 1369 88 1400 208 q 1299 -143 1338 -32 l 1251 -183 q 1003 -81 1142 -119 l 906 -168 q 731 -115 831 -133 q 500 -90 631 -96 l 511 40 l 554 90 m 363 583 l 361 565 l 647 540 l 671 558 l 531 819 q 530 822 531 821 q 529 825 529 824 q 733 878 529 863 q 768 833 767 868 l 703 97 q 674 58 700 71 q 599 42 647 44 l 596 0 q 944 -68 817 -8 l 968 -46 l 890 40 l 915 329 q 1239 808 1100 739 q 1235 665 1239 733 q 1222 531 1231 597 l 1404 531 q 1417 772 1417 651 q 1415 847 1417 811 q 1411 922 1414 883 l 1388 943 l 1215 925 q 931 511 1060 796 l 968 922 l 944 943 l 386 904 q 351 885 351 904 q 358 863 351 879 l 474 614 q 467 604 474 607 l 363 583 m 1094 93 q 1028 57 1090 57 q 1000 59 1014 57 q 968 64 986 61 l 956 32 q 1272 -71 1147 1 q 1401 504 1369 214 l 1217 504 q 1169 291 1200 392 q 1094 93 1139 190 m 260 501 l 707 461 l 713 501 l 275 546 l 308 592 l 103 563 l 96 533 l 265 438 l 260 501 m 726 842 l 569 842 l 699 589 l 717 589 l 726 842 m 913 1051 l 811 1106 l 671 969 l 815 1043 l 918 976 l 1049 1129 l 913 1051 m 968 644 l 1129 915 l 1010 915 l 968 644 z "},"":{"ha":1393,"x_min":-1,"x_max":1389,"o":"m 1235 1054 l 1222 989 l 1389 989 l 1367 744 q 1294 683 1322 725 q 1265 579 1265 642 q 1271 497 1265 539 q 1287 412 1276 454 q 1312 329 1297 369 q 1344 256 1326 289 q 1365 202 1358 231 q 1371 144 1371 174 q 1337 17 1371 68 q 1249 -66 1303 -35 q 1129 -110 1196 -97 q 996 -124 1063 -124 q 860 -112 926 -124 q 738 -81 794 -100 q 635 -40 681 -62 q 564 4 590 -18 l 579 108 l 619 147 l 639 360 l 293 411 l 293 347 l 244 310 l -1 503 l 32 579 l 76 629 l 329 669 l 264 811 q 254 832 257 822 q 251 853 251 842 q 263 891 251 871 q 294 928 275 911 q 335 956 313 944 q 378 968 357 968 l 756 976 l 788 1024 l 750 1039 l 815 1151 l 858 1203 l 1235 1054 m 1121 181 q 1128 149 1128 160 q 1114 108 1128 125 q 1078 79 1100 90 q 1031 62 1057 68 q 981 56 1006 56 q 927 63 951 56 q 894 85 903 71 l 925 450 l 733 450 l 707 131 q 690 118 697 124 q 672 108 682 113 l 663 108 q 659 90 661 99 q 656 72 657 81 q 717 36 678 54 q 806 3 756 18 q 917 -22 857 -12 q 1043 -32 978 -32 q 1149 -25 1099 -32 q 1237 1 1199 -18 q 1298 56 1275 21 q 1321 146 1321 90 q 1300 235 1321 194 q 1239 401 1263 310 q 1215 581 1215 493 q 1240 719 1215 664 q 1319 786 1264 775 l 1335 943 l 379 918 q 352 911 361 917 q 343 899 343 906 q 351 876 343 889 l 467 631 q 356 597 468 621 l 354 578 l 640 554 l 664 572 l 522 833 q 522 835 522 835 q 521 838 521 836 q 728 875 521 868 q 750 740 750 867 q 747 625 750 690 q 736 476 743 560 l 928 476 l 961 858 l 1067 865 q 1034 765 1044 821 q 1024 644 1024 708 q 1051 410 1024 532 q 1121 181 1078 289 m 244 519 l 700 450 l 703 504 l 269 565 l 307 615 l 110 583 l 100 563 l 244 450 l 244 519 m 881 1140 l 861 1108 l 903 1093 l 851 1014 l 1197 1014 l 881 1140 m 711 610 l 711 832 l 575 832 l 686 610 l 711 610 m 1035 113 q 1017 160 1028 129 q 997 224 1007 190 q 978 288 986 257 q 965 335 969 318 l 946 107 q 955 106 949 106 q 981 106 961 106 q 1035 113 1004 106 z "},"":{"ha":1393,"x_min":-1,"x_max":1389,"o":"m 1035 113 q 1017 160 1028 129 q 997 224 1007 190 q 978 288 986 257 q 965 335 969 318 l 946 107 q 955 106 949 106 q 981 106 961 106 q 1035 113 1004 106 m 1367 744 q 1294 683 1322 725 q 1265 579 1265 642 q 1271 497 1265 539 q 1287 412 1276 454 q 1312 329 1297 369 q 1344 256 1326 289 q 1365 202 1358 231 q 1371 144 1371 174 q 1337 17 1371 68 q 1249 -66 1303 -35 q 1129 -110 1196 -97 q 996 -124 1063 -124 q 860 -112 926 -124 q 738 -81 794 -100 q 635 -40 681 -62 q 564 4 590 -18 l 579 108 l 619 147 l 639 360 l 293 411 l 293 347 l 244 310 l -1 503 l 32 579 l 76 629 l 329 669 l 264 811 q 254 832 257 822 q 251 853 251 842 q 263 891 251 871 q 294 928 275 911 q 335 956 313 944 q 378 968 357 968 l 772 978 l 769 1006 l 810 1054 l 1186 1203 l 1256 1083 l 1222 1057 l 1268 990 l 1389 990 l 1367 744 m 1121 181 q 1128 149 1128 160 q 1114 108 1128 125 q 1078 79 1100 90 q 1031 62 1057 68 q 981 56 1006 56 q 927 63 951 56 q 894 85 903 71 l 925 450 l 733 450 l 707 131 q 690 118 697 124 q 672 108 682 113 l 663 108 q 659 90 661 99 q 656 72 657 81 q 717 36 678 54 q 806 3 756 18 q 917 -22 857 -12 q 1043 -32 978 -32 q 1149 -25 1099 -32 q 1237 1 1199 -18 q 1298 56 1275 21 q 1321 146 1321 90 q 1300 235 1321 194 q 1239 401 1263 310 q 1215 581 1215 493 q 1240 719 1215 664 q 1319 786 1264 775 l 1335 943 l 379 918 q 352 911 361 917 q 343 899 343 906 q 351 876 343 889 l 467 631 q 356 597 468 621 l 354 578 l 640 554 l 664 572 l 522 833 q 522 835 522 835 q 521 838 521 836 q 728 875 521 868 q 750 740 750 867 q 747 625 750 690 q 736 476 743 560 l 928 476 l 961 858 l 1067 865 q 1034 765 1044 821 q 1024 644 1024 708 q 1051 410 1024 532 q 1121 181 1078 289 m 244 519 l 700 450 l 703 504 l 269 565 l 307 615 l 110 583 l 100 563 l 244 450 l 244 519 m 1193 1014 l 1142 1093 l 1183 1108 l 1164 1140 l 847 1014 l 1193 1014 m 711 610 l 711 832 l 575 832 l 686 610 l 711 610 z "},"":{"ha":1393,"x_min":-1,"x_max":1389,"o":"m 1367 744 q 1290 683 1315 725 q 1265 579 1265 640 q 1271 497 1265 539 q 1287 412 1276 454 q 1312 329 1297 369 q 1344 256 1326 289 q 1365 202 1358 231 q 1371 144 1371 174 q 1337 17 1371 68 q 1249 -66 1303 -35 q 1129 -110 1196 -97 q 996 -124 1063 -124 q 860 -112 926 -124 q 738 -81 794 -100 q 635 -40 681 -62 q 564 4 590 -18 l 579 108 l 619 147 l 639 360 l 293 411 l 293 347 l 244 310 l -1 503 l 32 579 l 76 629 l 329 669 l 264 811 q 254 832 257 822 q 251 853 251 842 q 263 894 251 874 q 293 931 275 914 q 333 958 311 947 q 378 968 356 968 l 694 975 l 1003 1164 l 1282 990 l 1389 990 l 1367 744 m 1121 181 q 1128 149 1128 160 q 1114 108 1128 125 q 1078 79 1100 90 q 1031 62 1057 68 q 981 56 1006 56 q 927 63 951 56 q 894 85 903 71 l 925 450 l 733 450 l 707 131 q 690 118 697 124 q 672 108 682 113 l 663 108 q 659 90 661 99 q 656 72 657 81 q 717 36 678 54 q 806 3 756 18 q 917 -22 857 -12 q 1043 -32 978 -32 q 1149 -25 1099 -32 q 1237 1 1199 -18 q 1298 56 1275 21 q 1321 146 1321 90 q 1300 235 1321 194 q 1239 401 1263 310 q 1215 581 1215 493 q 1240 719 1215 664 q 1319 786 1264 775 l 1335 943 l 379 918 q 343 899 343 915 q 351 876 343 889 l 467 631 q 356 597 468 621 l 354 578 l 640 554 l 664 572 l 522 833 q 522 835 522 835 q 521 838 521 836 q 728 875 521 868 q 750 740 750 867 q 747 625 750 690 q 736 476 743 560 l 928 476 l 961 858 l 1067 865 q 1034 765 1044 821 q 1024 644 1024 708 q 1051 410 1024 532 q 1121 181 1078 289 m 244 519 l 700 450 l 703 504 l 269 565 l 307 615 l 110 583 l 100 563 l 244 450 l 244 519 m 1194 986 l 1003 1104 l 808 986 l 1194 986 m 711 610 l 711 832 l 575 832 l 686 610 l 711 610 m 1035 113 q 1017 160 1028 129 q 997 224 1007 190 q 978 288 986 257 q 965 335 969 318 l 946 107 q 955 106 949 106 q 981 106 961 106 q 1035 113 1004 106 z "},"":{"ha":1393,"x_min":-1,"x_max":1389,"o":"m 1317 703 q 1274 656 1283 692 q 1265 579 1265 619 q 1271 497 1265 539 q 1287 412 1276 454 q 1312 329 1297 369 q 1344 256 1326 289 q 1365 202 1358 231 q 1371 144 1371 174 q 1349 41 1371 90 q 1282 -36 1328 -8 l 1263 -56 q 1208 -91 1240 -78 q 1140 -112 1176 -104 q 1067 -122 1104 -119 q 996 -124 1029 -124 q 860 -112 926 -124 q 738 -81 794 -100 q 635 -40 681 -62 q 564 4 590 -18 q 565 39 564 25 q 569 63 567 53 q 574 84 571 74 q 579 108 576 94 l 619 147 l 639 360 l 293 411 l 293 347 l 288 353 l 244 310 l -1 503 l 32 579 l 71 618 l 76 629 l 329 669 l 264 811 q 254 832 257 822 q 251 853 251 842 q 269 899 251 881 l 299 928 q 378 968 315 967 l 753 976 l 765 993 l 946 1167 l 1054 1107 l 1181 1182 l 1240 1111 l 1133 988 l 1389 988 l 1367 744 q 1357 742 1358 742 l 1317 703 m 1121 181 q 1128 149 1128 160 q 1114 108 1128 125 q 1078 79 1100 90 q 1031 62 1057 68 q 981 56 1006 56 q 927 63 951 56 q 894 85 903 71 l 925 450 l 733 450 l 707 131 q 690 118 697 124 q 672 108 682 113 l 663 108 q 659 90 661 99 q 656 72 657 81 q 717 36 678 54 q 806 3 756 18 q 917 -22 857 -12 q 1043 -32 978 -32 q 1149 -25 1099 -32 q 1237 1 1199 -18 q 1298 56 1275 21 q 1321 146 1321 90 q 1300 235 1321 194 q 1239 401 1263 310 q 1215 581 1215 493 q 1240 719 1215 664 q 1319 786 1264 775 l 1335 943 l 379 918 q 343 899 343 915 q 351 876 343 889 l 467 631 q 356 597 468 621 l 354 578 l 640 554 l 664 572 l 522 833 q 522 835 522 835 q 521 838 521 836 q 728 875 521 868 q 750 740 750 867 q 747 625 750 690 q 736 476 743 560 l 928 476 l 961 858 l 1067 865 q 1034 765 1044 821 q 1024 644 1024 708 q 1051 410 1024 532 q 1121 181 1078 289 m 244 519 l 700 450 l 703 504 l 269 565 l 307 615 l 110 583 l 100 563 l 244 450 l 244 519 m 711 610 l 711 832 l 575 832 l 686 610 l 711 610 m 1054 1051 l 951 1106 l 813 969 l 957 1043 l 1058 976 l 1189 1129 l 1054 1051 m 1033 119 q 965 335 990 218 l 946 107 q 961 106 950 106 l 981 106 q 1035 113 1004 106 q 1034 115 1035 114 q 1033 118 1033 117 l 1033 119 z "},"":{"ha":1393,"x_min":-1,"x_max":1389,"o":"m 1033 119 q 994 222 1011 168 q 965 335 978 276 l 946 107 q 955 106 949 106 q 981 106 961 106 q 1035 113 1004 106 q 1034 115 1035 114 q 1033 118 1033 117 l 1033 119 m 1263 1149 l 1249 990 l 1389 990 l 1367 744 q 1294 683 1322 725 q 1265 579 1265 642 q 1271 497 1265 539 q 1287 412 1276 454 q 1312 329 1297 369 q 1344 256 1326 289 q 1365 202 1358 231 q 1371 144 1371 174 q 1336 22 1371 72 q 1247 -62 1301 -29 q 1126 -109 1193 -94 q 996 -124 1060 -124 q 860 -112 926 -124 q 738 -81 794 -100 q 635 -40 681 -62 q 564 4 590 -18 l 579 108 l 619 147 l 639 360 l 293 411 l 293 347 l 244 310 l -1 503 l 32 579 l 76 629 l 329 669 l 264 811 q 255 833 258 824 q 251 853 251 842 q 263 894 251 874 q 293 931 275 914 q 333 958 311 947 q 378 968 356 968 l 725 975 l 736 1099 l 778 1149 l 1263 1149 m 1121 181 q 1128 149 1128 160 q 1114 108 1128 125 q 1078 79 1100 90 q 1031 62 1057 68 q 981 56 1006 56 q 927 63 951 56 q 894 85 903 71 l 925 450 l 733 450 l 707 131 q 690 118 697 124 q 672 108 682 113 l 663 108 q 659 90 661 99 q 656 72 657 81 q 717 36 678 54 q 806 3 756 18 q 917 -22 857 -12 q 1043 -32 978 -32 q 1149 -25 1099 -32 q 1237 1 1199 -18 q 1298 56 1275 21 q 1321 146 1321 90 q 1300 235 1321 194 q 1239 401 1263 310 q 1215 581 1215 493 q 1240 719 1215 664 q 1319 786 1264 775 l 1335 943 l 379 918 q 343 899 343 915 q 351 876 343 889 l 467 631 q 356 597 468 621 l 354 578 l 640 554 l 664 572 l 522 833 q 522 835 522 835 q 521 838 521 836 q 728 875 521 868 q 750 740 750 867 q 747 625 750 690 q 736 476 743 560 l 928 476 l 961 858 l 1067 865 q 1034 765 1044 821 q 1024 644 1024 708 q 1051 410 1024 532 q 1121 181 1078 289 m 244 519 l 700 450 l 703 504 l 269 565 l 307 615 l 110 583 l 100 563 l 244 450 l 244 519 m 711 610 l 711 832 l 575 832 l 686 610 l 711 610 m 1063 1099 l 1051 971 l 1197 971 l 1208 1099 l 1063 1099 m 965 1099 l 824 1099 l 813 971 l 953 971 l 965 1099 z "},"":{"ha":1393,"x_min":-1,"x_max":1389,"o":"m 1367 744 q 1292 681 1318 725 q 1265 579 1265 636 q 1271 497 1265 539 q 1287 412 1276 454 q 1312 329 1297 369 q 1344 256 1326 289 q 1365 202 1358 231 q 1371 144 1371 174 q 1337 17 1371 68 q 1249 -66 1303 -35 q 1129 -110 1196 -97 q 996 -124 1063 -124 q 860 -112 926 -124 q 738 -81 794 -100 q 635 -40 681 -62 q 564 4 590 -18 q 565 39 564 25 q 569 63 567 53 q 574 84 571 74 q 579 108 576 94 l 619 147 l 639 360 l 293 411 l 293 347 l 244 310 l -1 503 l 32 579 l 76 629 l 329 669 l 264 811 q 255 833 258 824 q 251 853 251 842 q 263 894 251 874 q 293 931 275 914 q 333 958 311 947 q 378 968 356 968 l 1389 993 l 1367 744 m 922 408 l 925 450 l 733 450 l 707 131 q 688 118 697 124 q 663 108 679 113 q 659 90 661 99 q 656 72 657 81 q 717 36 678 54 q 806 3 756 18 q 917 -22 857 -12 q 1043 -32 978 -32 q 1149 -25 1099 -32 q 1237 1 1199 -18 q 1298 56 1275 21 q 1321 146 1321 90 q 1300 235 1321 194 q 1239 401 1263 310 q 1215 581 1215 493 q 1240 719 1215 664 q 1319 786 1264 775 l 1335 943 l 379 918 q 343 899 343 915 q 351 876 343 889 l 467 631 q 356 597 468 621 l 354 578 l 640 554 l 664 572 l 522 833 q 522 835 522 835 q 521 838 521 836 q 728 875 521 868 q 750 740 750 867 q 747 625 750 690 q 736 476 743 560 l 928 476 l 961 858 l 1067 865 q 1024 644 1024 775 q 1025 573 1024 613 q 1033 500 1026 533 l 922 408 m 1121 181 q 1128 149 1128 160 q 1114 108 1128 125 q 1078 79 1100 90 q 1031 62 1057 68 q 981 56 1006 56 q 927 63 951 56 q 894 85 903 71 l 908 264 l 1056 383 q 1090 282 1076 335 q 1121 181 1103 229 m 700 450 l 703 504 l 269 565 l 307 615 l 110 583 l 100 563 l 244 450 l 244 519 l 700 450 m 711 832 l 575 832 l 686 610 l 711 610 l 711 832 m 956 235 l 946 107 q 955 106 949 106 q 981 106 961 106 q 1006 108 993 106 q 1033 118 1019 111 q 1006 185 1018 150 q 985 258 994 221 l 956 235 z "},"":{"ha":1339,"x_min":29,"x_max":1396,"o":"m 1156 1054 l 1142 986 l 1396 961 l 1390 861 l 1281 792 l 1226 158 l 1263 158 l 1271 51 q 1180 -16 1233 15 q 1061 -72 1126 -47 q 921 -110 996 -96 q 764 -124 846 -124 q 650 -116 704 -124 q 555 -87 596 -108 q 490 -30 514 -67 q 465 65 465 7 q 478 143 465 104 q 514 215 490 182 q 551 281 533 243 q 582 352 568 318 q 603 411 596 386 q 611 440 611 436 l 346 483 l 358 397 l 307 358 l 29 567 l 114 689 l 336 738 l 274 872 q 265 893 268 883 q 263 914 263 903 q 272 944 263 924 q 298 983 282 964 q 335 1016 314 1001 q 379 1031 356 1031 q 394 1029 389 1031 l 686 992 l 707 1024 l 669 1039 l 778 1203 l 1156 1054 m 683 411 q 640 321 663 363 q 599 243 618 279 q 568 174 581 207 q 556 111 556 142 q 580 33 556 61 q 642 -10 604 4 q 724 -29 679 -25 q 810 -33 768 -33 q 937 -24 875 -33 q 1051 1 999 -14 q 1146 35 1104 17 q 1214 72 1188 54 q 1213 90 1213 75 l 1213 108 l 1203 108 q 1174 131 1189 115 l 1235 833 q 1342 894 1238 844 l 1343 915 l 1076 943 l 1051 922 l 978 85 q 941 63 967 71 q 886 56 915 56 q 839 60 863 56 q 797 76 815 65 q 766 101 778 86 q 754 138 754 117 q 765 178 754 153 q 792 234 776 204 q 824 294 807 264 q 853 350 840 325 l 683 411 m 365 658 l 364 640 l 650 615 l 674 633 l 539 881 q 535 896 535 889 q 565 917 535 917 l 672 901 q 725 842 708 889 q 742 729 742 796 q 739 661 742 699 q 730 584 736 624 q 714 506 724 544 q 690 435 704 468 l 863 374 q 864 376 864 375 l 864 378 q 932 569 907 474 q 957 750 957 665 q 947 840 957 799 q 911 915 936 882 l 389 979 q 354 960 354 979 q 361 938 354 951 l 476 689 q 468 679 476 681 l 365 658 m 281 594 l 678 531 l 678 574 l 292 624 l 365 693 l 146 644 l 135 624 l 293 507 l 281 594 m 800 1140 l 782 1108 l 824 1093 l 772 1014 l 1118 1014 l 800 1140 m 581 871 l 706 650 q 707 666 707 657 q 707 703 707 675 q 703 776 707 738 q 685 856 699 815 l 581 871 m 914 357 q 876 281 896 317 q 841 218 857 246 q 815 169 825 190 q 804 138 804 149 q 831 113 804 121 q 892 106 858 106 l 914 357 z "},"":{"ha":1339,"x_min":29,"x_max":1396,"o":"m 1226 158 l 1263 158 q 1263 110 1263 126 q 1263 85 1263 94 q 1265 70 1263 76 q 1271 51 1267 64 q 1180 -16 1233 15 q 1061 -72 1126 -47 q 921 -110 996 -96 q 764 -124 846 -124 q 650 -116 704 -124 q 555 -87 596 -108 q 490 -30 514 -67 q 465 65 465 7 q 478 143 465 104 q 514 215 490 182 q 551 281 533 243 q 582 352 568 318 q 603 411 596 386 q 611 440 611 436 l 346 483 l 358 397 l 307 358 l 29 567 l 114 689 l 336 738 l 274 872 q 265 893 268 883 q 263 914 263 903 q 272 944 263 924 q 298 983 282 964 q 335 1016 314 1001 q 379 1031 356 1031 q 394 1029 389 1031 l 736 986 l 774 1054 l 1151 1203 l 1221 1083 l 1207 1078 l 1186 1057 l 1242 975 l 1396 961 l 1390 861 q 1385 859 1388 861 q 1372 850 1382 857 q 1340 830 1361 843 q 1281 792 1318 817 l 1226 158 m 683 411 q 640 321 663 363 q 599 243 618 279 q 568 174 581 207 q 556 111 556 142 q 580 33 556 61 q 642 -10 604 4 q 724 -29 679 -25 q 810 -33 768 -33 q 937 -24 875 -33 q 1051 1 999 -14 q 1146 35 1104 17 q 1214 72 1188 54 q 1213 90 1213 75 l 1213 108 l 1203 108 q 1174 131 1189 115 l 1235 833 q 1342 894 1238 844 l 1343 915 l 1076 943 l 1051 922 l 978 85 q 941 63 967 71 q 886 56 915 56 q 839 60 863 56 q 797 76 815 65 q 766 101 778 86 q 754 138 754 117 q 765 178 754 153 q 792 234 776 204 q 824 294 807 264 q 853 350 840 325 l 683 411 m 365 658 l 364 640 l 650 615 l 674 633 l 539 881 q 535 896 535 889 q 565 917 535 917 l 672 901 q 725 842 708 889 q 742 729 742 796 q 739 661 742 699 q 730 584 736 624 q 714 506 724 544 q 690 435 704 468 l 863 374 q 864 376 864 375 l 864 378 q 932 569 907 474 q 957 750 957 665 q 947 840 957 799 q 911 915 936 882 l 389 979 q 354 960 354 979 q 361 938 354 951 l 476 689 q 468 679 476 681 l 365 658 m 281 594 l 678 531 l 678 574 l 292 624 l 365 693 l 146 644 l 135 624 l 293 507 l 281 594 m 1158 1014 l 1106 1093 l 1147 1108 l 1129 1140 l 813 1014 l 1158 1014 m 914 357 q 876 281 896 317 q 841 218 857 246 q 815 169 825 190 q 804 138 804 149 q 831 113 804 121 q 892 106 858 106 l 914 357 m 581 871 l 706 650 q 707 666 707 657 q 707 703 707 675 q 703 776 707 738 q 685 856 699 815 l 581 871 z "},"":{"ha":1339,"x_min":29,"x_max":1396,"o":"m 1281 792 l 1226 158 l 1263 158 l 1271 51 q 1180 -16 1233 15 q 1061 -72 1126 -47 q 921 -110 996 -96 q 764 -124 846 -124 q 650 -116 704 -124 q 555 -87 596 -108 q 490 -30 514 -67 q 465 65 465 7 q 478 143 465 103 q 514 215 490 183 q 551 281 533 244 q 582 352 568 318 q 603 411 596 386 q 611 440 611 436 l 346 483 l 358 397 l 307 358 l 29 567 l 114 689 l 336 738 l 274 872 q 265 893 268 883 q 263 914 263 903 q 275 958 263 938 q 306 994 288 978 q 349 1019 325 1010 q 394 1029 372 1028 l 676 993 l 953 1164 l 1258 974 l 1396 961 l 1390 861 l 1281 792 m 683 411 q 640 321 663 363 q 599 243 618 279 q 568 174 581 207 q 556 111 556 142 q 580 33 556 61 q 642 -10 604 4 q 724 -29 679 -25 q 810 -33 768 -33 q 937 -24 875 -33 q 1051 1 999 -14 q 1146 35 1104 17 q 1214 72 1188 54 q 1213 90 1213 75 l 1213 108 l 1203 108 q 1174 131 1189 115 l 1235 833 q 1342 894 1238 844 l 1343 915 l 1076 943 l 1051 922 l 978 85 q 941 63 967 71 q 886 56 915 56 q 839 60 863 56 q 797 76 815 65 q 766 101 778 86 q 754 138 754 117 q 765 178 754 153 q 792 234 776 204 q 824 294 807 264 q 853 350 840 325 l 683 411 m 365 658 l 364 640 l 650 615 l 674 633 l 539 881 q 535 896 535 889 q 565 917 535 917 l 672 901 q 725 842 708 889 q 742 729 742 796 q 739 661 742 699 q 730 584 736 624 q 714 506 724 544 q 690 435 704 468 l 863 374 q 864 376 864 375 l 864 378 q 932 569 907 474 q 957 750 957 665 q 947 840 957 799 q 911 915 936 882 l 389 979 q 354 960 354 979 q 361 938 354 951 l 476 689 q 468 679 476 681 l 365 658 m 281 594 l 678 531 l 678 574 l 292 624 l 365 693 l 146 644 l 135 624 l 293 507 l 281 594 m 1144 986 l 953 1104 l 758 986 l 1144 986 m 581 871 l 706 650 q 707 663 707 657 q 707 675 707 668 l 707 703 q 703 776 707 738 q 685 856 699 815 l 581 871 m 914 357 q 876 281 896 317 q 841 218 857 246 q 815 169 825 190 q 804 138 804 149 q 831 113 804 121 q 892 106 858 106 l 914 357 z "},"":{"ha":1339,"x_min":29,"x_max":1396,"o":"m 1240 1149 l 1225 978 l 1396 961 l 1390 861 l 1281 792 l 1226 158 l 1263 158 l 1271 51 q 1180 -16 1233 15 q 1061 -72 1126 -47 q 921 -110 996 -96 q 764 -124 846 -124 q 650 -116 704 -124 q 555 -87 596 -108 q 490 -30 514 -67 q 465 65 465 7 q 476 123 465 90 q 503 192 488 156 q 539 267 519 229 q 574 338 558 304 q 601 398 590 371 q 611 440 611 425 l 346 483 l 358 397 l 307 358 l 29 567 l 114 689 l 336 738 l 274 872 q 265 893 268 883 q 263 914 263 903 q 275 958 263 938 q 306 994 288 978 q 349 1019 325 1010 q 394 1029 372 1028 l 704 990 l 714 1099 l 756 1149 l 1240 1149 m 683 411 q 640 321 663 363 q 599 243 618 279 q 568 174 581 207 q 556 111 556 142 q 580 33 556 61 q 642 -10 604 4 q 724 -29 679 -25 q 810 -33 768 -33 q 937 -24 875 -33 q 1051 1 999 -14 q 1146 35 1104 17 q 1214 72 1188 54 q 1213 90 1213 75 l 1213 108 l 1203 108 q 1174 131 1189 115 l 1235 833 q 1342 894 1238 844 l 1343 915 l 1076 943 l 1051 922 l 978 85 q 941 63 967 71 q 886 56 915 56 q 839 60 863 56 q 797 76 815 65 q 766 101 778 86 q 754 138 754 117 q 765 178 754 153 q 792 234 776 204 q 824 294 807 264 q 853 350 840 325 l 683 411 m 365 658 l 364 640 l 650 615 l 674 633 l 539 881 q 535 896 535 889 q 565 917 535 917 l 672 901 q 725 842 708 889 q 742 729 742 796 q 739 661 742 699 q 730 584 736 624 q 714 506 724 544 q 690 435 704 468 l 863 374 q 864 376 864 375 l 864 378 q 932 569 907 474 q 957 750 957 665 q 947 840 957 799 q 911 915 936 882 l 389 979 q 354 960 354 979 q 361 938 354 951 l 476 689 q 468 679 476 681 l 365 658 m 281 594 l 678 531 l 678 574 l 292 624 l 365 693 l 146 644 l 135 624 l 293 507 l 281 594 m 1040 1099 l 1029 971 l 1175 971 l 1186 1099 l 1040 1099 m 943 1099 l 801 1099 l 790 971 l 931 971 l 943 1099 m 914 357 q 889 299 907 329 q 852 241 871 269 q 819 186 833 213 q 804 138 804 160 q 831 113 804 121 q 892 106 858 106 l 914 357 m 581 871 l 706 650 q 707 663 707 657 q 707 675 707 668 l 707 703 q 703 776 707 738 q 685 856 699 815 l 581 871 z "},"":{"ha":1425,"x_min":49,"x_max":1521,"o":"m 1017 111 l 1029 247 q 1006 214 1021 231 q 974 181 990 197 q 944 151 958 165 q 925 124 931 136 q 953 115 932 118 q 1001 111 975 111 l 1017 111 m 964 536 q 990 503 971 513 q 1050 489 1010 493 l 1071 725 q 1044 683 1063 710 q 1009 628 1026 657 q 978 576 992 600 q 964 540 964 551 l 964 536 m 1515 861 q 1469 828 1488 840 q 1438 808 1450 815 q 1419 797 1426 800 q 1406 792 1411 793 l 1351 167 l 1389 167 l 1389 57 q 1286 -17 1344 15 q 1162 -71 1228 -49 q 1026 -104 1096 -93 q 889 -115 957 -115 q 783 -108 839 -115 q 678 -83 726 -101 q 599 -31 631 -64 q 568 56 568 3 q 572 85 568 69 q 585 122 575 101 q 613 167 594 142 q 664 226 632 193 l 671 343 q 650 375 665 349 q 626 443 635 401 l 339 481 l 339 419 l 296 376 l 49 554 l 67 632 l 108 682 l 338 735 l 275 871 q 264 913 264 890 q 283 960 264 940 l 313 989 q 397 1044 332 1025 l 865 986 l 903 1054 l 1281 1203 l 1350 1083 l 1317 1057 l 1371 975 l 1521 961 l 1515 861 m 729 451 q 769 408 742 424 q 831 385 796 393 q 906 374 867 376 q 978 372 944 372 q 1056 376 1017 372 q 1129 386 1094 381 l 1103 94 q 1061 69 1089 76 q 1001 61 1033 61 q 919 75 958 61 q 875 117 881 89 l 875 119 q 894 165 875 142 q 934 212 913 189 q 974 256 956 235 q 993 297 993 278 q 986 321 993 310 l 761 354 l 758 313 q 795 303 785 310 q 806 289 806 297 q 788 259 806 276 q 748 224 771 242 q 703 189 725 207 q 675 157 682 171 q 660 101 660 128 q 688 37 660 61 q 757 -1 715 13 q 847 -18 799 -14 q 936 -22 896 -22 q 1063 -13 1000 -22 q 1178 10 1125 -4 q 1274 44 1232 25 q 1339 81 1315 63 l 1339 118 q 1315 126 1324 121 q 1299 140 1307 131 l 1360 833 q 1468 894 1363 844 l 1468 915 l 1203 943 l 1176 922 l 1136 464 q 1067 440 1114 440 q 984 457 1025 440 q 921 511 943 474 l 729 451 m 367 657 l 365 639 l 651 614 l 675 632 l 533 893 q 531 902 532 899 q 531 908 531 906 q 560 929 531 929 l 829 896 q 893 851 893 882 q 855 775 893 824 q 758 640 817 726 q 718 514 718 581 q 719 497 718 504 q 722 476 719 490 l 914 535 l 914 540 q 926 585 914 564 q 992 693 964 647 q 1041 772 1021 739 q 1072 828 1061 806 q 1082 867 1082 851 q 1071 893 1082 882 q 1036 915 1060 904 l 401 993 q 356 958 356 982 q 363 936 356 947 l 478 688 q 468 678 478 679 l 367 657 m 278 589 l 686 533 l 689 574 l 286 618 l 361 690 l 150 640 l 144 618 l 286 517 l 278 589 m 853 850 l 582 899 l 693 676 l 853 850 m 1288 1014 l 1235 1093 l 1276 1108 l 1258 1140 l 942 1014 l 1288 1014 z "},"":{"ha":1579,"x_min":-21,"x_max":1679,"o":"m 953 965 l 1224 965 l 1254 1004 l 1608 1033 l 1679 974 l 1490 692 l 1511 692 l 1499 569 l 1490 569 l 1469 549 q 1535 369 1515 451 q 1556 213 1556 288 q 1485 -50 1556 81 l 1436 -92 l 1097 -92 l 922 99 l 839 -92 l 378 -92 l 203 99 l 113 -89 l -21 -89 l 18 351 l 43 375 l 15 404 l 149 783 l 25 817 l 32 915 l 74 965 l 504 965 l 535 1004 l 889 1033 l 953 965 m 868 783 l 838 792 l 772 692 l 792 692 l 779 569 l 750 549 l 763 540 q 768 526 765 533 q 772 513 771 519 l 868 783 m 381 572 l 450 572 q 432 606 432 586 q 435 626 432 619 q 444 640 438 632 l 511 746 q 476 732 493 739 q 446 715 460 725 l 381 572 m 1099 572 l 1169 572 q 1151 606 1151 586 q 1154 626 1151 619 q 1164 640 1157 632 l 1231 746 q 1196 732 1213 739 q 1164 715 1179 725 l 1099 572 m 524 244 q 515 340 524 292 l 436 340 l 524 244 m 1243 244 q 1235 340 1243 292 l 1156 340 l 1243 244 m 874 983 l 582 958 l 581 940 l 681 919 q 686 915 686 918 l 119 915 l 119 897 l 243 863 l 239 814 l 197 697 l 382 697 l 404 746 q 654 858 476 838 l 528 661 q 524 651 524 654 q 733 619 524 619 l 736 642 l 725 642 q 697 658 697 642 q 704 678 697 661 l 847 894 l 963 863 l 958 814 l 917 697 l 1101 697 l 1124 746 q 1374 858 1196 838 l 1247 661 q 1243 651 1243 654 q 1453 619 1243 619 l 1456 642 l 1444 642 q 1417 658 1417 642 q 1424 678 1417 661 l 1614 965 l 1593 983 l 1301 958 l 1300 940 l 1400 919 q 1404 915 1404 917 l 860 915 l 894 965 l 874 983 m 304 522 l 371 671 l 188 671 l 114 461 l 140 432 l 600 432 q 611 358 607 392 q 615 296 615 325 q 561 129 615 181 l 358 351 l 106 351 l 75 3 l 115 3 l 204 250 l 221 244 l 444 0 l 735 0 q 788 213 788 97 q 717 522 788 351 l 304 522 m 1024 522 l 1090 671 l 907 671 l 833 461 l 860 432 l 1319 432 q 1331 358 1326 392 q 1335 296 1335 325 q 1281 129 1335 181 l 1078 351 l 825 351 l 794 3 l 835 3 l 924 250 l 940 244 l 1164 0 l 1454 0 q 1507 213 1507 97 q 1436 522 1507 351 l 1024 522 z "},"":{"ha":913,"x_min":-110,"x_max":989,"o":"m 693 1054 l 676 965 l 663 958 l 679 921 q 678 899 678 911 q 678 858 678 888 q 693 628 678 744 q 744 388 708 511 q 840 131 781 264 q 989 -146 900 -1 l 933 -185 l 431 -57 l 289 -167 q -110 -90 147 -92 l -76 13 l -33 63 q 58 94 25 76 q 194 426 135 258 q 301 776 254 594 l 218 828 l 254 924 l 179 924 l 247 1024 l 207 1039 l 315 1203 l 693 1054 m 603 943 l 324 915 l 317 894 l 392 850 q 400 839 400 846 q 397 833 400 839 q 135 97 299 442 q 6 21 119 51 l -1 1 q 332 -68 206 0 l 363 -46 l 307 40 l 356 142 l 576 142 q 536 250 553 192 q 513 379 519 308 l 488 379 l 476 260 q 375 192 471 192 q 464 465 425 319 q 531 778 503 611 q 538 644 533 708 q 550 521 543 581 l 653 550 q 628 858 628 697 l 628 889 q 628 904 628 896 q 629 922 628 913 l 603 943 m 553 493 q 595 272 568 371 q 658 96 622 174 l 658 92 q 581 64 658 64 q 526 67 557 64 q 457 75 494 69 l 439 50 l 881 -67 q 742 216 797 72 q 657 524 686 360 l 553 493 m 338 1140 l 319 1108 l 361 1093 l 310 1014 l 656 1014 l 338 1140 z "},"":{"ha":913,"x_min":-110,"x_max":989,"o":"m 678 924 l 678 858 q 693 628 678 744 q 744 388 708 511 q 840 131 781 264 q 989 -146 900 -1 l 933 -185 l 426 -53 l 431 -57 l 289 -167 q -110 -90 147 -92 l -76 13 l -33 63 q 58 94 25 76 q 194 426 135 258 q 301 776 254 594 l 218 828 l 246 924 l 229 1006 l 271 1054 l 647 1203 l 717 1083 l 683 1057 l 746 965 l 678 924 m 603 943 l 324 915 l 317 894 l 392 850 q 400 839 400 846 q 397 833 400 839 q 135 97 299 442 q 6 21 119 51 l -1 1 q 332 -68 206 0 l 363 -46 l 307 40 l 356 142 l 576 142 q 536 250 553 192 q 513 379 519 308 l 488 379 l 476 260 q 375 192 471 192 q 464 465 425 319 q 531 778 503 611 q 538 644 533 708 q 550 521 543 581 l 653 550 q 628 858 628 697 q 628 901 628 889 q 629 922 628 913 l 603 943 m 553 493 q 595 272 568 371 q 658 96 622 174 l 658 92 q 581 64 658 64 q 526 67 557 64 q 457 75 494 69 l 439 50 l 881 -67 q 742 216 797 72 q 657 524 686 360 l 553 493 m 654 1014 l 601 1093 l 643 1108 l 625 1140 l 308 1014 l 654 1014 z "},"":{"ha":913,"x_min":-110,"x_max":989,"o":"m 792 894 l 678 894 l 678 858 q 693 628 678 744 q 744 388 708 511 q 840 131 781 264 q 989 -146 900 -1 l 933 -185 l 426 -53 l 431 -57 l 289 -167 q -110 -90 147 -92 l -76 13 l -33 63 q 58 94 25 76 q 194 426 135 258 q 301 776 254 594 l 218 828 l 238 894 l 82 894 l 485 1164 l 853 936 l 792 894 m 603 936 l 324 915 l 317 894 l 392 850 q 400 839 400 846 q 397 833 400 839 q 135 97 299 442 q 6 21 119 51 l -1 1 q 332 -68 206 0 l 363 -46 l 307 40 l 356 142 l 576 142 q 536 250 553 192 q 513 379 519 308 l 488 379 l 476 260 q 375 192 471 192 q 464 465 425 319 q 531 778 503 611 q 538 644 533 708 q 550 521 543 581 l 653 550 q 628 858 628 697 l 628 889 q 628 904 628 896 q 629 922 628 913 l 603 936 m 553 493 q 595 272 568 371 q 658 96 622 174 l 658 92 q 581 64 658 64 q 526 67 557 64 q 457 75 494 69 l 439 50 l 881 -67 q 742 216 797 72 q 657 524 686 360 l 553 493 m 676 986 l 485 1104 l 290 986 l 676 986 z "},"":{"ha":913,"x_min":-110,"x_max":989,"o":"m 679 921 q 678 899 678 911 q 678 858 678 888 q 693 628 678 744 q 744 388 708 511 q 840 131 781 264 q 989 -146 900 -1 l 933 -185 l 431 -57 l 289 -167 q -110 -90 147 -92 l -76 13 l -33 63 q 58 94 25 76 q 194 426 135 258 q 301 776 254 594 l 218 828 l 243 910 l 217 947 l 438 1167 l 546 1107 l 672 1182 l 732 1111 l 625 988 l 663 958 l 679 921 m 603 943 l 324 915 l 317 894 l 392 850 q 400 839 400 846 q 397 833 400 839 q 135 97 299 442 q 6 21 119 51 l -1 1 q 332 -68 206 0 l 363 -46 l 307 40 l 356 142 l 576 142 q 536 250 553 192 q 513 379 519 308 l 488 379 l 476 260 q 375 192 471 192 q 464 465 425 319 q 531 778 503 611 q 538 644 533 708 q 550 521 543 581 l 653 550 q 628 858 628 697 l 628 889 q 628 904 628 896 q 629 922 628 913 l 603 943 m 553 493 q 595 272 568 371 q 658 96 622 174 l 658 92 q 581 64 658 64 q 526 67 557 64 q 457 75 494 69 l 439 50 l 881 -67 q 742 216 797 72 q 657 524 686 360 l 553 493 m 546 1051 l 444 1106 l 304 969 l 449 1043 l 551 976 l 682 1129 l 546 1051 z "},"":{"ha":913,"x_min":-110,"x_max":989,"o":"m 754 922 l 706 881 l 678 881 q 693 638 678 758 q 744 390 708 517 q 840 131 781 264 q 989 -146 900 -1 l 933 -185 l 426 -53 l 431 -57 l 289 -167 q -110 -90 147 -92 l -76 13 l -33 63 q 58 94 25 76 q 194 426 135 258 q 301 776 254 594 l 218 828 l 249 1099 l 290 1149 l 774 1149 l 754 922 m 603 943 l 324 915 l 317 894 l 392 850 q 400 839 400 846 q 397 833 400 839 q 135 97 299 442 q 6 21 119 51 l -1 1 q 332 -68 206 0 l 363 -46 l 307 40 l 356 142 l 576 142 q 536 250 553 192 q 513 379 519 308 l 488 379 l 476 260 q 375 192 471 192 q 464 465 425 319 q 531 778 503 611 q 538 644 533 708 q 550 521 543 581 l 653 550 q 628 858 628 697 l 628 889 q 628 904 628 896 q 629 922 628 913 l 603 943 m 553 493 q 595 272 568 371 q 658 96 622 174 l 658 92 q 581 64 658 64 q 526 67 557 64 q 457 75 494 69 l 439 50 l 881 -67 q 742 216 797 72 q 657 524 686 360 l 553 493 m 575 1099 l 563 971 l 708 971 l 721 1099 l 575 1099 m 476 1099 l 336 1099 l 324 971 l 465 971 l 476 1099 z "},"":{"ha":913,"x_min":-110,"x_max":989,"o":"m 426 -53 l 289 -167 q -110 -90 147 -92 l -76 13 l -33 63 q 58 94 25 76 q 194 426 135 258 q 301 776 254 594 l 218 828 l 244 913 l 269 938 q 253 1014 253 972 q 274 1097 253 1054 q 328 1174 294 1139 q 403 1232 361 1210 q 489 1254 446 1254 q 564 1239 528 1254 q 626 1197 600 1224 q 669 1135 653 1171 q 685 1060 685 1100 q 677 1009 685 1033 q 657 963 669 985 l 681 944 q 678 900 679 926 q 678 858 678 874 q 693 628 678 744 q 744 388 708 511 q 840 131 781 264 q 989 -146 900 -1 l 975 -142 l 933 -185 l 426 -53 m 344 1060 q 369 979 344 1014 q 435 925 394 944 l 324 915 l 317 894 l 392 850 q 400 839 400 846 q 397 833 400 839 q 135 97 299 442 q 6 21 119 51 l -1 1 q 332 -68 206 0 l 363 -46 l 307 40 l 356 142 l 576 142 q 536 250 553 192 q 513 379 519 308 l 488 379 l 476 260 q 375 192 471 192 q 464 465 425 319 q 531 778 503 611 q 538 644 533 708 q 550 521 543 581 l 653 550 q 628 858 628 697 l 628 889 q 628 904 628 896 q 629 922 628 913 l 603 943 l 568 939 q 617 991 599 961 q 635 1060 635 1021 q 623 1115 635 1089 q 592 1162 611 1142 q 545 1194 572 1182 q 489 1206 518 1206 q 433 1194 460 1206 q 388 1162 407 1182 q 356 1115 368 1142 q 344 1060 344 1089 m 553 493 q 595 272 568 371 q 658 96 622 174 l 658 92 q 581 64 658 64 q 526 67 557 64 q 457 75 494 69 l 439 50 l 881 -67 q 742 216 797 72 q 657 524 686 360 l 553 493 m 411 1061 q 433 1119 411 1096 q 489 1142 456 1142 q 547 1119 524 1142 q 569 1061 569 1096 q 547 1006 569 1028 q 489 983 524 983 q 433 1006 456 983 q 411 1061 411 1028 z "},"":{"ha":1500,"x_min":-110,"x_max":1490,"o":"m 1490 974 l 1303 692 l 1322 692 l 1311 569 l 1303 569 l 1261 528 q 1051 543 1128 528 l 1274 429 l 1257 422 l 1219 383 l 960 264 l 976 257 l 1457 464 l 1431 167 l 1382 124 l 903 -92 q 603 51 699 -40 l 368 51 l 364 43 l 431 -57 l 289 -167 q -110 -90 147 -92 l -76 13 l -33 63 q 58 94 25 76 q 194 426 135 258 q 301 776 254 594 l 218 828 l 244 913 l 288 963 l 618 993 l 679 936 q 678 910 678 926 q 678 888 678 894 l 678 810 q 678 786 678 799 q 681 761 679 774 l 985 990 l 1025 953 l 1065 994 l 1067 1004 l 1421 1033 l 1490 974 m 603 943 l 324 915 l 317 894 l 392 850 q 400 839 400 846 q 397 833 400 839 q 135 97 299 442 q 6 21 119 51 l -1 1 q 332 -68 206 0 l 363 -46 l 307 40 l 356 142 l 576 142 q 536 250 553 192 q 513 379 519 308 l 488 379 l 476 260 q 375 192 471 192 q 464 465 425 319 q 531 778 503 611 q 538 644 533 708 q 550 521 543 581 l 653 550 q 628 858 628 697 l 628 889 q 628 904 628 896 q 629 922 628 913 l 603 943 m 553 493 q 588 301 568 381 q 649 165 608 222 q 760 70 690 108 q 944 3 829 32 l 1383 200 l 1401 385 l 978 204 l 811 272 l 1161 432 l 992 518 l 814 413 l 903 371 l 736 292 q 690 392 710 336 q 657 524 669 449 l 553 493 m 1125 796 l 982 925 l 715 726 l 729 701 l 914 769 q 935 772 928 772 q 951 765 944 772 l 951 764 q 692 514 951 743 q 679 492 679 503 q 689 472 679 482 l 788 425 l 967 532 l 907 561 q 894 576 894 567 q 904 593 894 583 l 1125 796 m 1404 983 l 1114 958 l 1113 940 l 1211 919 q 1219 911 1219 917 q 1218 906 1219 907 l 1058 661 q 1056 651 1056 653 q 1265 619 1056 619 l 1268 642 l 1256 642 q 1229 658 1229 642 q 1235 678 1229 665 l 1425 965 l 1404 983 m 697 583 q 726 610 713 599 q 751 632 740 621 l 693 611 l 697 583 z "},"":{"ha":864,"x_min":28,"x_max":932,"o":"m 592 -203 l 333 -386 l 210 -249 l 313 -151 l 296 -132 l 296 -43 l 54 381 q 36 408 44 396 q 28 439 28 421 q 34 469 28 453 q 56 501 40 486 l 193 632 l 101 599 l 53 693 l 425 990 l 467 953 l 508 1004 l 861 1033 l 932 974 l 744 692 l 764 692 l 751 569 l 703 528 q 411 585 449 528 l 376 554 q 363 533 363 544 l 524 242 l 726 400 l 822 257 l 496 -11 l 600 -125 l 592 -203 m 867 965 l 846 983 l 554 958 l 554 940 l 653 919 q 661 911 661 917 q 660 906 661 907 l 592 801 l 424 925 l 157 726 l 169 701 l 356 769 q 376 772 369 772 q 393 765 386 772 l 393 764 q 133 514 393 743 q 119 485 119 500 q 133 456 119 468 l 256 240 l 406 349 l 315 513 q 311 529 311 521 q 322 564 311 546 q 346 593 332 582 l 575 775 l 500 661 q 496 651 496 654 q 707 619 496 619 l 708 642 l 697 642 q 669 658 669 642 q 676 678 669 661 l 867 965 m 549 -142 l 424 -7 l 756 267 l 714 328 l 508 165 l 419 326 l 269 218 l 388 14 l 388 -68 l 485 -182 l 443 -210 l 389 -153 l 321 -207 l 386 -281 l 544 -175 l 549 -142 z "},"":{"ha":919,"x_min":7,"x_max":963,"o":"m 774 692 l 794 692 l 782 569 l 732 528 q 612 532 664 528 q 522 543 560 536 l 746 429 l 431 264 l 447 257 l 928 464 l 903 167 l 369 -93 l 64 42 q 19 86 31 57 q 7 143 7 115 q 41 237 7 190 q 142 315 75 283 l 189 338 l 93 386 q 65 415 71 397 q 58 446 58 432 q 81 499 58 476 l 225 633 l 132 599 l 82 693 l 365 924 l 281 924 l 349 1024 l 310 1039 l 418 1203 l 794 1054 l 790 1025 l 892 1033 l 963 974 l 774 692 m 464 518 l 285 413 l 374 371 l 164 271 q 113 232 128 254 q 97 189 97 210 q 133 126 97 156 l 415 3 l 856 200 l 872 385 l 449 204 l 282 272 l 632 432 l 464 518 m 597 796 l 453 925 l 186 726 l 200 701 l 385 769 q 397 772 392 771 q 406 772 401 772 q 424 765 417 772 l 424 764 q 164 514 424 743 q 150 492 150 504 q 161 472 150 483 l 258 425 l 438 532 l 379 561 q 365 576 365 567 q 376 593 365 582 l 597 796 m 897 965 l 876 983 l 585 958 l 583 940 l 683 919 q 690 911 690 917 q 689 906 690 907 l 531 661 q 526 651 526 654 q 736 619 526 619 l 739 642 l 728 642 q 700 658 700 642 q 707 678 700 661 l 897 965 m 440 1140 l 422 1108 l 464 1093 l 411 1014 l 757 1014 l 440 1140 z "},"":{"ha":919,"x_min":7,"x_max":963,"o":"m 774 692 l 794 692 l 782 569 l 732 528 q 612 532 664 528 q 522 543 560 536 l 746 429 l 690 383 l 431 264 l 447 257 l 928 464 l 903 167 l 853 124 l 369 -93 l 64 42 q 19 86 31 57 q 7 143 7 115 q 21 190 7 164 q 60 244 35 217 q 118 295 85 271 q 189 338 151 319 l 93 386 q 65 415 71 397 q 58 446 58 432 q 81 499 58 476 l 225 633 l 132 599 l 82 693 l 365 924 l 336 924 l 319 1006 l 738 1203 l 807 1083 l 772 1057 l 794 1025 l 892 1033 l 963 974 l 774 692 m 464 518 l 285 413 l 374 371 l 164 271 q 113 232 128 254 q 97 189 97 210 q 133 126 97 156 l 415 3 l 856 200 l 872 385 l 449 204 l 282 272 l 632 432 l 464 518 m 597 796 l 453 925 l 186 726 l 200 701 l 385 769 q 397 772 392 771 q 406 772 401 772 q 424 765 417 772 l 424 764 q 164 514 424 743 q 150 492 150 504 q 161 472 150 483 l 258 425 l 438 532 l 379 561 q 365 576 365 567 q 376 593 365 582 l 597 796 m 897 965 l 876 983 l 585 958 l 583 940 l 683 919 q 690 911 690 917 q 689 906 690 907 l 531 661 q 526 651 526 654 q 736 619 526 619 l 739 642 l 728 642 q 700 658 700 642 q 707 678 700 661 l 897 965 m 744 1014 l 692 1093 l 733 1108 l 715 1140 l 399 1014 l 744 1014 z "},"":{"ha":919,"x_min":7,"x_max":963,"o":"m 774 692 l 794 692 l 782 569 l 732 528 q 612 532 664 528 q 522 543 560 536 l 746 429 l 431 264 l 447 257 l 928 464 l 903 167 l 369 -93 l 64 42 q 19 86 31 57 q 7 143 7 115 q 20 199 7 172 q 53 249 33 226 q 97 288 72 271 q 142 315 121 306 l 189 338 l 93 386 q 58 446 58 419 q 81 499 58 476 l 225 633 l 132 599 l 82 693 l 365 924 l 147 924 l 178 965 l 550 1192 l 815 1028 l 892 1033 l 963 974 l 774 692 m 464 518 l 285 413 l 374 371 l 164 271 q 113 232 128 254 q 97 189 97 210 q 105 154 97 172 q 133 126 113 136 l 415 3 l 856 200 l 872 385 l 449 204 l 282 272 l 632 432 l 464 518 m 597 796 l 453 925 l 186 726 l 200 701 l 385 769 q 397 772 392 771 q 406 772 401 772 q 424 765 417 772 l 424 764 q 362 688 424 753 q 164 514 300 622 q 150 492 150 504 q 161 472 150 478 l 258 425 l 438 532 l 379 561 q 365 576 365 567 q 376 593 365 582 l 597 796 m 897 965 l 876 983 l 585 958 l 583 940 l 683 919 q 690 911 690 917 q 689 906 690 907 l 531 661 q 526 651 526 654 q 736 619 526 619 l 739 642 l 728 642 q 700 658 700 642 q 707 678 700 661 l 897 965 m 742 1014 l 550 1133 l 356 1014 l 742 1014 z "},"":{"ha":919,"x_min":7,"x_max":963,"o":"m 774 692 l 794 692 l 782 569 l 732 528 q 612 532 664 528 q 522 543 560 536 l 746 429 l 690 383 l 431 264 l 447 257 l 928 464 l 903 167 l 853 124 l 369 -93 l 64 42 q 19 88 31 57 q 7 157 7 119 q 34 235 7 193 q 142 315 61 276 l 189 338 l 93 386 q 58 446 58 419 q 81 499 58 476 l 225 633 l 132 599 l 82 693 l 321 889 l 225 889 l 244 1108 l 286 1158 l 771 1158 l 758 1022 l 892 1033 l 963 974 l 774 692 m 464 518 l 285 413 l 374 371 l 164 271 q 113 232 128 254 q 97 189 97 210 q 105 154 97 172 q 133 126 113 136 l 415 3 l 856 200 l 872 385 l 449 204 l 282 272 l 632 432 l 464 518 m 597 796 l 453 925 l 186 726 l 200 701 l 385 769 q 397 772 392 771 q 406 772 401 772 q 424 765 417 772 l 424 764 q 164 514 424 743 q 150 492 150 504 q 161 472 150 483 l 258 425 l 438 532 l 379 561 q 365 576 365 567 q 376 593 365 582 l 597 796 m 897 965 l 876 983 l 585 958 l 583 940 l 683 919 q 690 911 690 917 q 689 906 690 907 l 531 661 q 526 651 526 654 q 736 619 526 619 l 739 642 l 728 642 q 700 658 700 642 q 707 678 700 661 l 897 965 m 571 1108 l 558 981 l 706 981 l 717 1108 l 571 1108 m 472 1108 l 332 1108 l 319 981 l 461 981 l 472 1108 z "},"":{"ha":697,"x_min":22,"x_max":707,"o":"m 508 206 l 579 310 l 671 246 l 599 -50 l 550 -92 l 42 -92 l 22 206 l 163 313 l 185 247 l 222 667 l 143 567 l 58 625 l 131 915 l 207 1024 l 167 1039 l 275 1203 l 653 1054 l 636 965 l 688 964 l 707 663 l 567 564 l 546 625 l 508 206 m 258 88 l 207 88 l 182 101 l 135 238 l 115 226 l 131 0 l 560 0 l 615 225 l 599 236 l 528 100 l 499 86 l 449 86 l 492 581 l 301 581 l 258 88 m 494 607 l 513 828 l 564 828 l 592 814 l 638 678 l 657 689 l 642 914 l 211 914 l 157 690 l 174 679 l 246 815 l 274 829 l 325 829 l 306 607 l 494 607 m 297 1140 l 279 1108 l 321 1093 l 269 1014 l 615 1014 l 297 1140 z "},"":{"ha":697,"x_min":22,"x_max":707,"o":"m 688 956 l 707 663 l 567 564 l 546 625 l 508 206 l 579 310 l 671 246 l 599 -50 l 550 -92 l 42 -92 l 22 206 l 163 313 l 185 247 l 222 667 l 143 567 l 58 625 l 131 915 l 199 965 l 192 1006 l 232 1054 l 610 1203 l 679 1083 l 644 1057 l 688 956 m 301 581 l 258 88 l 207 88 l 182 101 l 135 238 l 115 226 l 131 0 l 560 0 l 615 225 l 599 236 l 528 100 l 499 86 l 449 86 l 492 581 l 301 581 m 304 607 l 494 607 l 513 828 l 564 828 l 592 814 l 638 678 l 657 689 l 642 914 l 211 914 l 157 690 l 174 679 l 246 815 l 274 829 l 325 829 l 304 607 m 617 1014 l 564 1093 l 606 1108 l 588 1140 l 271 1014 l 617 1014 z "},"":{"ha":697,"x_min":22,"x_max":707,"o":"m 438 1164 l 690 1007 l 707 663 l 567 564 l 546 625 l 508 206 l 579 310 l 671 246 l 599 -50 l 550 -92 l 42 -92 l 22 206 l 163 313 l 185 247 l 222 667 l 143 567 l 58 625 l 143 967 l 438 1164 m 301 581 l 258 88 l 207 88 l 182 101 l 135 238 l 115 226 l 131 0 l 560 0 l 615 225 l 599 236 l 528 100 l 499 86 l 449 86 l 492 581 l 301 581 m 304 607 l 494 607 l 513 828 l 564 828 l 592 814 l 638 678 l 657 689 l 642 914 l 211 914 l 157 690 l 174 679 l 246 815 l 274 829 l 325 829 l 304 607 m 629 986 l 438 1104 l 243 986 l 629 986 z "},"":{"ha":697,"x_min":22,"x_max":707,"o":"m 668 964 l 688 964 l 707 663 l 567 564 l 546 622 l 508 206 l 579 310 l 671 246 l 599 -50 l 550 -92 l 42 -92 l 22 206 l 163 313 l 185 247 l 222 667 l 143 567 l 58 625 l 131 915 l 143 928 l 156 1063 l 197 1113 l 682 1113 l 668 964 m 301 581 l 258 88 l 207 88 l 182 101 l 135 238 l 115 226 l 131 0 l 560 0 l 615 225 l 599 236 l 528 100 l 499 86 l 449 86 l 492 581 l 301 581 m 304 607 l 494 607 l 513 828 l 564 828 l 592 814 l 638 678 l 657 689 l 642 914 l 211 914 l 157 690 l 174 679 l 246 815 l 274 829 l 325 829 l 304 607 m 482 1063 l 469 935 l 617 935 l 628 1063 l 482 1063 m 383 1063 l 243 1063 l 231 935 l 372 935 l 383 1063 z "},"":{"ha":1433,"x_min":7,"x_max":1503,"o":"m 981 188 l 1042 238 l 971 193 l 981 188 m 1229 851 l 1218 849 l 1179 810 l 1125 799 l 1242 704 l 1503 483 l 1493 383 l 1444 339 l 867 -143 l 629 -10 l 506 -10 l 535 321 l 333 321 l 358 217 l 349 222 l 307 181 l 7 358 l 19 436 l 60 476 l 61 485 l 394 639 l 460 739 l 372 757 l 379 854 l 419 894 l 421 903 l 774 933 l 807 903 l 868 965 l 1235 965 l 1229 851 m 779 864 l 758 882 l 468 858 l 467 839 l 565 818 q 574 811 574 815 q 572 806 574 807 l 414 560 q 413 556 413 557 q 411 554 413 554 q 746 518 411 518 l 707 72 l 907 -43 l 1446 407 l 1450 463 l 1243 638 l 1099 506 l 1264 357 l 981 124 l 882 206 l 914 567 l 613 567 q 585 582 585 567 q 592 603 585 589 l 779 864 m 1183 915 l 889 915 l 776 803 l 1081 522 l 1224 653 l 1019 825 l 1040 864 l 1182 893 l 1183 915 m 632 413 l 601 79 l 658 82 l 692 471 l 276 471 l 332 554 l 107 450 l 103 426 l 283 319 l 261 413 l 632 413 m 1150 379 l 978 538 l 953 253 l 1150 379 m 875 615 l 756 749 l 657 615 l 875 615 z "},"":{"ha":1021,"x_min":10,"x_max":979,"o":"m 956 957 q 974 847 968 903 q 979 732 979 790 q 967 535 979 635 q 939 338 954 436 q 889 108 921 224 q 810 -143 857 -8 l 761 -183 q 511 -81 656 -121 l 417 -167 q 234 -111 333 -131 q 10 -90 135 -92 l 15 11 l 57 58 q 94 69 78 65 q 122 78 110 74 q 163 544 149 371 q 179 775 178 717 l 89 822 l 89 911 l 136 961 l 329 981 l 517 1167 l 625 1107 l 751 1182 l 813 1111 l 707 974 l 914 993 l 956 957 m 899 943 l 726 925 q 442 511 571 796 l 478 922 l 454 943 l 183 915 l 182 894 l 268 850 q 271 828 271 847 q 256 590 271 771 q 213 97 240 408 q 184 56 210 75 q 104 21 158 36 l 103 1 q 292 -17 204 0 q 454 -68 379 -33 l 479 -46 l 401 40 l 425 329 q 750 808 613 739 l 750 790 q 708 403 750 588 l 894 371 q 917 582 910 476 q 924 796 924 688 q 924 859 924 828 q 922 922 924 890 l 899 943 m 703 376 q 604 93 668 229 q 538 57 600 57 q 510 59 525 57 q 478 64 496 61 l 467 32 q 782 -71 657 1 q 844 135 818 33 q 889 343 871 238 l 703 376 m 618 361 q 641 506 632 436 q 654 646 650 575 q 567 506 611 588 q 474 315 522 424 l 457 118 q 533 107 517 107 q 578 228 558 165 q 618 361 599 290 m 625 1051 l 524 1106 l 383 969 l 529 1043 l 631 976 l 761 1129 l 625 1051 m 513 763 l 594 871 l 528 914 l 513 763 z "},"":{"ha":864,"x_min":35,"x_max":860,"o":"m 506 118 q 467 221 485 167 q 436 333 449 275 l 418 107 q 426 106 421 106 q 451 106 432 106 q 507 113 475 106 q 506 115 507 114 q 506 118 506 117 m 710 1054 l 697 989 l 860 989 l 838 744 q 765 682 793 724 q 736 579 736 640 q 742 497 736 540 q 758 412 747 454 q 783 329 768 369 q 815 256 797 289 q 842 144 842 203 q 808 18 842 69 q 720 -65 774 -33 q 600 -110 667 -96 q 468 -124 533 -124 q 332 -112 399 -124 q 208 -81 265 -100 q 106 -40 151 -62 q 35 4 61 -18 l 51 108 l 92 151 q 127 567 115 413 q 140 775 139 722 l 50 822 l 50 914 l 97 964 l 226 964 l 264 1024 l 225 1039 l 333 1203 l 710 1054 m 593 181 q 599 149 599 164 q 585 108 599 125 q 551 79 572 90 q 503 62 529 68 q 451 56 476 56 q 399 63 424 56 q 365 85 375 71 l 376 203 l 185 203 l 178 131 q 160 118 168 124 q 143 108 153 113 l 133 108 q 130 90 132 99 q 126 72 128 81 q 188 36 149 54 q 277 3 226 18 q 388 -22 328 -12 q 514 -32 449 -32 q 619 -25 569 -32 q 708 1 669 -18 q 770 56 747 21 q 793 146 793 90 q 772 235 793 194 q 710 401 733 310 q 686 581 686 493 q 710 719 686 663 q 792 786 735 775 l 806 943 l 143 943 l 142 894 l 228 850 q 231 825 231 847 q 219 627 231 775 q 185 228 207 479 l 378 228 l 432 858 l 538 865 q 505 765 515 821 q 494 644 494 708 q 522 410 494 532 q 593 181 550 288 m 356 1140 l 338 1108 l 379 1093 l 326 1014 l 672 1014 l 356 1140 z "},"":{"ha":864,"x_min":35,"x_max":860,"o":"m 506 118 q 466 222 483 169 q 436 333 449 275 l 418 107 q 426 106 421 106 q 451 106 432 106 q 507 113 475 106 q 506 115 507 114 q 506 118 506 117 m 838 744 q 763 685 789 729 q 736 579 736 640 q 742 497 736 540 q 758 412 747 454 q 783 329 768 369 q 815 256 797 289 q 842 144 842 203 q 808 18 842 69 q 720 -65 774 -33 q 600 -110 667 -96 q 468 -124 533 -124 q 332 -112 399 -124 q 208 -81 265 -100 q 106 -40 151 -62 q 35 4 61 -18 q 36 39 35 25 q 40 63 38 53 q 45 83 42 74 q 51 108 49 93 l 90 147 q 127 564 115 406 q 140 775 139 722 l 50 822 l 50 914 l 97 964 l 249 964 l 242 1006 l 282 1054 l 660 1203 l 729 1083 l 694 1057 l 740 990 l 860 990 l 838 744 m 593 181 q 599 149 599 164 q 585 108 599 125 q 551 79 572 90 q 503 62 529 68 q 451 56 476 56 q 399 63 424 56 q 365 85 375 71 l 376 203 l 185 203 l 178 131 q 159 118 168 124 q 133 108 150 113 q 130 90 132 99 q 126 72 128 81 q 188 36 149 54 q 277 3 226 18 q 388 -22 328 -12 q 514 -32 449 -32 q 619 -25 569 -32 q 708 1 669 -18 q 770 56 747 21 q 793 146 793 90 q 772 235 793 194 q 710 401 733 310 q 686 581 686 493 q 710 719 686 663 q 792 786 735 775 l 806 943 l 143 943 l 142 894 l 228 850 q 231 825 231 847 q 219 627 231 775 q 185 228 207 479 l 378 228 l 432 858 l 538 865 q 505 765 515 821 q 494 644 494 708 q 522 410 494 532 q 593 181 550 288 m 665 1014 l 614 1093 l 656 1108 l 638 1140 l 319 1014 l 665 1014 z "},"":{"ha":864,"x_min":35,"x_max":860,"o":"m 838 744 q 762 686 788 732 q 736 579 736 640 q 742 497 736 540 q 758 412 747 454 q 783 329 768 369 q 815 256 797 289 q 842 144 842 203 q 808 18 842 69 q 720 -65 774 -33 q 600 -110 667 -96 q 468 -124 533 -124 q 332 -112 399 -124 q 208 -81 265 -100 q 106 -40 151 -62 q 35 4 61 -18 l 51 108 l 92 151 q 127 567 115 413 q 140 775 139 722 l 50 822 l 50 914 l 97 964 l 157 967 l 481 1164 l 760 990 l 860 990 l 838 744 m 593 181 q 599 149 599 164 q 585 108 599 125 q 551 79 572 90 q 503 62 529 68 q 451 56 476 56 q 399 63 424 56 q 365 85 375 71 l 376 203 l 185 203 l 178 131 q 160 118 168 124 q 143 108 153 113 l 133 108 q 130 90 132 99 q 126 72 128 81 q 188 36 149 54 q 277 3 226 18 q 388 -22 328 -12 q 514 -32 449 -32 q 619 -25 569 -32 q 708 1 669 -18 q 770 56 747 21 q 793 146 793 90 q 772 235 793 194 q 710 401 733 310 q 686 581 686 493 q 710 719 686 663 q 792 786 735 775 l 806 943 l 143 943 l 142 894 l 228 850 q 231 825 231 847 q 219 627 231 775 q 185 228 207 479 l 378 228 l 432 858 l 538 865 q 505 765 515 821 q 494 644 494 708 q 522 410 494 532 q 593 181 550 288 m 672 986 l 481 1104 l 286 986 l 672 986 m 504 119 q 466 222 483 169 q 436 333 449 275 l 418 107 q 426 106 421 106 q 451 106 432 106 q 506 113 474 106 q 505 116 506 115 q 504 119 504 117 z "},"":{"ha":864,"x_min":35,"x_max":860,"o":"m 504 119 q 466 222 483 169 q 436 333 449 275 l 418 107 q 426 106 421 106 q 451 106 432 106 q 507 113 475 106 q 506 117 507 115 q 504 119 504 118 m 838 744 q 795 728 814 743 q 763 691 776 714 q 743 639 750 668 q 736 579 736 610 q 742 497 736 540 q 758 412 747 454 q 783 329 768 369 q 815 256 797 289 q 842 144 842 203 q 808 18 842 69 q 720 -65 774 -33 q 600 -110 667 -96 q 468 -124 533 -124 q 332 -112 399 -124 q 208 -81 265 -100 q 106 -40 151 -62 q 35 4 61 -18 l 51 108 l 92 151 q 127 567 115 413 q 140 775 139 722 l 50 822 l 50 914 l 97 964 l 226 964 l 425 1167 l 533 1107 l 661 1182 l 721 1111 l 611 985 l 860 985 l 838 744 m 593 181 q 599 149 599 164 q 585 108 599 125 q 551 79 572 90 q 503 62 529 68 q 451 56 476 56 q 399 63 424 56 q 365 85 375 71 l 376 203 l 185 203 l 178 131 q 160 118 168 124 q 143 108 153 113 l 133 108 q 130 90 132 99 q 126 72 128 81 q 188 36 149 54 q 277 3 226 18 q 388 -22 328 -12 q 514 -32 449 -32 q 619 -25 569 -32 q 708 1 669 -18 q 770 56 747 21 q 793 146 793 90 q 772 235 793 194 q 710 401 733 310 q 686 581 686 493 q 710 719 686 663 q 792 786 735 775 l 806 943 l 143 943 l 142 894 l 228 850 q 231 825 231 847 q 219 627 231 775 q 185 228 207 479 l 378 228 l 432 858 l 538 865 q 505 765 515 821 q 494 644 494 708 q 522 410 494 532 q 593 181 550 288 m 533 1051 l 432 1106 l 293 969 l 438 1043 l 539 976 l 669 1129 l 533 1051 z "},"":{"ha":864,"x_min":35,"x_max":860,"o":"m 724 989 l 860 989 l 838 744 q 765 682 793 724 q 736 579 736 640 q 742 497 736 540 q 758 412 747 454 q 783 329 768 369 q 815 256 797 289 q 842 144 842 203 q 808 18 842 69 q 720 -65 774 -33 q 600 -110 667 -96 q 468 -124 533 -124 q 332 -112 399 -124 q 208 -81 265 -100 q 106 -40 151 -62 q 35 4 61 -18 l 51 108 l 92 151 q 127 567 115 413 q 140 775 139 722 l 50 822 l 50 914 l 97 964 l 199 964 l 211 1099 l 253 1149 l 738 1149 l 724 989 m 593 181 q 599 149 599 164 q 585 108 599 125 q 551 79 572 90 q 503 62 529 68 q 451 56 476 56 q 399 63 424 56 q 365 85 375 71 l 376 203 l 185 203 l 178 131 q 160 118 168 124 q 143 108 153 113 l 133 108 q 130 90 132 99 q 126 72 128 81 q 188 36 149 54 q 277 3 226 18 q 388 -22 328 -12 q 514 -32 449 -32 q 619 -25 569 -32 q 708 1 669 -18 q 770 56 747 21 q 793 146 793 90 q 772 235 793 194 q 710 401 733 310 q 686 581 686 493 q 710 719 686 663 q 792 786 735 775 l 806 943 l 143 943 l 142 894 l 228 850 q 231 825 231 847 q 219 627 231 775 q 185 228 207 479 l 378 228 l 432 858 l 538 865 q 505 765 515 821 q 494 644 494 708 q 522 410 494 532 q 593 181 550 288 m 538 1099 l 526 971 l 672 971 l 685 1099 l 538 1099 m 440 1099 l 299 1099 l 288 971 l 428 971 l 440 1099 m 504 119 q 466 222 483 169 q 436 333 449 275 l 418 107 q 426 106 421 106 q 451 106 432 106 q 507 113 475 106 q 506 115 507 114 q 506 118 506 117 l 504 119 z "},"":{"ha":864,"x_min":35,"x_max":860,"o":"m 444 300 q 441 310 442 306 q 438 321 440 315 l 428 251 l 429 251 l 418 107 q 432 106 422 106 q 456 106 443 106 q 481 107 469 106 q 499 111 492 108 q 504 118 506 114 q 444 300 472 199 m 838 744 q 765 682 793 724 q 736 579 736 640 q 742 497 736 540 q 758 412 747 454 q 783 329 768 369 q 815 256 797 289 q 842 144 842 203 q 808 18 842 69 q 720 -65 774 -33 q 600 -110 667 -96 q 468 -124 533 -124 q 332 -112 399 -124 q 208 -81 265 -100 q 106 -40 151 -62 q 35 4 61 -18 q 36 39 35 25 q 40 63 38 53 q 45 83 42 74 q 51 108 49 93 l 90 147 q 92 151 90 150 q 127 567 115 413 q 140 775 139 722 l 50 822 l 50 914 l 97 985 l 860 985 l 838 744 m 593 181 q 599 149 599 164 q 585 108 599 125 q 551 79 572 90 q 503 62 529 68 q 451 56 476 56 q 399 63 424 56 q 365 85 375 71 l 376 203 l 185 203 l 178 131 q 160 118 168 124 q 143 108 153 113 l 133 108 q 130 90 132 99 q 126 72 128 81 q 188 36 149 54 q 277 3 226 18 q 388 -22 328 -12 q 514 -32 449 -32 q 619 -25 569 -32 q 708 1 669 -18 q 770 56 747 21 q 793 146 793 90 q 772 235 793 194 q 710 401 733 310 q 686 581 686 493 q 710 719 686 663 q 792 786 735 775 l 806 943 l 143 943 l 142 894 l 228 850 q 231 825 231 847 q 219 627 231 775 q 185 228 207 479 l 378 228 l 386 342 l 511 457 q 547 317 526 386 q 593 181 567 247 m 400 494 l 432 858 l 538 865 q 504 762 514 819 q 494 633 494 704 l 494 608 q 494 597 494 603 q 496 583 494 590 l 400 494 z "},"":{"ha":826,"x_min":-15,"x_max":915,"o":"m 704 1054 l 689 983 l 915 961 l 915 861 l 800 790 l 746 158 l 782 158 l 790 51 q 699 -16 751 15 q 581 -72 646 -47 q 440 -110 515 -96 q 283 -124 365 -124 q 169 -116 224 -124 q 74 -87 115 -108 q 9 -30 33 -67 q -15 65 -15 7 q -2 143 -15 103 q 35 217 11 183 q 84 303 58 249 q 132 424 110 358 q 168 563 154 490 q 182 701 182 635 q 163 783 182 750 q 107 822 144 815 l 119 947 l 163 997 l 232 989 l 257 1024 l 218 1039 l 326 1203 l 704 1054 m 861 894 l 863 915 l 597 943 l 571 922 l 497 85 q 460 63 486 71 q 406 56 435 56 q 361 60 385 56 q 317 76 338 65 q 285 101 297 86 q 272 138 272 117 q 285 183 272 156 q 316 245 297 211 q 356 319 335 279 q 396 403 378 358 l 226 471 q 176 342 203 404 q 118 235 150 279 q 76 111 76 176 q 100 33 76 61 q 161 -10 124 4 q 243 -29 199 -25 q 329 -33 288 -33 q 456 -24 394 -33 q 571 1 518 -14 q 665 35 624 17 q 733 72 707 54 q 732 90 732 75 l 732 108 l 722 108 q 693 131 708 115 l 754 833 q 768 850 757 844 l 861 894 m 406 428 q 456 598 438 515 q 475 751 475 681 q 465 842 475 801 q 431 915 454 883 l 207 943 l 203 903 q 256 855 239 896 q 272 747 272 814 q 263 628 272 692 q 232 497 253 564 l 406 428 m 349 1140 l 331 1108 l 372 1093 l 319 1014 l 665 1014 l 349 1140 m 411 106 l 431 364 q 374 236 397 283 q 329 156 350 189 q 324 138 324 146 q 350 113 324 121 q 406 106 376 106 l 411 106 z "},"":{"ha":826,"x_min":-15,"x_max":915,"o":"m 411 106 l 431 364 q 374 236 397 283 q 329 156 350 189 q 324 138 324 146 q 350 113 324 121 q 406 106 376 106 l 411 106 m 800 790 l 746 158 l 782 158 l 790 51 q 699 -16 751 15 q 581 -72 646 -47 q 440 -110 515 -96 q 283 -124 365 -124 q 169 -116 224 -124 q 74 -87 115 -108 q 9 -30 33 -67 q -15 65 -15 7 q -3 142 -15 101 q 33 215 10 183 q 83 303 57 249 q 131 424 110 358 q 167 563 153 490 q 182 701 182 635 q 163 783 182 750 q 107 822 144 815 l 119 947 l 163 997 l 240 988 l 238 1006 l 278 1054 l 656 1203 l 725 1083 l 711 1078 l 690 1057 l 744 978 l 915 961 l 915 861 l 800 790 m 861 894 l 863 915 l 597 943 l 571 922 l 497 85 q 460 63 486 71 q 406 56 435 56 q 361 60 385 56 q 317 76 338 65 q 285 101 297 86 q 272 138 272 117 q 285 183 272 156 q 316 245 297 211 q 356 319 335 279 q 396 403 378 358 l 226 471 q 176 342 203 404 q 118 235 150 279 q 76 111 76 176 q 100 33 76 61 q 161 -10 124 4 q 243 -29 199 -25 q 329 -33 288 -33 q 456 -24 394 -33 q 571 1 518 -14 q 665 35 624 17 q 733 72 707 54 q 732 90 732 75 l 732 108 l 722 108 q 693 131 708 115 l 754 833 q 768 850 757 844 l 861 894 m 406 428 q 456 598 438 515 q 475 751 475 681 q 465 842 475 801 q 431 915 454 883 l 207 943 l 203 903 q 256 855 239 896 q 272 747 272 814 q 263 628 272 692 q 232 497 253 564 l 406 428 m 663 1014 l 610 1093 l 651 1108 l 633 1140 l 315 1014 l 663 1014 z "},"":{"ha":826,"x_min":-15,"x_max":915,"o":"m 800 790 l 746 158 l 782 158 l 790 51 q 699 -16 751 15 q 581 -72 646 -47 q 440 -110 515 -96 q 283 -124 365 -124 q 169 -116 224 -124 q 74 -87 115 -108 q 9 -30 33 -67 q -15 65 -15 7 q -3 143 -15 103 q 33 215 10 183 q 83 303 57 249 q 131 424 110 358 q 167 563 153 490 q 182 701 182 635 q 163 783 182 750 q 107 822 144 815 l 119 947 l 163 997 l 217 990 l 500 1164 l 811 971 l 915 961 l 915 861 l 800 790 m 861 894 l 863 915 l 597 943 l 571 922 l 497 85 q 460 63 486 71 q 406 56 435 56 q 361 60 385 56 q 317 76 338 65 q 285 101 297 86 q 272 138 272 117 q 285 183 272 156 q 316 245 297 211 q 356 319 335 279 q 396 403 378 358 l 226 471 q 176 342 203 404 q 118 235 150 279 q 76 111 76 176 q 100 33 76 61 q 161 -10 124 4 q 243 -29 199 -25 q 329 -33 288 -33 q 456 -24 394 -33 q 571 1 518 -14 q 665 35 624 17 q 733 72 707 54 q 732 90 732 75 l 732 108 l 722 108 q 693 131 708 115 l 754 833 q 768 850 757 844 l 861 894 m 406 428 q 456 598 438 515 q 475 751 475 681 q 465 842 475 801 q 431 915 454 883 l 207 943 l 203 903 q 256 855 239 896 q 272 747 272 814 q 263 628 272 692 q 232 497 253 564 l 406 428 m 692 986 l 500 1104 l 306 986 l 692 986 m 411 106 l 431 364 q 374 236 397 283 q 329 156 350 189 q 324 138 324 146 q 350 113 324 121 q 406 106 376 106 l 411 106 z "},"":{"ha":826,"x_min":-15,"x_max":915,"o":"m 750 1149 l 735 978 l 915 961 l 915 861 l 800 790 l 746 158 l 782 158 l 790 51 q 699 -16 751 15 q 581 -72 646 -47 q 440 -110 515 -96 q 283 -124 365 -124 q 169 -116 224 -124 q 74 -87 115 -108 q 9 -30 33 -67 q -15 65 -15 7 q -3 142 -15 101 q 33 215 10 183 q 83 303 57 249 q 131 424 110 358 q 167 563 153 490 q 182 701 182 635 q 163 783 182 750 q 107 822 144 815 l 119 947 l 163 997 l 213 990 l 224 1099 l 265 1149 l 750 1149 m 861 894 l 863 915 l 597 943 l 571 922 l 497 85 q 460 63 486 71 q 406 56 435 56 q 361 60 385 56 q 317 76 338 65 q 285 101 297 86 q 272 138 272 117 q 285 183 272 156 q 316 245 297 211 q 356 319 335 279 q 396 403 378 358 l 226 471 q 176 342 203 404 q 118 235 150 279 q 76 111 76 176 q 100 33 76 61 q 161 -10 124 4 q 243 -29 199 -25 q 329 -33 288 -33 q 456 -24 394 -33 q 571 1 518 -14 q 665 35 624 17 q 733 72 707 54 q 732 90 732 75 l 732 108 l 722 108 q 693 131 708 115 l 754 833 q 768 850 757 844 l 861 894 m 406 428 q 456 598 438 515 q 475 751 475 681 q 465 842 475 801 q 431 915 454 883 l 207 943 l 203 903 q 256 855 239 896 q 272 747 272 814 q 263 628 272 692 q 232 497 253 564 l 406 428 m 550 1099 l 538 971 l 685 971 l 696 1099 l 550 1099 m 451 1099 l 311 1099 l 299 971 l 440 971 l 451 1099 m 411 106 l 431 364 q 374 236 397 283 q 329 156 350 189 q 324 138 324 146 q 350 113 324 121 q 406 106 376 106 l 411 106 z "},"":{"ha":836,"x_min":-22,"x_max":931,"o":"m 815 790 l 761 167 l 799 167 l 799 57 q 692 -13 750 18 q 569 -67 633 -44 q 435 -103 504 -90 q 299 -115 367 -115 q 194 -108 250 -115 q 90 -83 139 -101 q 10 -31 42 -64 q -22 56 -22 3 q 8 145 -22 104 q 78 225 39 186 l 81 343 q 36 468 36 392 q 49 547 36 507 q 85 619 61 586 q 117 660 97 635 q 156 714 136 686 q 192 767 176 742 q 210 804 207 792 l 208 804 q 185 808 206 804 q 125 818 164 813 l 133 947 l 175 997 l 251 988 l 250 1006 l 290 1054 l 667 1203 l 736 1083 l 703 1057 l 756 978 l 931 961 l 931 861 l 815 790 m 878 894 l 879 915 l 613 943 l 586 922 l 546 464 q 516 446 535 451 q 475 440 497 440 q 424 447 450 440 q 375 467 397 454 q 338 498 353 479 q 324 540 324 517 q 333 577 324 557 q 354 614 342 597 l 194 678 l 182 660 q 142 588 156 622 q 128 514 128 554 q 151 438 128 465 q 213 395 175 410 q 296 376 250 381 q 388 372 342 372 q 465 376 426 372 q 539 386 504 381 l 513 94 q 471 69 499 76 q 411 61 443 61 q 329 75 368 61 q 285 117 290 89 l 285 119 q 303 165 285 142 q 344 212 322 189 q 384 256 365 235 q 403 297 403 278 q 396 321 403 310 l 171 354 l 168 313 q 205 303 194 310 q 215 289 215 297 q 198 259 215 276 q 158 224 181 242 q 113 189 135 207 q 85 157 92 171 q 69 101 69 128 q 97 37 69 61 q 167 -1 125 13 q 257 -18 208 -14 q 346 -22 306 -22 q 473 -12 411 -22 q 588 12 535 -3 q 683 44 642 26 q 750 81 725 63 l 750 118 l 739 118 q 708 140 725 122 l 771 833 q 783 850 772 843 l 878 894 m 368 636 q 459 785 426 732 q 492 865 492 839 q 481 893 492 882 q 446 915 469 904 l 222 943 l 219 901 q 282 881 263 893 q 301 850 301 869 q 276 791 301 828 q 210 700 251 754 l 368 636 m 674 1014 l 621 1093 l 664 1108 l 644 1140 l 328 1014 l 674 1014 m 374 540 q 401 505 374 518 q 460 489 428 492 l 481 725 q 463 696 479 722 q 425 635 443 668 q 379 560 407 603 q 374 540 374 553 m 439 247 q 415 215 431 232 q 383 181 400 197 q 353 150 367 165 q 336 124 340 135 q 426 111 349 111 l 439 247 z "},"":{"ha":836,"x_min":-22,"x_max":931,"o":"m 750 978 l 931 961 l 931 861 l 815 790 l 761 167 l 799 167 l 799 57 q 692 -13 750 18 q 569 -67 633 -44 q 435 -103 504 -90 q 299 -115 367 -115 q 194 -108 250 -115 q 90 -83 139 -101 q 10 -31 42 -64 q -22 56 -22 3 q 7 144 -22 104 q 75 224 36 185 l 81 343 q 36 468 36 392 q 55 553 36 510 q 101 641 74 597 q 158 726 128 685 q 210 804 188 768 l 208 804 q 178 811 193 810 q 125 818 164 813 l 133 947 l 175 997 l 228 990 l 239 1099 l 281 1149 l 765 1149 l 750 978 m 878 894 l 879 915 l 613 943 l 586 922 l 546 464 q 516 446 535 451 q 475 440 497 440 q 424 447 450 440 q 375 467 397 454 q 338 498 353 479 q 324 540 324 517 q 333 577 324 557 q 354 614 342 597 l 194 678 l 182 660 q 142 588 156 622 q 128 514 128 554 q 151 438 128 465 q 213 395 175 410 q 296 376 250 381 q 388 372 342 372 q 465 376 426 372 q 539 386 504 381 l 513 94 q 471 69 499 76 q 411 61 443 61 q 329 75 368 61 q 285 117 290 89 l 285 119 q 303 165 285 142 q 344 212 322 189 q 384 256 365 235 q 403 297 403 278 q 396 321 403 310 l 171 354 l 168 313 q 205 303 194 310 q 215 289 215 297 q 198 259 215 276 q 158 224 181 242 q 113 189 135 207 q 85 157 92 171 q 69 101 69 128 q 97 37 69 61 q 167 -1 125 13 q 257 -18 208 -14 q 346 -22 306 -22 q 473 -12 411 -22 q 588 12 535 -3 q 683 44 642 26 q 750 81 725 63 l 750 118 l 739 118 q 708 140 725 122 l 771 833 q 783 850 772 843 l 878 894 m 368 636 q 459 785 426 732 q 492 865 492 839 q 481 893 492 882 q 446 915 469 904 l 222 943 l 219 901 q 282 881 263 893 q 301 850 301 869 q 276 791 301 828 q 210 700 251 754 l 368 636 m 565 1099 l 554 971 l 700 971 l 711 1099 l 565 1099 m 468 1099 l 326 1099 l 315 971 l 456 971 l 468 1099 m 374 540 q 401 505 374 518 q 460 489 428 492 l 481 725 q 456 683 474 707 q 419 635 438 660 q 388 585 401 610 q 374 540 374 561 m 439 247 q 415 215 431 232 q 383 181 400 197 q 353 150 367 165 q 336 124 340 135 q 426 111 349 111 l 439 247 z "},"":{"ha":697,"x_min":22,"x_max":707,"o":"m 508 206 l 579 310 l 671 246 l 599 -50 l 550 -92 l 42 -92 l 22 206 l 163 313 l 185 247 l 222 667 l 143 567 l 58 625 l 131 915 l 172 965 l 688 965 l 707 663 l 567 564 l 546 625 l 508 206 m 258 88 l 207 88 l 182 101 l 135 238 l 115 226 l 131 0 l 560 0 l 615 225 l 599 236 l 528 100 l 499 86 l 449 86 l 492 581 l 301 581 l 258 88 m 494 607 l 513 828 l 564 828 l 592 814 l 638 678 l 657 689 l 642 915 l 211 915 l 157 690 l 174 679 l 246 815 l 274 829 l 325 829 l 304 607 l 494 607 z "},"":{"ha":2094,"x_min":-1,"x_max":2079,"o":"m 1892 692 l 1911 692 l 1900 569 l 1892 569 l 1850 528 q 1640 543 1717 528 l 1863 429 l 1846 422 l 1808 383 l 1549 264 l 1565 257 l 2046 464 l 2019 167 l 2008 163 l 1969 124 l 1488 -93 l 1310 -12 q 1278 -37 1299 -24 l 1260 -57 q 1207 -94 1239 -81 q 1139 -113 1175 -107 q 1065 -122 1103 -119 q 996 -124 1028 -124 q 860 -112 926 -124 q 738 -81 794 -100 q 635 -40 681 -62 q 564 4 590 -18 q 565 39 564 25 q 569 63 567 53 q 574 84 571 74 q 579 108 576 94 l 619 147 l 639 360 l 293 411 l 293 347 l 288 353 l 244 310 l -1 503 l 32 579 l 71 618 l 76 629 l 329 669 l 264 811 q 254 832 257 822 q 251 853 251 842 q 269 899 251 881 l 299 928 q 378 968 315 967 l 1389 993 l 1375 840 l 1574 990 l 1614 953 l 1654 994 l 1656 1004 l 2010 1033 l 2079 974 l 1892 692 m 1581 518 l 1403 413 l 1490 371 l 1282 271 q 1234 422 1251 343 q 1217 576 1217 501 q 1241 717 1217 660 q 1319 786 1265 775 l 1335 943 l 379 918 q 343 899 343 915 q 351 876 343 889 l 467 631 q 356 597 468 621 l 354 578 l 640 554 l 664 572 l 522 833 q 522 835 522 835 q 521 838 521 836 q 728 875 521 868 q 750 740 750 867 q 747 625 750 690 q 736 476 743 560 l 928 476 l 961 858 l 1067 865 q 1034 766 1044 821 q 1024 649 1024 711 q 1051 413 1024 535 q 1121 181 1079 290 q 1128 149 1128 160 q 1113 108 1128 125 q 1077 79 1099 90 q 1029 62 1056 68 q 981 56 1003 56 q 927 63 951 56 q 894 85 903 71 l 925 450 l 733 450 l 707 131 q 690 118 697 124 q 672 108 682 113 l 663 108 q 659 90 661 99 q 656 72 657 81 q 717 35 678 54 q 806 1 756 17 q 917 -24 857 -14 q 1042 -33 976 -33 q 1122 -30 1081 -33 q 1202 -15 1164 -26 q 1269 21 1240 -3 q 1313 86 1299 44 l 1317 97 l 1533 3 l 1972 200 l 1990 385 l 1567 204 l 1400 272 l 1750 432 l 1581 518 m 1714 796 l 1571 925 l 1304 726 l 1317 701 l 1503 769 q 1524 772 1517 772 q 1540 765 1533 772 l 1540 764 q 1281 514 1540 743 q 1268 492 1268 503 q 1278 472 1268 482 l 1376 425 l 1556 532 l 1496 561 q 1483 576 1483 567 q 1493 593 1483 583 l 1714 796 m 2014 965 l 1993 983 l 1703 958 l 1701 940 l 1800 919 q 1808 911 1808 917 q 1807 906 1808 907 l 1647 661 q 1643 651 1643 654 q 1854 619 1643 619 l 1857 642 l 1844 642 q 1817 658 1817 642 q 1824 678 1817 661 l 2014 965 m 244 519 l 700 450 l 703 504 l 269 565 l 307 615 l 110 583 l 100 563 l 244 450 l 244 519 m 711 610 l 711 832 l 575 832 l 686 610 l 711 610 m 1033 119 q 965 335 990 218 l 946 107 q 961 106 950 106 l 981 106 q 1033 113 1003 106 l 1033 119 m 1267 567 q 1308 603 1289 588 q 1340 633 1326 619 l 1267 606 l 1267 567 z "},"":{"ha":1536,"x_min":35,"x_max":1540,"o":"m 738 576 q 774 608 757 594 q 803 633 790 621 l 739 610 q 738 593 738 604 l 738 576 m 504 119 q 466 222 483 168 q 436 333 449 275 l 418 107 q 432 106 422 106 l 451 106 q 506 113 474 106 q 505 116 506 115 q 504 119 504 117 m 1353 692 l 1372 692 l 1360 569 l 1353 569 l 1311 528 q 1190 532 1243 528 q 1100 543 1138 536 l 1324 429 l 1307 422 l 1269 383 l 1010 264 l 1026 257 l 1507 464 l 1481 167 l 1468 163 l 1431 124 l 947 -93 l 774 -17 q 694 -76 735 -54 q 613 -108 653 -97 q 537 -121 574 -118 q 468 -124 500 -124 q 332 -112 399 -124 q 208 -81 265 -100 q 106 -40 151 -62 q 35 4 61 -18 q 36 39 35 25 q 40 63 38 53 q 45 83 42 74 q 51 108 49 93 l 90 147 q 92 151 90 150 q 127 567 115 413 q 140 775 139 722 l 50 822 l 50 914 l 97 990 l 860 990 l 847 850 l 1033 990 l 1075 953 l 1115 994 l 1117 1004 l 1469 1033 l 1540 974 l 1353 692 m 1042 518 l 863 413 l 951 371 l 751 275 q 704 423 721 342 q 688 576 688 504 q 712 717 688 660 q 792 786 736 775 l 806 943 l 143 943 l 142 894 l 228 850 q 231 825 231 847 q 219 627 231 775 q 185 228 207 479 l 378 228 l 432 858 l 538 865 q 505 766 515 821 q 494 649 494 711 q 523 413 494 535 q 593 181 551 290 q 599 149 599 164 q 585 108 599 125 q 549 79 571 90 q 501 62 528 68 q 451 56 475 56 q 399 63 424 56 q 365 85 375 71 l 376 203 l 185 203 l 178 131 q 160 118 168 124 q 143 108 153 113 l 133 108 q 130 90 132 99 q 126 72 128 81 q 188 35 149 54 q 277 1 226 17 q 388 -24 328 -14 q 513 -33 447 -33 q 595 -30 551 -33 q 678 -13 639 -26 q 746 25 717 0 q 786 94 775 50 l 993 3 l 1433 200 l 1450 385 l 1028 204 l 860 272 l 1210 432 l 1042 518 m 1175 796 l 1032 925 l 765 726 l 778 701 l 964 769 q 985 772 978 772 q 1001 765 994 772 l 1001 764 q 742 514 1001 743 q 729 492 729 503 q 739 472 729 482 l 838 425 l 1015 532 l 957 561 q 944 576 944 567 q 954 593 944 583 l 1175 796 m 1475 965 l 1454 983 l 1164 958 l 1163 940 l 1261 919 q 1269 911 1269 917 q 1268 906 1269 907 l 1108 661 q 1104 651 1104 654 q 1315 619 1104 619 l 1317 642 l 1306 642 q 1278 658 1278 642 q 1285 678 1278 661 l 1475 965 z "},"":{"ha":1390,"x_min":7,"x_max":1488,"o":"m 1050 246 q 1048 294 1050 271 q 1043 340 1046 317 l 964 340 l 1050 246 m 907 572 l 978 572 q 960 606 960 585 q 963 626 960 619 q 971 640 965 632 l 1047 758 q 1003 749 1024 758 q 978 726 983 740 l 907 572 m 1478 1153 l 1417 1103 l 1283 1022 l 1417 1033 l 1488 974 l 1299 692 l 1318 692 l 1307 569 l 1299 569 l 1285 554 q 1342 370 1322 454 q 1363 215 1363 286 l 1360 144 q 1335 49 1353 97 q 1293 -50 1318 0 l 1244 -92 l 904 -92 l 889 -75 l 636 -75 l 629 -89 l 507 -89 l 546 351 l 569 375 l 556 389 l 304 424 l 324 328 l 315 335 l 272 292 l 7 501 l 25 581 l 65 619 l 67 631 l 278 686 l 222 808 q 208 851 208 831 q 220 892 208 872 q 251 929 232 913 q 292 956 269 946 q 336 965 315 965 l 931 965 l 707 1103 l 738 1153 l 1478 1153 m 314 594 l 313 576 l 599 551 l 621 569 l 481 833 q 488 848 481 842 q 522 858 494 854 q 605 865 550 863 q 756 867 660 867 l 771 863 l 767 814 l 642 461 l 667 432 l 1128 432 q 1138 362 1135 396 q 1142 297 1142 328 q 1141 263 1142 272 q 1139 249 1140 254 l 1314 207 l 1314 215 q 1296 360 1314 286 q 1244 522 1278 435 l 832 522 l 932 746 q 1022 831 958 804 q 1182 858 1086 857 l 1056 661 q 1051 651 1051 654 q 1261 619 1051 619 l 1264 642 l 1251 642 q 1225 658 1225 642 q 1231 678 1225 665 l 1422 965 l 1401 983 l 1110 958 l 1108 940 l 1207 919 q 1213 915 1213 918 l 336 915 q 300 897 300 915 q 310 874 300 888 l 424 625 q 415 615 424 617 l 314 594 m 1135 222 q 1089 129 1122 165 l 886 351 l 633 351 l 601 3 l 642 3 l 731 250 l 749 244 l 971 0 l 1263 0 q 1314 179 1306 78 l 1135 222 m 618 479 l 628 517 l 233 560 l 329 647 l 108 589 l 103 565 l 249 450 l 231 533 l 618 479 m 914 1103 l 1106 985 l 1300 1103 l 914 1103 m 525 838 l 646 618 l 729 832 l 525 838 m 760 151 l 729 11 l 883 11 l 760 151 z "},"":{"ha":863,"x_min":-21,"x_max":960,"o":"m 524 244 q 515 340 524 292 l 436 340 l 524 244 m 381 572 l 450 572 q 432 606 432 585 q 435 626 432 619 q 444 640 438 632 l 511 746 q 476 732 493 739 q 446 715 460 725 l 381 572 m 772 692 l 792 692 l 779 569 l 772 569 l 750 549 l 763 540 q 838 213 838 358 q 765 -50 838 81 l 717 -92 l 378 -92 l 203 99 l 150 -47 l 143 -47 l 101 -89 l -21 -89 l 18 351 l 43 375 l 15 404 l 149 783 l 25 817 l 32 915 l 72 956 l 74 965 l 325 965 l 101 1103 l 132 1153 l 872 1153 l 811 1103 l 668 1014 l 889 1033 l 960 974 l 772 692 m 304 522 l 371 671 l 188 671 l 114 461 l 140 432 l 600 432 q 611 358 607 392 q 615 296 615 324 q 561 129 615 181 l 358 351 l 106 351 l 75 3 l 115 3 l 204 250 l 221 244 l 444 0 l 735 0 q 788 213 788 99 q 717 522 788 351 l 304 522 m 894 965 l 874 983 l 582 958 l 581 940 l 681 919 q 686 915 686 918 l 119 915 l 119 897 l 243 863 l 239 814 l 197 697 l 382 697 l 404 746 q 654 858 476 838 l 528 661 q 524 651 524 654 q 733 619 524 619 l 736 642 l 725 642 q 697 658 697 642 q 704 678 697 661 l 894 965 m 308 1103 l 500 985 l 694 1103 l 308 1103 z "},"":{"ha":1425,"x_min":49,"x_max":1521,"o":"m 1375 1149 l 1360 976 l 1521 961 l 1515 861 q 1467 833 1485 843 q 1438 815 1449 822 q 1419 803 1426 808 q 1406 792 1413 799 l 1351 167 l 1389 167 l 1389 57 q 1283 -13 1342 18 q 1159 -67 1224 -44 q 1026 -103 1094 -90 q 889 -115 957 -115 q 715 -94 796 -115 l 714 -94 q 611 -41 654 -79 q 568 56 568 -3 q 598 145 568 100 q 664 221 628 190 l 671 343 q 635 387 643 367 q 626 443 626 407 l 339 481 l 347 414 l 296 376 l 49 554 l 67 632 l 108 682 l 338 735 l 275 871 q 264 913 264 890 q 273 958 264 935 q 299 999 282 981 q 342 1031 317 1018 q 397 1044 367 1043 l 838 989 l 849 1099 l 890 1149 l 1375 1149 m 729 451 q 769 408 742 424 q 831 385 796 393 q 906 374 867 376 q 978 372 944 372 q 1056 376 1017 372 q 1129 386 1094 381 l 1103 94 q 1061 69 1089 76 q 1001 61 1033 61 q 919 75 958 61 q 875 117 881 89 l 875 119 q 894 165 875 142 q 934 212 913 189 q 974 256 956 235 q 993 297 993 278 q 986 321 993 310 l 761 354 l 758 313 q 795 303 785 310 q 806 289 806 297 q 788 259 806 276 q 748 224 771 242 q 703 189 725 207 q 675 157 682 171 q 660 101 660 128 q 688 37 660 61 q 757 -1 715 13 q 847 -18 799 -14 q 936 -22 896 -22 q 1063 -13 1000 -22 q 1178 10 1125 -4 q 1274 44 1232 25 q 1339 81 1315 63 l 1339 118 l 1329 118 q 1299 140 1315 122 l 1360 833 q 1468 894 1363 844 l 1468 915 l 1203 943 l 1176 922 l 1136 464 q 1067 440 1114 440 q 984 457 1025 440 q 921 511 943 474 l 729 451 m 367 657 l 365 639 l 651 614 l 675 632 l 533 893 q 531 902 532 899 q 531 908 531 906 q 560 929 531 929 l 829 896 q 893 851 893 882 q 855 775 893 824 q 758 640 817 726 q 718 514 718 581 q 719 497 718 504 q 722 476 719 490 l 914 535 l 914 540 q 926 585 914 564 q 992 693 964 647 q 1041 772 1021 739 q 1072 828 1061 806 q 1082 867 1082 851 q 1071 893 1082 882 q 1036 915 1060 904 l 401 993 q 356 958 356 982 q 363 936 356 947 l 478 688 q 468 678 478 679 l 367 657 m 278 589 l 686 533 l 689 574 l 286 618 l 361 690 l 150 640 l 144 618 l 286 517 l 278 589 m 853 850 l 582 899 l 693 676 l 853 850 m 1175 1099 l 1164 971 l 1310 971 l 1321 1099 l 1175 1099 m 1076 1099 l 936 1099 l 925 971 l 1065 971 l 1076 1099 m 974 521 q 1008 500 988 508 q 1050 489 1028 492 l 1071 725 q 1047 685 1064 713 q 1011 629 1029 658 q 978 574 993 600 q 964 540 964 549 l 964 536 q 969 527 967 531 q 974 521 971 524 m 1017 111 l 1029 247 q 1006 214 1021 231 q 974 181 990 197 q 944 151 958 165 q 925 124 931 136 q 953 115 932 118 q 1001 111 975 111 l 1017 111 z "},"":{"ha":554,"x_min":-124,"x_max":646,"o":"m 646 936 l 585 894 l -124 894 l 278 1164 l 646 936 m 278 1104 l 83 986 l 469 986 l 278 1104 z "},"":{"ha":554,"x_min":-122,"x_max":647,"o":"m -122 1103 l -93 1153 l 647 1153 l 229 885 l -122 1103 m 275 985 l 469 1103 l 83 1103 l 275 985 z "},"":{"ha":515,"x_min":21,"x_max":451,"o":"m 21 1014 q 42 1099 22 1056 q 94 1176 63 1142 q 169 1233 126 1211 q 257 1254 211 1254 q 333 1239 297 1254 q 394 1197 368 1224 q 436 1135 421 1171 q 451 1060 451 1100 q 429 978 451 1019 q 372 901 407 936 q 295 845 338 867 q 211 824 253 824 q 138 839 172 824 q 77 880 103 854 q 36 940 51 906 q 21 1014 21 975 m 113 1060 q 124 1004 113 1031 q 156 958 136 978 q 201 927 175 939 q 257 915 228 915 q 313 927 286 915 q 359 958 339 939 q 391 1004 379 978 q 403 1060 403 1031 q 391 1115 403 1089 q 359 1162 379 1142 q 313 1194 339 1182 q 257 1206 286 1206 q 201 1194 228 1206 q 156 1162 175 1182 q 124 1115 136 1142 q 113 1060 113 1089 m 179 1061 q 201 1119 179 1096 q 257 1142 224 1142 q 315 1119 292 1142 q 338 1061 338 1096 q 315 1006 338 1028 q 257 983 292 983 q 201 1006 224 983 q 179 1061 179 1028 z "},"":{"ha":574,"x_min":14,"x_max":531,"o":"m 343 1107 l 469 1182 l 531 1111 l 313 871 l 199 946 l 65 878 l 14 947 l 235 1167 l 343 1107 m 242 1106 l 101 969 l 247 1043 l 349 976 l 479 1129 l 343 1051 l 242 1106 z "},"":{"ha":794,"x_min":21,"x_max":778,"o":"m 778 464 l 725 301 l 676 260 l 21 260 l 72 414 l 115 464 l 778 464 m 150 414 l 129 351 l 689 351 l 710 414 l 150 414 z "},"":{"ha":1094,"x_min":21,"x_max":1053,"o":"m 1053 464 l 999 301 l 950 260 l 21 260 l 72 414 l 115 464 l 1053 464 m 150 414 l 129 351 l 964 351 l 985 414 l 150 414 z "},"":{"ha":440,"x_min":-69,"x_max":504,"o":"m 246 631 q 72 808 146 701 q -69 1065 -3 915 l -31 1115 l 385 1115 l 393 992 l 354 960 q 409 824 372 896 q 504 672 446 753 l 451 631 l 246 631 m 411 719 q 293 1003 317 856 l 340 1024 l 338 1065 l 47 1065 q 290 715 144 840 l 411 719 z "},"":{"ha":464,"x_min":-96,"x_max":431,"o":"m 431 1026 q 128 624 326 792 l -96 631 q 57 929 31 807 l -1 954 l 11 1065 l 53 1115 l 424 1115 l 431 1026 m 378 1065 l 97 1065 l 94 1029 l 156 1003 q 36 719 132 854 l 158 715 q 381 1024 288 831 l 378 1065 z "},"":{"ha":713,"x_min":-69,"x_max":778,"o":"m 629 953 q 684 821 649 890 q 778 672 719 751 l 726 631 l 503 624 l 472 651 l 451 631 l 246 631 q 72 808 146 701 q -69 1065 -3 915 l -31 1115 l 669 1115 l 682 997 l 632 954 l 629 953 m 411 719 q 293 1003 317 856 l 340 1024 q 564 715 436 829 l 686 719 q 567 1003 590 854 l 628 1029 l 624 1065 l 47 1065 q 290 715 144 840 l 411 719 z "},"":{"ha":735,"x_min":-96,"x_max":751,"o":"m 11 1065 l 53 1115 l 751 1115 q 683 971 719 1038 q 603 845 646 904 q 511 731 561 786 q 403 624 461 676 l 264 628 l 221 710 q 175 665 199 686 q 128 624 151 644 l -96 631 q 57 929 31 807 l -1 954 l 11 1065 m 432 715 q 675 1065 578 840 l 97 1065 l 94 1029 l 156 1003 q 36 719 132 854 l 158 715 q 381 1024 288 831 l 429 1003 q 311 719 406 856 l 432 715 z "},"":{"ha":753,"x_min":6,"x_max":703,"o":"m 396 710 l 703 554 l 676 268 l 626 225 l 299 67 l 6 222 l 31 510 l 72 557 l 396 710 m 119 525 l 99 293 l 344 164 l 629 300 l 650 525 l 396 656 l 119 525 z "},"":{"ha":1482,"x_min":6,"x_max":1453,"o":"m 22 161 l 64 208 l 272 307 l 471 206 l 454 13 l 404 -31 l 196 -131 l 6 -33 l 22 161 m 99 42 l 242 -33 l 407 46 l 419 176 l 272 251 l 111 176 l 99 42 m 514 161 l 556 208 l 764 307 l 963 206 l 946 13 l 896 -31 l 688 -131 l 497 -33 l 514 161 m 590 42 l 733 -33 l 899 46 l 911 176 l 764 251 l 603 176 l 590 42 m 1004 161 l 1046 208 l 1254 307 l 1453 206 l 1436 13 l 1386 -31 l 1178 -131 l 988 -33 l 1004 161 m 1081 42 l 1224 -33 l 1389 46 l 1401 176 l 1254 251 l 1093 176 l 1081 42 z "},"":{"ha":757,"x_min":65,"x_max":481,"o":"m 481 679 l 472 576 l 401 435 l 474 225 l 413 106 l 272 7 l 65 426 l 336 794 l 481 679 m 296 415 l 114 433 l 275 117 l 385 211 l 296 415 m 143 460 l 310 442 l 424 663 l 349 732 l 143 460 z "},"":{"ha":753,"x_min":63,"x_max":460,"o":"m 69 88 l 63 194 l 144 367 l 72 576 l 133 696 l 274 794 l 460 436 l 456 328 l 219 -3 l 69 88 m 157 646 l 246 460 l 419 440 l 267 740 l 157 646 m 408 411 l 239 431 l 118 194 l 193 125 l 408 411 z "},"":{"ha":861,"x_min":-26,"x_max":863,"o":"m 476 415 q 471 356 471 393 q 477 273 471 318 q 495 185 483 228 q 525 104 507 142 q 568 43 543 67 q 547 42 561 42 l 526 42 q 394 67 428 42 l 435 519 l 663 710 l 596 793 l 447 668 l 450 696 l 258 696 l 240 494 l 96 374 l 163 292 l 228 346 l 203 57 q 185 45 193 51 q 168 35 178 39 l 158 35 l 153 0 l 769 0 q 715 99 738 46 q 679 201 693 151 q 659 294 665 251 q 653 361 653 336 q 663 384 653 375 q 688 398 674 393 q 718 404 703 403 q 744 406 733 406 q 736 435 742 419 l 476 415 m 271 833 l 260 722 l 451 722 l 464 858 l 558 864 q 557 889 557 871 l 557 931 l 175 915 l 174 894 l 260 850 q 271 836 271 843 l 271 833 m 782 454 q 790 422 786 444 q 800 358 794 400 l 792 358 l 750 317 l 707 314 q 723 241 711 282 q 754 152 735 200 q 801 53 774 104 q 863 -50 828 1 l 853 -50 l 811 -92 l 54 -92 l 72 35 l 113 76 l 117 85 l 128 215 l 96 199 l -26 353 l 153 501 l 176 772 l 81 822 l 81 914 l 126 954 l 128 964 l 607 982 q 607 915 607 944 q 610 854 607 886 l 733 703 l 482 494 l 479 465 l 735 485 l 782 454 z "},"":{"ha":861,"x_min":-26,"x_max":863,"o":"m 476 415 q 471 356 471 393 q 477 273 471 318 q 495 185 483 228 q 525 104 507 142 q 568 43 543 67 q 547 42 561 42 l 526 42 q 394 67 428 42 l 435 519 l 663 710 l 596 793 l 447 668 l 450 696 l 258 696 l 240 494 l 96 374 l 163 292 l 228 346 l 203 57 q 185 45 193 51 q 168 35 178 39 l 158 35 l 153 0 l 769 0 q 715 99 738 46 q 679 201 693 151 q 659 294 665 251 q 653 361 653 336 q 663 384 653 375 q 688 398 674 393 q 718 404 703 403 q 744 406 733 406 q 736 435 742 419 l 476 415 m 271 833 l 260 722 l 451 722 l 464 858 l 558 864 q 557 889 557 871 l 557 931 l 175 915 l 174 894 l 260 850 q 271 836 271 843 l 271 833 m 782 454 q 790 422 786 444 q 800 358 794 400 l 792 358 l 750 317 l 707 314 q 723 241 711 282 q 754 152 735 200 q 801 53 774 104 q 863 -50 828 1 l 853 -50 l 811 -92 l 54 -92 l 72 35 l 113 76 l 117 85 l 128 215 l 96 199 l -26 353 l 153 501 l 176 772 l 81 822 l 81 914 l 126 954 l 128 964 l 607 982 q 607 915 607 944 q 610 854 607 886 l 733 703 l 482 494 l 479 465 l 735 485 l 782 454 z "},"":{"ha":956,"x_min":22,"x_max":1021,"o":"m 483 479 l 489 550 l 725 431 l 472 325 l 481 453 l 290 453 l 258 88 l 207 88 l 182 101 l 135 238 l 115 226 l 131 0 l 560 0 l 615 225 l 599 236 l 528 100 l 499 86 l 449 86 l 460 214 l 958 443 l 964 475 l 501 693 l 513 828 l 564 828 l 592 814 l 638 678 l 657 689 l 642 915 l 211 915 l 157 690 l 174 679 l 246 815 l 274 829 l 325 829 l 293 479 l 483 479 m 999 365 l 668 224 l 599 -50 l 550 -92 l 42 -92 l 22 206 l 163 313 l 185 247 l 222 667 l 143 567 l 58 625 l 131 915 l 172 965 l 688 965 l 707 663 l 1021 479 l 999 365 z "},"":{"ha":956,"x_min":22,"x_max":1021,"o":"m 483 479 l 489 550 l 725 431 l 472 325 l 481 453 l 290 453 l 258 88 l 207 88 l 182 101 l 135 238 l 115 226 l 131 0 l 560 0 l 615 225 l 599 236 l 528 100 l 499 86 l 449 86 l 460 214 l 958 443 l 964 475 l 501 693 l 513 828 l 564 828 l 592 814 l 638 678 l 657 689 l 642 915 l 211 915 l 157 690 l 174 679 l 246 815 l 274 829 l 325 829 l 293 479 l 483 479 m 999 365 l 668 224 l 599 -50 l 550 -92 l 42 -92 l 22 206 l 163 313 l 185 247 l 222 667 l 143 567 l 58 625 l 131 915 l 172 965 l 688 965 l 707 663 l 1021 479 l 999 365 z "}}}
